<?xml version="1.0" standalone="no"?>
<!DOCTYPE svg PUBLIC "-//W3C//DTD SVG 1.1//EN" "http://www.w3.org/Graphics/SVG/1.1/DTD/svg11.dtd" >
<svg xmlns="http://www.w3.org/2000/svg">
<metadata></metadata>
<defs>
<font id="bell_mtregular" horiz-adv-x="1024" >
<font-face units-per-em="2048" ascent="1638" descent="-410" />
<missing-glyph horiz-adv-x="512" />
<glyph horiz-adv-x="2048" />
<glyph horiz-adv-x="2048" />
<glyph unicode="&#xd;" horiz-adv-x="512" />
<glyph unicode=" "  horiz-adv-x="512" />
<glyph unicode="&#x09;" horiz-adv-x="512" />
<glyph unicode="&#xa0;" horiz-adv-x="512" />
<glyph unicode="!" horiz-adv-x="448" d="M127 78q0 -41 28.5 -69.5t69.5 -28.5t70 28.5t29 69.5t-29 69.5t-70 28.5t-69.5 -28.5t-28.5 -69.5zM127 1202q0 -6 3 -42t7 -79t8.5 -84t6.5 -55q6 -68 14 -146.5t14 -159.5t10.5 -160t4.5 -144q0 -12 6 -14.5t20 -2.5q16 0 18.5 10.5t2.5 51.5q0 33 6 102.5t15 156.5 t19.5 180t19.5 173t15.5 134.5t6.5 64.5t-2.5 32.5t-12.5 46t-29.5 42t-56.5 18.5q-41 0 -68.5 -35t-27.5 -90z" />
<glyph unicode="&#x22;" horiz-adv-x="831" d="M133 1217q0 -16 1 -27.5t3 -28t6 -42t13 -66.5l53 -297h43l55 295q8 45 13.5 74.5t8.5 48t4 32t1 25.5q0 31 -10.5 52.5t-25.5 33.5t-33.5 17t-35.5 5q-37 0 -56 -15t-28.5 -35.5t-10.5 -41t-1 -30.5zM498 1217q0 -16 1 -27.5t3 -28t6 -42t12 -66.5l53 -297h43l56 295 q8 45 13 74.5t8 48t4 32t1 25.5q0 31 -10 52.5t-25.5 33.5t-34 17t-34.5 5q-37 0 -56.5 -15t-28.5 -35.5t-10 -41t-1 -30.5z" />
<glyph unicode="#" horiz-adv-x="1366" d="M94 367h213l-86 -414h88l84 414h459l-88 -414h90l84 414h334v88h-316l84 407h232v88h-213l88 416h-88l-86 -416h-457l88 416h-86l-88 -416h-336v-88h318l-86 -407h-232v-88zM412 457l86 405h456l-84 -405h-458z" />
<glyph unicode="$" d="M94 246q0 -66 37 -128.5t105 -103.5q66 -39 129 -48t106 -11v-248h57v248q37 4 99.5 12t124.5 43q86 47 126 126t40 159q0 70 -26 122t-75 91t-121.5 68.5t-167.5 54.5v424q74 -6 119 -21.5t69.5 -32t33 -32t8.5 -21.5q0 -4 -1 -10t-9 -16q-23 -37 -27 -48.5t-4 -25.5 q0 -41 23.5 -58.5t45.5 -17.5q25 0 40.5 11.5t24.5 26.5t13 31.5t4 28.5q0 8 -7 40t-41 69t-102.5 69.5t-189.5 43.5v120h-57v-120q-100 -6 -165.5 -37t-105.5 -74t-56.5 -93t-16.5 -93q0 -78 29.5 -128.5t79 -85t111 -57t124.5 -43.5v-489q-90 6 -144.5 28.5t-85 48t-41 48 t-10.5 26.5q0 12 5.5 17.5t23.5 15.5q4 4 25.5 24.5t21.5 53.5q0 31 -23.5 61.5t-64.5 30.5q-35 0 -59.5 -30.5t-24.5 -69.5zM207 856q0 63 34.5 102t79 59.5t88.5 28t62 9.5v-406q-55 14 -103.5 32.5t-84 42.5t-56 56.5t-20.5 75.5zM528 -8v475q45 -16 96.5 -35.5 t92.5 -48.5t68.5 -69t27.5 -97q0 -18 -9 -54t-38 -73t-86 -65.5t-152 -32.5z" />
<glyph unicode="%" horiz-adv-x="1515" d="M84 991q0 -78 26.5 -139t68.5 -104t94.5 -66t105.5 -23q47 0 99 20.5t96 61.5t73 105.5t29 152.5q0 82 -27.5 144.5t-70.5 105.5t-95.5 64.5t-101.5 21.5q-66 0 -120 -27.5t-93 -74.5t-61.5 -109.5t-22.5 -132.5zM207 979q0 18 3 70.5t20.5 107.5t54 98t106.5 43 q20 0 48 -12t53.5 -44t43 -87t17.5 -139q0 -61 -10.5 -118.5t-32 -101.5t-54 -72t-79.5 -28q-27 0 -56.5 13.5t-55 46t-42 87t-16.5 136.5zM326 -25h61l819 1356h-65zM840 303q0 -78 26.5 -139.5t68.5 -104.5t95 -65.5t107 -22.5q47 0 99 20.5t95 61.5t72 105.5t29 152.5 q0 82 -28 144.5t-70 105.5t-94 64.5t-101 21.5q-66 0 -120 -27.5t-94 -74.5t-62.5 -109.5t-22.5 -132.5zM963 291q0 18 3 70.5t20.5 107.5t54 98t106.5 43q20 0 48 -12t53.5 -44t43 -87t17.5 -139q0 -61 -10.5 -118.5t-32 -102t-55 -72t-81.5 -27.5q-27 0 -56.5 13.5t-54 46 t-40.5 87t-16 136.5z" />
<glyph unicode="&#x26;" horiz-adv-x="1409" d="M94 287q0 -72 29 -129.5t76 -96t106.5 -59t122.5 -20.5q74 0 139.5 23.5t119.5 57t98 70.5t75 66q31 -53 56.5 -94.5t52 -69t55.5 -40.5t70 -13q51 0 100 18t87 42t61.5 45.5t23.5 27.5q0 8 -8 13t-12 5t-17.5 -9t-17.5 -13q-18 -12 -46 -24.5t-59 -12.5 q-39 0 -68.5 17.5t-57 49t-54.5 78.5t-57 107q20 27 34.5 48t29 48t32.5 65.5t49 104.5q10 23 28.5 55.5t44 63t61.5 53t83 24.5q12 0 24.5 2.5t12.5 16.5t-16 18l-250 -2q-10 0 -35 1t-52.5 2t-52 2t-34.5 1t-15.5 -7t-5.5 -13q0 -14 16.5 -16t30.5 -2q47 0 83 -26t36 -85 q0 -41 -15.5 -88t-37 -90t-43 -79t-33.5 -54q-23 39 -50.5 86t-68.5 101t-98 115.5t-139 129.5q23 18 53.5 47t58 64.5t47 77.5t19.5 91q0 51 -22.5 92t-57.5 68t-78 41t-82 14q-45 0 -92 -16t-86 -49t-63.5 -80t-24.5 -111q0 -90 54.5 -165.5t125.5 -149.5 q-51 -33 -111.5 -74t-112.5 -95t-87 -120.5t-35 -148.5zM254 369q0 49 11 90t38 80t68 76.5t102 78.5q76 -72 127 -123t90 -100t73 -102.5t75 -128.5q-23 -20 -53.5 -49t-71.5 -54.5t-89.5 -43t-103.5 -17.5q-51 0 -99 21.5t-85 60.5t-59.5 92t-22.5 119zM375 1096 q0 25 8 51.5t24.5 49t43 36.5t63.5 14q33 0 63.5 -14t54 -39t37 -57.5t13.5 -69.5q0 -45 -13.5 -81t-33 -64.5t-42 -50t-40.5 -37.5q-25 20 -55.5 47.5t-58 61.5t-46 72t-18.5 81z" />
<glyph unicode="'" horiz-adv-x="362" d="M82 1217q0 -16 1 -27.5t3 -28t6 -42t12 -66.5l54 -297h43l55 295q8 45 13 74.5t8.5 48t4.5 32t1 25.5q0 31 -10.5 52.5t-26 33.5t-33.5 17t-35 5q-37 0 -56.5 -15t-28.5 -35.5t-10 -41t-1 -30.5z" />
<glyph unicode="(" horiz-adv-x="618" d="M100 416q0 -170 33 -315.5t79 -262.5t98 -202t93 -132q29 -35 40.5 -41t21.5 -6h16t20.5 2t17.5 6.5t7 10.5t-6 13t-14 15q-35 37 -87 119t-101.5 199t-84 260t-34.5 303q0 227 70.5 440t187.5 408q4 6 17 24.5t26.5 37t24 33.5t10.5 18q0 8 -12.5 12t-23 5t-12.5 1 q-12 0 -32.5 -20.5t-42 -49t-41 -57.5t-27.5 -43q-92 -141 -141 -274.5t-71.5 -240t-27 -177t-4.5 -86.5z" />
<glyph unicode=")" horiz-adv-x="618" d="M84 -524q0 -8 12.5 -12.5t22.5 -5.5t12 -1q12 0 32.5 20.5t42 49.5t40 56.5t28.5 43.5q92 141 141.5 274.5t72 240t26.5 177.5t4 87q0 170 -32.5 315t-79 262t-99.5 202t-92 132q-29 35 -40 41t-21 6h-17q-10 0 -20.5 -2t-17.5 -6t-7 -10t6 -13.5t15 -15.5 q35 -37 87 -119t101 -198.5t84 -260t35 -303.5q0 -227 -65.5 -443t-192.5 -405q-4 -6 -17.5 -24.5l-27 -37t-23.5 -33.5t-10 -17z" />
<glyph unicode="*" d="M84 930q0 -29 23.5 -43.5t54.5 -14.5q29 0 88 9.5t186 31.5q4 0 11.5 2.5t11.5 2.5q8 0 8 -7q0 -4 -4 -7t-6 -5q-25 -16 -44.5 -30.5t-37 -27t-34.5 -26.5t-38 -31q-35 -29 -55.5 -46t-29.5 -29.5t-11 -20.5t-2 -20q0 -23 15.5 -36.5t31.5 -13.5q12 0 29.5 13.5t36 33 t37 42t32.5 41.5q6 8 24.5 32.5t37 50t33.5 45.5l16 19q10 0 10 -10l-5 -21q-5 -22 -5 -26q-10 -53 -24.5 -126t-14.5 -124q0 -4 1 -16.5t6 -24.5t16.5 -22.5t33.5 -10.5q18 0 29.5 8t15.5 19.5t5 22.5t1 18q0 18 -4 64t-9 97.5t-9 93.5t-4 48q0 10 6 10q4 0 7 -4t13 -21 q51 -72 85 -117.5t57.5 -72.5t41 -37t35.5 -10q20 0 37 12t17 33q0 16 -10.5 32.5t-20.5 28.5q-10 10 -32.5 28.5t-50.5 40t-55.5 41t-45.5 34.5q-4 2 -13.5 9t-19.5 14t-18 14l-9 8q0 8 13 8q4 0 46 -7t93 -14.5t98 -14.5t66 -7q33 0 46 16.5t13 32.5q0 20 -11 32.5 t-26.5 18.5t-31 7t-21.5 1q-12 0 -39 -3t-57.5 -8t-59 -9t-43.5 -6q-10 -2 -38.5 -8t-32.5 -6q-10 0 -12.5 4t-2.5 6q0 6 4 10t9 6q10 6 34.5 23.5t49.5 36.5q63 45 99 71.5t51 42t18.5 24.5t3.5 21q0 23 -17.5 34t-30.5 11q-23 0 -49 -20.5t-55 -52t-58.5 -72.5t-56.5 -84 q-16 -25 -20 -30t-8 -5q-8 0 -9 12q0 8 4.5 47t10.5 87.5t10 91.5t4 61q0 10 -2 24.5t-8 28t-17.5 22.5t-31.5 9q-10 0 -30.5 -15.5t-20.5 -66.5q0 -18 2 -36.5t6 -41t10 -54.5t16 -79q0 -4 3 -16t6.5 -26.5t6.5 -26t3 -15.5q0 -10 -6 -10q-2 0 -12.5 10.5t-21.5 22.5 t-21.5 24.5t-12.5 16.5q-72 90 -120 142t-79 52q-18 0 -34.5 -13t-16.5 -36q0 -14 6 -26.5t31 -34t75 -58t140 -100.5q2 -2 20.5 -15.5t18.5 -17.5q0 -8 -10 -8q-4 0 -11.5 2t-11.5 2q-61 10 -106 17.5t-78 12.5t-55.5 7t-38.5 2q-43 0 -58.5 -19.5t-15.5 -35.5z" />
<glyph unicode="+" horiz-adv-x="1366" d="M145 549h494v-494h88v494h494v88h-494v493h-88v-493h-494v-88z" />
<glyph unicode="," horiz-adv-x="448" d="M80 -299q0 -6 5 -13t11 -7q8 0 42 19t67 46q27 25 52.5 56.5t46 69.5t32.5 79t12 82q0 31 -12 58.5t-32.5 48t-45 32.5t-51.5 12q-35 0 -56.5 -13t-34 -29.5t-16.5 -34t-4 -25.5q0 -4 2 -17.5t11.5 -30t31 -30.5t60.5 -16q16 -2 27.5 -8.5t11.5 -32.5q0 -39 -14.5 -74 t-33 -61.5t-37 -45t-26.5 -24.5q-2 -2 -10 -7t-16.5 -11.5t-15.5 -12.5t-7 -10z" />
<glyph unicode="-" horiz-adv-x="704" d="M35 389q0 -29 8 -33t43 -4h539q31 0 38 4t7 33v55q0 29 -4 35t-27 6h-553q-35 0 -43 -5t-8 -36v-55z" />
<glyph unicode="." horiz-adv-x="448" d="M127 86q0 -41 27.5 -69.5t70.5 -28.5q41 0 70 28.5t29 69.5t-29 69.5t-70 28.5t-69.5 -28.5t-28.5 -69.5z" />
<glyph unicode="/" d="M117 -37h86l704 1389h-86z" />
<glyph unicode="0" d="M57 528q0 -92 29 -189t86 -176t140 -130t192 -51q106 0 191 50t145.5 130t93.5 179t33 200q0 104 -35 203.5t-94.5 175t-141.5 121.5t-176 46q-102 0 -187 -48t-146.5 -126.5t-95.5 -179t-34 -205.5zM225 528q0 98 17.5 191.5t52.5 166t90 117t133 44.5q70 0 117 -31 t78.5 -78t49 -104.5t25 -112.5t9.5 -100.5t2 -67.5q0 -39 -2 -92t-10.5 -112.5t-26 -118t-49 -104.5t-80.5 -74.5t-119 -28.5q-61 0 -114.5 36.5t-91.5 102t-59.5 159t-21.5 207.5z" />
<glyph unicode="1" d="M291 991q0 -4 6 -14t25 -10q23 0 49 -2t49.5 -11.5t41 -32t21.5 -61.5q2 -29 4 -88t4.5 -138t2.5 -175v-193q0 -66 -3.5 -108.5t-18.5 -68.5t-46 -37t-84 -13q-10 -2 -22.5 -5t-12.5 -18q0 -10 11.5 -14t21.5 -4q14 0 54 1t85 1t85 1t57 1q6 0 24.5 -1t38.5 -1 q23 0 41 -1t27 -1q31 0 30 25q0 10 -8 13t-14 3q-37 4 -55.5 8t-38.5 21q-12 8 -20.5 19t-13.5 50t-6 117t-1 221q0 37 1 73t2 86t2 120.5t1 177.5v129q0 29 -15 29q-4 0 -28 -15q-39 -25 -114 -46t-148 -21q-12 0 -23.5 -3.5t-11.5 -13.5z" />
<glyph unicode="2" d="M96 18q0 -6 6.5 -12t18.5 -6l143 2q23 0 84.5 -1t130.5 -1q72 0 134.5 -1t88.5 -1h43q18 0 56 4q4 8 22.5 47t38 84t35.5 82t16 41t-4 10t-12 6q-4 0 -10 -4t-25 -32q-23 -31 -40 -49.5t-43.5 -30t-68.5 -15.5t-112 -4h-303v4q16 12 62 48t98.5 77t100.5 78t67 53 q49 41 96 86t85 97.5t60.5 112t22.5 126.5q0 74 -26.5 124t-68.5 82t-92.5 46t-97.5 14q-86 0 -174 -42t-158.5 -106.5t-115.5 -140t-45 -145.5q0 -37 15 -70.5t39.5 -59t56.5 -40t67 -14.5q51 0 94 26.5t74.5 63.5t49 73t17.5 54q0 8 -6 13t-12 5q-10 0 -15.5 -10t-7.5 -14 q-18 -47 -39.5 -78t-44 -48t-45 -23.5t-41.5 -6.5q-29 0 -47 12.5t-29.5 31t-15.5 40t-4 41.5q0 66 24.5 134.5t68.5 126t105.5 93t135.5 35.5q66 0 100.5 -31.5t51 -69.5t19.5 -73t3 -41q0 -49 -13.5 -99t-34 -98.5t-48 -92.5t-54.5 -78q-23 -29 -49 -60t-72 -74t-120 -104 t-187 -149q-14 -10 -31.5 -25.5t-17.5 -22.5z" />
<glyph unicode="3" d="M104 186q0 -35 23 -71.5t63.5 -66.5t101 -49t136.5 -19q98 0 183 34.5t146.5 90t97.5 124t36 133.5q0 10 -7 49.5t-35 82.5t-83 76.5t-154 33.5l-4 4q8 4 28.5 18.5t44.5 31t45.5 32t31.5 21.5q14 10 31.5 27.5t33 40t26.5 50t11 62.5q0 27 -11 61.5t-41 63t-80 49 t-128 20.5q-88 0 -161.5 -29.5t-126 -75.5t-81 -102.5t-28.5 -111.5q0 -23 7 -47.5t24.5 -45t44 -34.5t67.5 -14q45 0 81 22.5t60.5 50t37 52t12.5 28.5q0 6 -4.5 12.5t-14.5 6.5q-8 0 -12 -5.5t-17 -25.5q-14 -23 -36.5 -48.5t-61.5 -25.5q-43 0 -61.5 31t-18.5 72 q0 49 19.5 94t53.5 80t79 55t94 20q74 0 115 -50t41 -115q0 -53 -15.5 -92t-51.5 -79t-92 -85t-138 -109q-20 -16 -24.5 -20.5t-4.5 -10.5q0 -10 6 -15t10 -5q6 0 17.5 8t13.5 10q39 31 63.5 49.5t41 27.5t28 12t27.5 3q12 0 35.5 -6t47 -22.5t40 -48t16.5 -80.5 q0 -4 -5 -35t-17.5 -75t-35 -95t-57 -93t-84 -71t-114.5 -29q-31 0 -61.5 7.5t-55 21.5t-39 36.5t-14.5 51.5q0 18 6 35q2 2 10 23.5t8 27.5q0 29 -20.5 49.5t-48.5 20.5q-49 0 -75 -35t-26 -70z" />
<glyph unicode="4" d="M53 422q0 -6 2 -19q100 2 174 4.5t131.5 3.5t100.5 1h86q0 -25 -2 -67t-4 -87t-5.5 -86t-9.5 -61q-6 -25 -19 -39.5t-27.5 -20.5t-28 -8t-19.5 -2q-51 0 -62.5 -3t-11.5 -18q0 -16 14.5 -18t41.5 -2h379q29 0 42 2t13 18q0 14 -13.5 17.5t-23.5 3.5q-12 0 -29.5 1t-35 7 t-33 18.5t-21.5 36.5q-4 14 -6 56.5t-2 91.5t1 93t1 67q51 2 88 2q39 0 65.5 -11.5t44 -37t29.5 -74.5q10 -37 13.5 -46t13.5 -9q6 0 13.5 5t7.5 15q0 12 -1.5 42t-1.5 64q0 35 -1 67t-1 44q0 8 1 30.5t2.5 47t2.5 47.5t1 33q0 4 -2.5 14t-16.5 10q-12 0 -14 -9t-6 -46 q-4 -53 -25.5 -82t-55.5 -42t-75 -16t-82 -3v69v109v129v129v113v75q-6 10 -14 11.5t-39 -2.5q-16 -16 -71.5 -74t-134.5 -145t-175 -197.5t-197 -233.5q-2 -12 -2 -18zM121 453q29 35 75 92t111 129q70 76 112 121t67.5 72.5t40 44t28.5 32.5v-86t-1 -139t-3 -148.5 t-4 -113.5h-121t-138.5 -1t-115.5 -2t-51 -1z" />
<glyph unicode="5" d="M115 199q0 -53 26.5 -93t69.5 -68t97 -42t110 -14q84 0 168 33.5t151.5 92t109.5 136.5t42 166q0 74 -29 129t-74 92t-100 55.5t-106 18.5q-45 0 -82 -10.5t-67 -26t-51.5 -30.5t-33.5 -26q2 27 10.5 74t16.5 94t16 89t12 61q68 -6 103 -6q92 0 159.5 28.5t111.5 68.5 t65.5 81t21.5 67q0 12 -14 13q-12 0 -21 -8q-47 -63 -102 -98.5t-133 -35.5q-12 0 -24.5 1t-34 4.5t-58.5 8.5t-98 15l-6 -14q-2 -4 -9.5 -51.5t-18.5 -116t-23.5 -147t-22.5 -146.5t-17 -114l-8 -46q0 -20 19 -20q14 0 16 9t6 32q4 33 24.5 69.5t53.5 67.5t77 51.5t95 20.5 q61 0 96 -27t50.5 -63.5t18.5 -73.5t3 -56q0 -80 -19.5 -155.5t-58.5 -135t-98 -95t-139 -35.5q-59 0 -104.5 26.5t-45.5 81.5q0 4 2 17.5t5 29t5.5 28.5t2.5 19q0 29 -25 47.5t-51 18.5q-2 0 -16.5 -2t-31 -10.5t-29.5 -28t-13 -51.5z" />
<glyph unicode="6" d="M98 469q0 -229 108.5 -358t293.5 -129q98 0 175 34.5t129 89t79.5 121t27.5 129.5q0 70 -27.5 129.5t-75.5 103.5t-112.5 69.5t-140.5 25.5q-12 0 -41 -2t-67.5 -11t-87 -31.5t-99.5 -61.5q25 168 75 263t106.5 143t108.5 60.5t79 12.5q35 0 79 -15.5t54 -50.5 q2 -4 3 -16t1 -29v-28v-19q0 -47 25.5 -64.5t50.5 -17.5q39 0 63.5 28.5t24.5 69.5q0 33 -18.5 66t-53.5 58.5t-85 41t-116 15.5q-137 0 -241.5 -52.5t-175 -140.5t-106.5 -200.5t-36 -233.5zM246 344q0 88 27.5 144.5t68.5 89t87 46t83 13.5q61 0 105.5 -25.5t74 -67.5 t44 -96.5t14.5 -109.5q0 -47 -12.5 -102.5t-41 -103.5t-75 -81t-115.5 -33q-55 0 -102.5 21.5t-82 62.5t-55 102.5t-20.5 139.5z" />
<glyph unicode="7" d="M139 813q0 -10 6.5 -15t12.5 -5q8 0 14 4t16 24q20 41 45 63.5t52.5 34t56.5 13.5t59 2h373q4 0 12.5 -2t8.5 -12q0 -2 -11.5 -28t-29 -63.5t-39 -83t-42 -87.5t-35.5 -75.5t-24 -47.5q-18 -43 -46.5 -110t-55.5 -136.5t-46.5 -133t-19.5 -102.5t19.5 -70.5t60.5 -31.5 q39 0 60.5 26.5t27.5 65.5l4 38q3 38 6 84t6 86t3 46q6 109 40 221.5t76 214t83.5 181t66.5 120.5l10 29q-47 2 -120.5 4t-157.5 2q-12 0 -44 -1t-69 -1t-69.5 -1t-45.5 -1q-47 0 -87 5t-54 36q-8 18 -12 23.5t-14 5.5t-14.5 -5.5t-8.5 -13.5q-10 -27 -22.5 -74t-23.5 -95 t-19.5 -87t-8.5 -47z" />
<glyph unicode="8" d="M145 254q0 -59 32 -109.5t84 -86t116.5 -56t130.5 -20.5q74 0 143.5 26.5t123.5 70.5t88 103.5t34 126.5q0 68 -26.5 117t-64.5 85t-80 58.5t-73 38.5q31 18 68 43t68.5 56.5t53 72.5t21.5 92q0 57 -28.5 103.5t-74.5 77t-104.5 47t-115.5 16.5q-84 0 -149.5 -29.5 t-110.5 -75.5t-70 -102.5t-25 -111.5q0 -59 22.5 -102.5t55.5 -73t70 -49t67 -31.5q-43 -25 -88 -53.5t-82.5 -62.5t-61.5 -77t-24 -94zM244 248q0 8 3 34.5t22.5 64.5t60 84t116.5 93q12 -6 45 -19t69 -26.5t67.5 -27t44.5 -19.5q43 -25 71.5 -73t28.5 -107 q0 -41 -16.5 -83t-48 -75t-80.5 -53.5t-117 -20.5q-72 0 -123 23t-83 56.5t-46 73.5t-14 75zM291 872q0 51 22.5 90t57.5 66t80 39t88 12q37 0 77.5 -11t76.5 -36.5t58.5 -66.5t22.5 -103q0 -55 -16.5 -93t-41 -65.5t-54 -45t-54.5 -31.5q-82 29 -141 52t-98 50t-58.5 60.5 t-19.5 82.5z" />
<glyph unicode="9" d="M88 137q0 -72 69.5 -128t202.5 -56q139 0 245 56.5t177.5 148.5t108.5 210.5t37 241.5q0 135 -40 228.5t-100.5 149.5t-133 82t-138.5 26q-78 0 -150.5 -30t-128 -81t-89 -118.5t-33.5 -143.5q0 -78 30.5 -140.5t80.5 -105.5t115 -65.5t130 -22.5q51 0 96 11.5t82 28.5 t65.5 36t51.5 33q-10 -70 -30.5 -160t-76.5 -180q-31 -47 -63.5 -79t-67 -50.5t-67.5 -25.5t-64 -7q-6 0 -29.5 1t-50 10t-47 28.5t-20.5 54.5q0 8 3 36t3 36q0 45 -25.5 60.5t-50.5 15.5q-35 0 -63.5 -26t-28.5 -75zM272 750q0 55 16.5 109t47.5 98t77 71t105 27 q63 0 112.5 -27t82 -72t49 -102t16.5 -119q0 -102 -33.5 -160.5t-78.5 -89t-90.5 -39t-65.5 -8.5q-49 0 -92 20.5t-75 60.5t-51.5 98.5t-19.5 132.5z" />
<glyph unicode=":" horiz-adv-x="448" d="M129 86q0 -41 27.5 -69.5t70.5 -28.5q41 0 70 28.5t29 69.5t-29 69.5t-70 28.5t-69.5 -28.5t-28.5 -69.5zM129 623q0 -41 27.5 -70t70.5 -29q41 0 70 29t29 70t-29 69.5t-70 28.5t-69.5 -28.5t-28.5 -69.5z" />
<glyph unicode=";" horiz-adv-x="448" d="M80 -299q0 -6 5 -13t11 -7q8 0 42 19t67 46q27 25 52.5 56.5t46 69.5t32.5 79t12 82q0 31 -12 58.5t-32.5 48t-45 32.5t-51.5 12q-35 0 -56.5 -13t-34 -29.5t-16.5 -34t-4 -25.5q0 -4 2 -17.5t11.5 -30t31 -30.5t60.5 -16q16 -2 27.5 -8.5t11.5 -32.5q0 -39 -14.5 -74 t-33 -61.5t-37 -45t-26.5 -24.5q-2 -2 -10 -7t-16.5 -11.5t-15.5 -12.5t-7 -10zM127 623q0 -41 28.5 -70t69.5 -29t70 29t29 70t-29 69.5t-70 28.5t-69.5 -28.5t-28.5 -69.5z" />
<glyph unicode="&#x3c;" horiz-adv-x="1366" d="M147 557l1072 -457v99l-955 397l955 395v96l-1072 -452v-78z" />
<glyph unicode="=" horiz-adv-x="1366" d="M145 322h1076v88h-1076v-88zM145 786h1076v88h-1076v-88z" />
<glyph unicode="&#x3e;" horiz-adv-x="1366" d="M147 100l1072 453v80l-1072 454v-96l955 -397l-955 -397v-97z" />
<glyph unicode="?" horiz-adv-x="874" d="M106 1188q0 -51 30 -71.5t59 -20.5q33 0 58.5 23.5t25.5 68.5q0 4 -2.5 24.5t-2.5 26.5q0 20 11.5 32.5t27 18.5t30.5 8t24 2q39 0 80.5 -18t76.5 -56t56.5 -94.5t21.5 -130.5q0 -59 -16.5 -120.5t-47 -111.5t-72.5 -82t-93 -32q-53 0 -95.5 29t-89.5 66q-2 -35 -3 -83.5 t-2 -101.5t-1 -110v-105q0 -16 3 -21t20 -5q20 0 23 7t3 25q0 20 2.5 61.5t5.5 87.5t5 87t4 63q29 -18 70.5 -37.5t107.5 -19.5t125 26.5t103 75t71 113t27 139.5q0 80 -32 149.5t-86 122t-125 83t-151 30.5q-31 0 -73.5 -6t-82.5 -22.5t-68 -46t-28 -74.5zM125 80 q0 -41 28.5 -69.5t69.5 -28.5t70 28.5t29 69.5t-29 69.5t-70 28.5t-69.5 -28.5t-28.5 -69.5z" />
<glyph unicode="@" horiz-adv-x="1878" d="M96 444q0 -195 67.5 -357.5t184.5 -280t276.5 -183t344.5 -65.5q133 0 266 37.5t250 114.5t209 192.5t141 269.5h-57q-68 -158 -161 -263.5t-199.5 -170t-221.5 -92t-221 -27.5q-170 0 -313.5 57.5t-248 162t-162.5 252t-58 327.5q0 176 59 347t169.5 305t269.5 217 t358 83q147 0 267 -47t205 -130t131 -195.5t46 -243.5q0 -137 -40 -256t-102.5 -207t-137.5 -138.5t-144 -50.5q-23 0 -38 9.5t-23.5 21.5t-11.5 25.5t-3 21.5q0 18 2 33.5t11.5 52.5t27.5 104.5t53 188.5l117 399l-158 -22l-30 -111h-4q-31 139 -170 140 q-86 0 -183.5 -65.5t-178.5 -168t-135 -226.5t-54 -241q0 -37 10 -78t32.5 -75.5t57.5 -57t82 -22.5q57 0 114.5 29.5t107.5 73.5t93 93t74 88l4 -4q-6 -29 -12 -64.5t-6 -76.5q0 -78 44 -108.5t109 -30.5q135 0 238.5 67.5t172.5 171t104.5 228.5t35.5 239q0 129 -43 253 t-132 220.5t-223 154.5t-317 58q-193 0 -364.5 -73.5t-300.5 -203.5t-205 -310.5t-76 -391.5zM653 295q0 43 16.5 105.5t45 131t67.5 138t84 124t94.5 89.5t96.5 35q59 0 92 -42t33 -106q0 -35 -9.5 -84t-23.5 -101.5t-34.5 -102.5t-41.5 -83q-18 -27 -49 -68.5t-71 -81.5 t-87 -68.5t-96 -28.5q-53 0 -85 45t-32 98z" />
<glyph unicode="A" horiz-adv-x="1409" d="M6 8q0 -14 11.5 -16t15.5 -2q12 0 45 1t69 5q37 2 70 3t47 1q10 0 37 -1t57 -3q31 -4 59.5 -5t39.5 -1q12 6 12 14q0 16 -13.5 19.5t-23.5 3.5q-59 4 -106 37.5t-47 89.5q0 20 5 47.5t16 67.5t31.5 96.5t51.5 138.5q41 0 105.5 1t132 2t129.5 1h98q10 -33 28.5 -82 t30.5 -88q6 -20 16.5 -50t19.5 -61.5t16.5 -60.5t7.5 -43q0 -29 -12.5 -47.5t-30 -28.5t-35 -14t-27.5 -4q-47 -4 -57 -7.5t-10 -13.5q0 -14 9 -16t13 -2q18 0 57 2t84 4q47 2 89.5 3t58.5 1q14 0 48 -1t75 -3t75.5 -4t49.5 -2q6 0 11 2t5 12q0 18 -33 21q-39 4 -69.5 15 t-59 48t-61.5 108.5t-78 196.5q-33 90 -78 217t-95 260.5t-100.5 258t-90.5 210.5h-48q-35 -76 -67.5 -151.5t-61 -147t-53 -134t-41.5 -111.5q-25 -72 -43 -121t-37.5 -102.5t-47 -126t-70.5 -191.5q-10 -29 -25.5 -65.5t-39.5 -70.5t-56.5 -59.5t-79.5 -31.5 q-10 0 -19.5 -4.5t-9.5 -14.5zM401 565q47 141 99 278.5t118 272.5q8 -23 24.5 -65.5t38 -97t45.5 -115t44.5 -114.5t35.5 -96t23 -63q-16 0 -55 1t-84 1q-43 0 -82 1t-53 1q-41 0 -81 -1t-73 -3z" />
<glyph unicode="B" horiz-adv-x="1259" d="M70 12q0 -14 13 -16t17 -2q23 0 82.5 1t126 2t127 2t84.5 1q10 0 37 -1t57 -3q33 -2 62 -3t39 -1q152 0 243 46t139 107.5t62.5 122t14.5 88.5q0 90 -40 150.5t-97.5 99.5t-121 61.5t-112.5 37.5v4q41 12 94 32.5t101.5 56.5t81 91t32.5 137q0 104 -51 164.5t-120 91.5 t-135.5 38t-96.5 7q-20 0 -75.5 -2t-118 -4t-119 -4t-79.5 -2q-10 0 -35.5 1t-54.5 1t-55.5 1t-36.5 1q-6 0 -17.5 -2t-11.5 -17q0 -12 10.5 -16t18.5 -6q47 -6 65.5 -17.5t28.5 -21.5q16 -18 25.5 -70.5t13.5 -114t5 -118.5t1 -88q0 -23 -1 -79t-2 -119.5t-2 -121t-1 -82.5 v-12q0 -25 -1 -67.5t-3 -89t-8 -90.5t-14 -68q-18 -49 -38 -60.5t-46 -15.5q-59 -10 -73.5 -15t-14.5 -16zM438 229v50q0 16 1 58t2 88t2 86t1 56t2.5 45.5t12.5 49.5q31 2 62.5 4t76.5 2q35 0 98.5 -5.5t125 -34t107.5 -93t46 -181.5q0 -72 -23.5 -136t-79.5 -114 q-51 -47 -97 -57t-111 -10q-12 0 -42 1t-63 4t-62.5 10t-41.5 20q-6 6 -9.5 33.5t-5.5 60.5t-2 63zM453 754v127q0 61 1 120.5t2 121.5t3 134q35 10 75.5 19.5t92.5 9.5q133 0 216 -69.5t83 -204.5q0 -72 -18.5 -124t-78.5 -95q-59 -43 -129.5 -63.5t-193.5 -20.5 q-39 0 -46 8t-7 37z" />
<glyph unicode="C" horiz-adv-x="1323" d="M98 645q0 -170 59.5 -296t154 -210t209 -125t222.5 -41q94 0 170 23.5t136.5 59.5t104.5 79t72.5 82t43 67.5t14.5 34.5q0 16 -8 20.5t-14 4.5q-14 0 -31 -31q-12 -25 -45 -69.5t-84 -91t-121 -80t-158 -33.5q-84 0 -173 41t-162.5 121t-121 199.5t-47.5 277.5 q0 123 31 234.5t87.5 196.5t137 135t183.5 50q78 0 146.5 -31.5t123.5 -83t98 -116t72 -131.5q10 -23 16.5 -34t18.5 -11q16 0 17 13t-1 32l-22 348q0 16 -3 25.5t-20 9.5q-6 0 -13 -3t-11 -9q-4 -10 -8.5 -17.5t-11.5 -15.5t-18.5 -18.5t-29.5 -26.5q-27 14 -64.5 34.5 t-83.5 38t-101.5 29.5t-117.5 12q-111 0 -226.5 -44t-208.5 -131t-152.5 -217t-59.5 -302z" />
<glyph unicode="D" horiz-adv-x="1556" d="M27 6q0 -12 10 -14t14 -2l58 4q18 2 61 3t93 2t95 1h70q18 0 63.5 -2t98.5 -6t99 -7t67 -3q86 0 154.5 10t120.5 25.5t92 36t69 40.5q133 94 204.5 238.5t71.5 306.5q0 59 -12 133t-45 149.5t-89 146.5t-143 125t-211 87q-117 31 -271 31h-19l-205 -2h-74t-58.5 1t-65 4 t-95.5 7q-6 2 -27.5 3t-27.5 1q-12 0 -16.5 -7t-4.5 -13q0 -16 17 -21q51 -8 69.5 -13t40.5 -24q16 -14 26.5 -52t16 -83t7.5 -87t2 -64q0 -23 -2 -84.5t-4.5 -141.5t-5.5 -169t-7 -166.5t-7 -135t-5 -74.5q-8 -51 -21.5 -80.5t-35 -46t-51 -22.5t-72.5 -12q-25 -4 -35 -7.5 t-10 -15.5zM436 342q0 70 2 166t6.5 197.5t9.5 196.5t11 163q0 10 1 33.5t3 49.5t3 47.5t1 27.5q2 14 5 22t20.5 12.5t53.5 6.5t101 2q106 0 201.5 -23.5t179.5 -95.5q109 -96 161 -227.5t52 -276.5q0 -72 -21.5 -176.5t-80 -202.5t-163.5 -167.5t-271 -69.5 q-102 0 -158.5 24.5t-82.5 67.5t-30 100t-4 123z" />
<glyph unicode="E" horiz-adv-x="1343" d="M57 16q0 -10 9.5 -13t19.5 -3h246q90 0 200.5 -2t227.5 -6q118 -4 230 -5h72q71 0 134 1q2 12 14.5 60t24.5 103.5t22.5 101.5t10.5 54q0 4 -3 13.5t-14 9.5q-10 0 -18 -14.5t-10 -20.5q-39 -90 -101.5 -142.5t-133 -78t-142.5 -32.5t-127 -7q-18 0 -52 1t-69 8 t-68.5 21.5t-52.5 40.5q-10 14 -17 32t-11.5 54.5t-6.5 102t-2 174.5v111t2 75q86 0 151.5 -6t112 -29.5t75 -67.5t42.5 -118q0 -8 4 -16t15 -8q12 0 15 12t3 18q0 8 -1 36t-3 38q-2 41 -2 80v76q0 18 1 43.5t1 60.5q0 6 2 25.5t3 39t3 35.5l2 17q0 10 -4 20.5t-14 10.5 q-8 0 -12.5 -7.5t-8.5 -15.5q-20 -59 -41.5 -97t-53.5 -60.5t-76 -32t-109 -9.5q-23 0 -58.5 2.5t-46.5 2.5q-1 21 -1 54v36q1 59 2 124.5t3.5 127t2.5 96.5q0 4 1 17.5t2 28.5t3 28.5t6 19.5q53 10 114.5 13t116.5 3q61 0 120.5 -2t116 -23.5t113 -71.5t111.5 -146 q20 -35 31 -35q4 0 12 8q-10 68 -18.5 117t-15.5 85t-12 62.5t-11 48.5h-854q-10 0 -35 2t-53 5q-29 4 -51.5 5t-26.5 1t-19.5 -2t-15.5 -17q0 -10 9 -15t18 -7q53 -14 90 -30.5t51 -55.5q4 -12 8 -67.5t7 -122t4 -128t1 -86.5l-4 -190q-4 -186 -4 -307q0 -119 -22 -172 q-8 -23 -25.5 -36.5t-39 -21.5t-45 -11t-44.5 -3q-8 0 -19.5 -4t-11.5 -17z" />
<glyph unicode="F" horiz-adv-x="1280" d="M59 1270q0 -10 12.5 -14.5t20.5 -4.5q41 -2 69.5 -7t49 -22.5t34 -55.5t20.5 -104.5t9 -170t2 -252.5v-74q0 -45 -1 -100t-3 -113.5t-5 -111t-8 -92t-13 -58.5q-16 -39 -41 -50t-72 -11q-12 0 -26.5 -2t-14.5 -19q0 -14 11.5 -16t19.5 -2q12 0 47 2t74 4q41 2 76.5 3 t50.5 1h98q23 -2 52.5 -4t70.5 -6h24q10 0 20.5 1t10.5 17q0 12 -12 15.5t-33 5.5q-18 0 -39.5 3t-42 12t-37 28.5t-24.5 54.5q-4 16 -6 52t-2 100q0 66 1 159.5t1 227.5q57 2 116 2t109.5 -15.5t85.5 -52.5t45 -106q6 -45 9 -53.5t16 -8.5q12 0 18 10.5t6 20.5v78 q0 55 1 94t1 70q0 33 1 60.5t1 59.5q0 6 1 19.5t2 28t2 26.5t1 14q0 16 -9 22.5t-15 6.5q-14 0 -17.5 -10t-3.5 -17q-6 -78 -38.5 -118.5t-74.5 -60t-83 -22.5t-66 -3q-23 0 -58.5 1t-49.5 3q0 33 1 85t1 107q0 57 1 110.5t1 90.5q0 47 2 79t12 44q8 10 44 16t79 10.5 t81 5.5t50 1q51 0 105.5 -7.5t106.5 -26t102.5 -52t93.5 -84.5q4 -6 13 -21.5t21.5 -32t23.5 -30t17 -13.5q18 0 19 23l-41 248q-2 10 -5 20t-14 15q-4 2 -23.5 3t-44 2t-46.5 1h-33q-137 0 -272.5 -1t-252 -2t-208.5 -4.5t-142 -7.5q-10 0 -24.5 -1t-28.5 -4t-23.5 -7 t-9.5 -12z" />
<glyph unicode="G" horiz-adv-x="1579" d="M90 643q0 -156 60.5 -278.5t160 -208.5t225.5 -131t257 -45q106 0 201.5 27.5t189.5 68.5q14 6 38.5 17t49 25.5t44 27t23.5 22.5q2 4 3 42t3.5 82t3.5 84t1 48q0 31 2 57.5t17 49t47 38t91 21.5q10 0 17.5 3t7.5 19q0 20 -23 21q-29 0 -65.5 -2t-65.5 -2q-98 -2 -209 -2 h-215q-12 0 -22 -5.5t-10 -17.5q0 -14 12 -16t47 -2q70 0 106.5 -24.5t54 -63.5t20.5 -87.5t3 -93.5q0 -43 -2 -67.5t-5 -37.5t-8 -21.5t-11 -16.5q-45 -55 -89 -84t-83 -43t-70 -16t-49 -2q-119 0 -217.5 51t-168 138t-108.5 200.5t-39 236.5q0 119 35 234t101.5 205 t161 145t212.5 55q82 0 159 -27.5t141.5 -76.5t114.5 -115.5t81 -142.5q12 -29 17 -36t16 -7q16 0 18 20q0 2 -3 37t-8 79t-9 86t-6 58q-6 68 -10.5 83.5t-18.5 15.5q-10 0 -15.5 -6.5t-21.5 -28.5q-4 -4 -15.5 -10t-23.5 -6q-16 0 -37.5 9t-38.5 17q-63 33 -151 64.5 t-207 31.5q-125 0 -253 -46t-230.5 -134t-168 -218t-65.5 -298z" />
<glyph unicode="H" horiz-adv-x="1556" d="M57 6q0 -10 10.5 -13t14.5 -3t21.5 2t23.5 2q16 2 41 3t50.5 2t49.5 1h43h49t57.5 -1t56.5 -2t48 -1q6 -2 24.5 -3t22.5 -1q8 0 15.5 3t7.5 13q0 14 -17 19q-6 2 -26.5 7t-26.5 9q-35 14 -54 28.5t-28.5 40t-10.5 69.5t-1 118q0 35 1 78t2 87t2 85t3 72q39 6 103.5 8 t136.5 4t139 2h113q66 0 102.5 -2t71.5 -4q-2 -141 -2 -228q0 -84 -2 -133t-4 -76.5t-7 -56.5q-6 -37 -19 -59.5t-32.5 -33.5t-45 -14t-54.5 -5q-8 0 -16.5 -3.5t-8.5 -13.5q0 -12 16.5 -14t18.5 -2q10 0 39 2t62 2t61.5 3t38.5 3q16 0 60 -1t93 -3t93.5 -4t62.5 -2 q4 0 15.5 2t11.5 14q0 10 -11.5 14t-21.5 5q-66 8 -101.5 29.5t-52 53t-19.5 69.5t-3 77q0 37 1 109.5t2 162.5t4 190.5t6 189.5t7 159t11 102q10 51 47 79t129 28q12 0 15 6t3 10q0 10 -11 13.5t-18 3.5h-43t-77 -4q-43 -4 -82 -5.5t-56 -1.5q-20 0 -59 2t-84 5 q-43 2 -81 3t-56 1q-10 0 -19.5 -4.5t-9.5 -14.5q0 -16 14.5 -19t34.5 -3q51 0 83 -19.5t48.5 -58.5t22.5 -97.5t6 -136.5q0 -8 -1 -16t-1 -16l-8 -232q-16 0 -59.5 -2t-92.5 -4t-93 -3t-62 -1q-66 0 -118 1t-94 2t-78 3t-69 4q-2 124 -3 232v25q0 98 7 212q2 25 5.5 43.5 t15.5 31.5t38.5 22.5t75.5 13.5q27 2 27 18q0 14 -10 16.5t-19 2.5h-51q-27 0 -55 -4q-61 -6 -119 -7q-27 0 -59.5 2t-63.5 5q-31 2 -53 3t-29 1q-18 0 -34.5 -3.5t-14.5 -17.5q2 -8 5 -11t18 -5q29 -4 57.5 -13.5t44.5 -33.5q14 -20 22.5 -71.5t11.5 -110t4 -116t1 -89.5 q0 -53 -2 -145.5t-5 -192t-7 -188.5t-11 -134q-4 -29 -9 -53.5t-19.5 -43t-41 -32.5t-73.5 -20q-10 -2 -21.5 -6.5t-11.5 -14.5z" />
<glyph unicode="I" horiz-adv-x="768" d="M119 1300q0 -18 26 -22q59 -10 83 -31.5t34 -56.5q6 -23 10 -75t7.5 -119.5t4.5 -144.5t2 -147.5t1 -130.5v-90v-82q0 -51 -2 -107t-4 -105.5t-7 -71.5q-10 -55 -47 -66.5t-65 -11.5q-6 0 -17.5 -3t-11.5 -20q0 -18 23 -18q4 -1 19 -1h17q30 1 54 3l381 -2q10 0 17 4 t7 14t-10 14.5t-16 4.5q-23 2 -46.5 7t-44 17.5t-36 34t-21.5 60.5q-4 25 -7 95t-6 155t-4 167t-1 125v111t2 132.5t5 127.5t9 100q10 61 50 83t98 30q4 2 16 5t12 13q0 16 -17.5 19t-33.5 2q-16 0 -57 -1t-88 -1t-89 -1t-61 -1q-8 0 -31.5 1t-50.5 1t-50 1t-34 1 q-4 0 -12 -2t-8 -17z" />
<glyph unicode="J" horiz-adv-x="788" d="M2 141q0 -47 22.5 -78.5t56.5 -50t69.5 -27t64.5 -8.5q25 0 57.5 6.5t66.5 19.5t67.5 35.5t64.5 55.5q41 43 68.5 109.5t27.5 187.5v365v96q0 68 3 140.5t10.5 134t19.5 83.5q23 39 55.5 48.5t71.5 9.5q4 0 15.5 2t11.5 18q0 12 -12.5 15.5t-18.5 3.5q-10 0 -38 -1 t-60 -3q-33 -4 -60.5 -5.5t-40.5 -1.5q-57 0 -99 1t-77 1q-33 2 -56.5 4.5t-45.5 4.5q-23 0 -23 -23q0 -14 9.5 -17t19.5 -5q76 -8 99.5 -32t31.5 -52q4 -14 6 -52.5t3 -87.5t2 -105t1 -108v-94v-63v-176v-115t-1 -80t-3 -64q-2 -16 -7 -51t-21.5 -70.5t-50 -63.5t-93.5 -28 q-31 0 -51.5 16.5t-20.5 41.5q0 18 9 31q12 23 15 32t3 23q0 27 -20.5 51.5t-61.5 24.5q-37 0 -63.5 -26t-26.5 -73z" />
<glyph unicode="K" horiz-adv-x="1386" d="M78 1290q0 -10 9 -13l15 -5q51 -6 80 -15.5t45 -48.5q8 -20 14.5 -72.5t9.5 -118t6 -138t4 -134t1 -104.5v-51q0 -47 -3 -111.5t-7 -126t-8 -109.5t-4 -63q-2 -31 -6.5 -56.5t-16.5 -46t-35.5 -33.5t-64.5 -19q-18 -4 -23.5 -9.5t-5.5 -11.5q0 -12 16.5 -13t26.5 -1 q4 0 24.5 2t50.5 3t66.5 3t71.5 2t72 -1t71 -3q35 -2 61.5 -3t39.5 -1q8 0 16 4t8 14q0 14 -12 17.5t-22 3.5q-57 6 -89 24.5t-46.5 50t-16.5 79.5t-2 114v100t2 91t4 72t6 40q2 6 24.5 25.5t55.5 39t74 36t82 16.5q70 0 110 -45q31 -33 52.5 -85t36 -102.5t21.5 -90.5 t9 -50q14 -96 24.5 -151.5t21.5 -89t23.5 -56t35.5 -51.5q43 2 78.5 3t58.5 1q27 0 55.5 -2t53 -4t43 -4t24.5 -2q16 0 23.5 2t7.5 14q0 10 -10.5 13.5t-28.5 7.5q-66 18 -108 61t-67.5 94t-40 101.5t-20.5 85.5q-14 70 -34.5 144.5t-63.5 134.5t-119 98q-72 36 -188 36h-13 q49 61 97.5 113.5t89.5 94.5t71.5 71t47.5 43q59 53 101 84t76 47t66.5 24.5t73.5 16.5q29 6 29 22q0 12 -11 15q-4 2 -35.5 3t-70.5 2t-76 1h-43q-12 0 -46 -1t-73 -1q-37 0 -70.5 -1t-47.5 -1q-12 0 -21.5 -3t-9.5 -14q0 -14 12 -17t27 -7q31 -4 60.5 -21.5t29.5 -44.5 q0 -18 -15.5 -43.5t-35 -51.5t-38 -47.5t-26.5 -29.5q-100 -111 -155.5 -171t-91 -95t-63.5 -55.5t-71 -48.5q0 18 -1 57t-2 88t-2 104.5t-2 105.5t-2 90t-1 60q0 6 1 21.5t6 33t15.5 31t30.5 15.5q70 8 87.5 12t17.5 16q0 18 -27 19q-23 0 -84 -1t-131 -3q-72 -2 -133 -2 h-88q-10 0 -27.5 -3t-17.5 -20z" />
<glyph unicode="L" horiz-adv-x="1259" d="M39 8q0 -12 16.5 -15t61.5 -3q4 0 31.5 2t62.5 4t64.5 3t37.5 1h142h125t100 -1t81 -2t68 -1q66 -4 128.5 -5t154.5 -1h59q6 25 17.5 87t22 129.5t18.5 122t8 64.5q0 25 -18 25q-6 0 -12.5 -4t-12.5 -23q-18 -43 -45 -82t-41 -55q-61 -78 -116.5 -121t-111 -63.5 t-118 -23.5t-139.5 -3q-18 0 -46 2t-54.5 15.5t-46 41t-23.5 76.5q-2 27 -3 79t-2.5 109.5t-1.5 110.5v88v70t1.5 106.5t2.5 125t3 123t4 102.5t6 61q8 45 36.5 69.5t61.5 36t59.5 13.5t30.5 2q6 0 17.5 2t11.5 16t-11.5 16.5t-15.5 2.5l-166 -2h-38h-62t-71.5 1t-61.5 1 q-10 0 -34.5 1t-52.5 3t-52.5 3t-34.5 1q-8 0 -18.5 -3t-10.5 -16q0 -12 7.5 -16t13.5 -4q76 -6 116.5 -38t60 -83t22.5 -119.5t3 -150.5q0 -158 -1 -269.5t-2 -187.5t-3 -121t-4 -72.5t-4 -42t-4 -26.5q-8 -47 -28.5 -74.5t-47 -43t-56.5 -19.5t-54 -6q-6 0 -18.5 -4.5 t-12.5 -14.5z" />
<glyph unicode="M" horiz-adv-x="1898" d="M37 6q0 -8 12 -16q55 4 130 7t128 3q12 0 41 -1t60 -3q33 -2 62.5 -3t43.5 -3q10 0 17.5 3t7.5 11q0 16 -16.5 19.5t-35.5 3.5q-61 0 -96 24.5t-50 62.5t-18.5 83t-3.5 88q0 33 1.5 94t2.5 139t2 163t3 164t3 143.5t1 101.5q2 35 10 34q8 0 8 -4q6 -4 29.5 -47 t59.5 -111.5t80 -155.5t90 -179t90 -183.5t81 -168t62.5 -133t34.5 -79.5q18 -47 26 -47q10 0 15.5 9.5t21.5 44.5q33 80 55.5 138t52 125.5t75.5 160t124 243.5q35 68 57.5 111t42 81t41 81t56.5 110q4 4 10 10.5t10 6.5q6 0 7.5 -7.5t1.5 -11.5l-3 -74q-4 -121 -8 -195.5 t-8 -139t-7 -135t-3 -181.5q0 -123 -5 -193.5t-22.5 -107.5t-50.5 -49t-88 -20q-23 0 -23 -17q0 -16 33 -16q27 2 97.5 6t148.5 4q41 0 78 -1t69 -3q33 -4 58.5 -5t40.5 -1q6 0 18 2t12 12q0 8 -4 12t-20 9q-31 4 -57.5 9t-47 18.5t-34 37t-15.5 64.5q0 14 -1 57t-2 93 t-1 95v66q0 84 3 189.5t7 202.5t9.5 172t9.5 99q6 37 16 63t30.5 42t53.5 26.5t84 14.5q25 0 25 16q0 14 -15.5 16.5t-29.5 2.5h-74h-113h-112h-76q-43 -100 -100.5 -227.5t-121 -261.5t-130 -262t-129.5 -232q-16 27 -31.5 56.5t-38.5 70.5q-10 18 -32.5 67t-49.5 105.5 t-51.5 106.5t-34.5 71q-49 94 -79 152.5t-54.5 108.5t-50 104.5t-64.5 140.5q-23 0 -77 2t-116.5 4t-118.5 3t-79 1q-16 0 -22.5 -7t-6.5 -12q0 -12 13.5 -15t25.5 -5q61 -8 97 -34.5t54.5 -65.5t24 -86t5.5 -97q0 -10 -1.5 -43.5t-3.5 -80t-3 -98.5t-3 -98t-3 -81t-1 -45 l2 -176q0 -80 -5 -144.5t-25.5 -109.5t-59.5 -69.5t-104 -24.5q-10 0 -22.5 -3.5t-12.5 -17.5z" />
<glyph unicode="N" horiz-adv-x="1536" d="M29 1284q0 -10 14 -13t20 -3q33 -4 58.5 -19.5t42.5 -31.5q43 -43 67.5 -83t37 -74t15.5 -62.5t3 -53.5q2 -66 4 -145.5t4 -163.5t3 -165t1 -144q0 -68 -4 -122t-23.5 -93t-60.5 -60.5t-117 -21.5q-10 0 -21.5 -4.5t-11.5 -16.5q0 -10 13.5 -13t21.5 -3q10 0 36 2t59.5 3 t73.5 2t79 1q80 0 145.5 -4t88.5 -6q10 0 23 2t13 16t-12 19q-6 2 -20.5 5t-30.5 7t-30.5 7t-20.5 5q-41 14 -65.5 38t-37 50.5t-17.5 52t-7 46.5q-6 49 -11.5 105t-9.5 138t-7 200t-3 288q0 16 1 27.5t11 11.5q4 0 12.5 -7.5t18.5 -23.5q8 -16 29.5 -42t46 -53.5t50.5 -55 t44 -48.5q14 -16 36.5 -41.5t48.5 -56.5t52.5 -63.5t50.5 -61.5q16 -18 51 -59t79.5 -92.5t93.5 -108.5t94 -109.5t80 -94.5t53 -62l17.5 -17.5t21.5 -11.5q14 0 17 13.5t3 17.5q8 195 9.5 388t1.5 388q0 135 3 221t22.5 136t61.5 74t119 32q10 0 18.5 4t8.5 14 q0 14 -12 16.5t-21 2.5l-178 -11q-12 -1 -30 -1t-42 1q-49 2 -99 4.5t-92 3.5t-48 1q-20 -4 -21 -21q0 -12 10.5 -14t28.5 -2q6 0 22.5 -2t40 -10.5t49 -22.5t48.5 -39q20 -23 32.5 -49.5t18.5 -67.5t7 -101.5t1 -152.5v-121q0 -63 -2 -129.5t-4 -131t-4 -117.5 q-4 6 -21.5 25.5t-31.5 33.5l-553 647q-59 68 -93 107t-56.5 65.5t-39 47t-40.5 53.5q-14 0 -48 1t-77 1h-86h-82q-14 0 -29.5 -2.5t-15.5 -18.5z" />
<glyph unicode="O" horiz-adv-x="1492" d="M88 664q0 -166 54.5 -294t142.5 -214t201.5 -130t232.5 -44q156 0 281.5 63.5t216 163.5t139.5 225t49 246q0 115 -43 230.5t-125 209.5t-200.5 152.5t-270.5 58.5q-166 0 -293 -68.5t-213 -170t-129 -217t-43 -211.5zM309 696q0 78 23.5 179.5t76 191.5t134.5 152.5 t198 62.5q113 0 196 -57.5t138 -146.5t82 -197.5t27 -210.5q0 -88 -22.5 -199t-75 -209t-135.5 -164.5t-206 -66.5q-92 0 -170.5 44t-123.5 103q-43 57 -71 130t-43 146.5t-21.5 138t-6.5 103.5z" />
<glyph unicode="P" horiz-adv-x="1259" d="M96 18q0 -14 11.5 -16t21.5 -2h369h51t49 2q6 0 14.5 3t8.5 13t-9.5 14.5t-15.5 4.5q-39 6 -54.5 10t-35.5 16q-18 12 -32.5 24.5t-23 46.5t-12.5 97.5t-4 178.5q0 12 2 42.5t4 66.5t3 69t1 45q35 -2 73 -4t87 -2q35 0 90.5 2t119 11t128 30.5t115.5 60.5t84 98.5 t33 147.5q0 117 -53.5 185.5t-127 103t-152.5 44t-132 11.5h-572q-16 0 -28.5 -1.5t-12.5 -16.5q0 -8 9.5 -13.5t56.5 -15.5q33 -6 53.5 -17.5t31.5 -38t15 -72.5t4 -120v-534v-21q0 -25 -1 -75t-3 -105t-6 -102.5t-10 -63.5q-16 -47 -43 -60.5t-70 -23.5q-10 -2 -23.5 -7 t-13.5 -16zM444 674q0 18 1 60t1 89q0 49 1.5 91t1.5 59q0 16 -1.5 57t-1.5 86t-1 85t-1 56q33 8 69 13.5t108 5.5q29 0 88 -4t118.5 -28.5t104.5 -79t45 -154.5q0 -70 -25.5 -139.5t-60.5 -108.5q-33 -35 -76 -53.5t-84 -27.5t-74.5 -11t-46.5 -2q-4 0 -27.5 1t-52 2 t-54.5 2t-32 1z" />
<glyph unicode="Q" horiz-adv-x="1492" d="M90 635q0 -154 54.5 -274.5t142.5 -204.5t196.5 -129t216.5 -45q18 0 39 1t41 3q23 4 40.5 5t31.5 3l4 -4q-31 -12 -55.5 -21.5t-62.5 -24t-97 -38t-160 -60.5q-86 -33 -150.5 -72.5t-106.5 -81.5t-63.5 -81t-21.5 -70q0 -23 18.5 -47t53.5 -24q51 0 64.5 31.5 t17.5 105.5q0 12 4 32.5t16.5 40t35 34t61.5 14.5q20 0 36.5 -3.5t38 -15.5t54 -34.5t88.5 -59.5q72 -49 126 -81t97 -49t78 -23.5t71 -6.5q94 0 164 38t117 84t70.5 85t23.5 43q0 10 -7 15.5t-13 5.5q-10 0 -17.5 -8.5t-11.5 -12.5q-41 -53 -86 -91t-121 -38q-29 0 -53.5 5 t-58 20.5t-84 44t-129.5 78.5q-49 29 -86 45t-70 23t-66 7t-71 -2l-4 4q25 10 45 18.5t47.5 18.5t69.5 26.5t112 43.5q84 33 178 89t178 122q72 57 124.5 127.5t86 146.5t50 149.5t16.5 137.5q0 109 -41 224.5t-122 209.5t-200.5 154.5t-275.5 60.5q-152 0 -275.5 -59.5 t-212 -156.5t-137.5 -222t-49 -256zM311 684q0 84 23.5 187.5t75 194.5t133.5 152.5t198 61.5q115 0 198 -59.5t137 -149.5t80 -199.5t26 -209.5q0 -94 -23.5 -204t-75 -205t-135.5 -158.5t-203 -63.5q-129 0 -212.5 67.5t-133 168t-69 213t-19.5 204.5z" />
<glyph unicode="R" horiz-adv-x="1386" d="M68 18q0 -14 13 -16t30 -2h493q18 0 31.5 2t13.5 16q0 10 -9 13.5t-15 3.5q-23 2 -47.5 5t-46 11t-40 23.5t-26.5 44.5q-8 23 -12 51.5t-6.5 72.5t-2.5 107v162q0 49 2.5 82t4.5 53q29 4 53 7t63 3q82 0 139.5 -16t96.5 -56t62.5 -106.5t39.5 -165.5q12 -74 20.5 -118.5 t15.5 -73.5t15.5 -45.5t20.5 -34.5q8 -10 19.5 -18.5t47 -13.5t106.5 -8t198 -3q30 0 30 17q0 11 -7 14.5t-48 7.5q-59 6 -99 37.5t-64.5 75t-38 94.5t-21.5 98q-10 57 -23.5 102t-41 84t-77 73t-129.5 69q59 18 121 40.5t112 59.5t82 93.5t32 142.5q0 76 -31 132t-88 99 q-33 25 -66 42t-72.5 27.5t-90 15.5t-115.5 5q-8 0 -50 -1t-102 -3q-59 -2 -99 -3t-84 -2t-103.5 -2t-157.5 -1q-41 0 -41 -17q0 -6 3 -10t17 -6q70 -10 102.5 -26.5t45.5 -49.5q8 -25 14 -76t9 -108t4 -112.5t1 -88.5v-514q0 -92 -11 -146.5t-32.5 -82t-53.5 -35.5t-75 -8 q-4 0 -18 -2t-14 -15zM442 823q0 25 2 87.5t4.5 132t4.5 132t2 87.5q41 10 88 16t112 6q113 0 175.5 -36t93 -83t38 -92t7.5 -63q0 -25 -6.5 -61t-27 -73.5t-59 -74.5t-102.5 -64q-66 -29 -147.5 -34t-175.5 -7q-4 59 -6.5 88t-2.5 39z" />
<glyph unicode="S" horiz-adv-x="1067" d="M82 416q2 -27 5 -76t7 -105.5t8 -110.5t9 -89q4 -31 8 -39t14 -8q12 0 16.5 7t6.5 11q10 29 17 43t30 37q61 -39 117.5 -60.5t101.5 -31.5t76.5 -12t48.5 -2q96 0 179 34.5t143.5 91t95 130t34.5 151.5q0 98 -45 167t-109.5 113t-135 70.5t-121.5 42.5 q-78 25 -140.5 47.5t-106.5 52t-68.5 70.5t-24.5 103q0 43 15.5 84t46 72.5t74.5 52t103 20.5q72 0 133.5 -27.5t110.5 -71.5t85 -98.5t58 -107.5q6 -16 11.5 -18.5t9.5 -2.5q6 0 14.5 5.5t8.5 13.5q0 2 -3.5 25.5t-8.5 58.5t-10 76t-10 77.5t-8.5 63.5t-5.5 33q-6 6 -10 7 t-8 1q-14 0 -23 -23q-4 -16 -10 -26.5t-26 -28.5q-49 27 -120 55.5t-169 28.5q-88 0 -164 -27.5t-132 -74.5t-88 -108.5t-32 -129.5q0 -53 20.5 -107.5t57.5 -95.5q20 -23 44 -43t59.5 -39.5t86 -40t121.5 -43.5q59 -18 124 -42.5t119 -61.5t90 -90t36 -129q0 -41 -15.5 -88 t-49 -87t-90 -68t-136.5 -28q-133 0 -235.5 90.5t-194.5 297.5q-10 23 -25 22q-4 0 -11 -2t-9 -12z" />
<glyph unicode="T" horiz-adv-x="1472" d="M45 991q4 -4 8 -6t13 -2q4 0 9 1t9 5q4 6 12 30.5t13 31.5q41 76 95 116.5t109.5 61t109.5 24.5t95 4q23 0 53.5 -1t55.5 -3q6 -78 10 -176t7 -191t5 -170t2 -114q0 -141 -1 -221t-4 -123t-6 -61.5t-7 -34.5q-16 -66 -70.5 -94.5t-107.5 -28.5q-16 0 -29.5 -2t-13.5 -19 q0 -10 7 -14t15 -4h615q10 0 25.5 2t15.5 18q0 12 -12.5 14.5t-30.5 2.5q-66 0 -104 14.5t-57.5 34.5t-26.5 43t-9 41q-10 55 -15.5 137t-8.5 180.5t-3 204.5v217q0 70 1 122t3 92t4.5 71t4.5 59q59 0 96 -1t61.5 -2t40 -2t33.5 -3q66 -8 112 -28.5t75.5 -43t46 -43 t20.5 -26.5q25 -41 39 -62.5t22.5 -31t13.5 -11.5t11 -2q23 0 23 25q0 6 -4.5 48t-9.5 92t-10 94t-7 55h-103h-24t-22.5 -1t-30 -3t-45.5 -4q-35 -2 -102.5 -3.5t-144.5 -2.5t-149 -1h-112q-63 0 -105.5 1t-84.5 2t-93 4.5t-135 7.5h-41h-47h-43h-33q-2 -10 -7 -49 t-12.5 -88.5t-12.5 -99.5t-7 -83z" />
<glyph unicode="U" horiz-adv-x="1556" d="M63 1288q0 -10 7.5 -13t15.5 -3q47 -6 72.5 -13.5t48.5 -29.5q12 -12 22.5 -29.5t17.5 -67t12 -142.5t5 -255q0 -16 -1 -55t-1 -84q0 -43 -1 -82t-1 -55q0 -123 14.5 -190.5t53.5 -121.5q41 -57 103.5 -89.5t127 -50t121.5 -21.5t86 -4q104 0 186 19t143.5 51t102.5 74 t62 89q20 49 32.5 125t18.5 160t8 164.5t2 140.5q0 150 6 239t24.5 137t51.5 65.5t86 25.5q16 4 19 8t3 8q0 14 -9 17.5t-17 3.5h-402q-20 0 -34.5 -2t-14.5 -19q0 -14 13.5 -17t25.5 -3q63 0 101 -31t56.5 -81t24 -116.5t5.5 -140.5q0 -174 -5.5 -322.5t-21.5 -240.5 q-14 -82 -51 -135.5t-89.5 -84t-116 -43t-130.5 -12.5q-41 0 -93.5 7.5t-103.5 27t-95 57t-69 99.5q-14 35 -22 79t-13.5 105.5t-6.5 143.5t-1 190q0 117 3.5 207t16.5 151.5t41.5 95t80.5 42.5q35 6 50 10t15 16t-11 14.5t-32 2.5h-502q-16 0 -28.5 -2t-12.5 -19z" />
<glyph unicode="V" horiz-adv-x="1386" d="M23 1278q0 -10 8 -12t43 -9q33 -6 56.5 -16t40.5 -27.5t31.5 -43t30.5 -60.5q23 -47 60 -138t81 -204t91 -234.5t88 -231t71.5 -196t43.5 -126.5h59q8 23 13 38t18 48q47 119 76.5 194.5t54 141t51.5 138t68 189.5q47 133 83.5 228.5t71.5 159t73 96t87 40.5q29 4 40 8.5 t11 18.5q0 12 -10 14t-53 2h-334q-45 0 -55.5 -2t-10.5 -16q0 -16 27 -18q53 -4 91 -30t38 -87q0 -41 -16.5 -98.5t-32.5 -102.5q-10 -25 -29.5 -79t-44 -123.5t-52.5 -146.5t-53.5 -147.5t-46 -127t-30.5 -85.5q-2 6 -25.5 65.5t-57.5 150t-73 197t-72.5 205.5t-55 179 t-21.5 115q0 66 40 89t93 23q6 0 18.5 3.5t12.5 19.5q0 12 -10.5 14t-39.5 2h-489q-37 0 -48 -2t-11 -16z" />
<glyph unicode="W" horiz-adv-x="2111" d="M14 1278q0 -12 11.5 -15t19.5 -6q49 -4 88 -41.5t64 -72.5q25 -37 68.5 -126t96 -206t108.5 -247t106.5 -247.5t88 -209t56.5 -127.5h31q6 20 13 39.5t19.5 54.5t32 92t51.5 156q6 20 22.5 66t36 104.5t42 124t43 124t37 105.5t24.5 72q43 -106 68.5 -173t49 -124.5 t50.5 -123t70 -171.5q25 -59 43 -106.5t34.5 -88.5t30 -78t27.5 -73h27q14 35 42.5 110.5t63.5 171.5t73 204.5t72.5 207t62.5 177.5t44 118q20 53 41.5 103t50.5 91t67 66.5t91 30.5q8 2 15 4t7 12q0 8 -4 12t-18.5 6t-42.5 2h-76h-244q-33 0 -46 -2t-13 -16t9 -17.5 t20 -3.5q39 0 63.5 -12t38.5 -29.5t19.5 -39t5.5 -41.5q0 -10 -1.5 -23.5t-5.5 -33t-12 -47t-22 -66.5q-96 -268 -155.5 -435.5t-94.5 -259.5q-23 51 -40.5 90t-39 91.5t-51 129t-78.5 203.5q-16 45 -35.5 96.5t-36 100.5t-27 92t-10.5 74q0 39 23.5 66.5t58.5 33.5 q53 10 66.5 13.5t13.5 13.5q0 16 -13.5 19t-47.5 3h-428q-49 0 -60.5 -2t-11.5 -18q0 -8 2 -10q2 -4 14.5 -7.5t25.5 -5.5t25.5 -3t16.5 -3q25 -6 40 -17t30.5 -36t34 -69t48.5 -119q-10 -35 -29.5 -94.5t-43 -130t-49 -147.5t-50 -148.5t-46 -131t-35.5 -96.5 q-29 61 -49.5 109.5t-49 116t-71.5 171t-115 275.5q-8 20 -21.5 52t-26 65.5t-21.5 63.5t-9 46q0 33 13.5 51.5t32 28.5t34.5 14t22 4q25 4 40.5 7.5t15.5 15.5q0 14 -14.5 16t-45.5 2h-436q-53 0 -64.5 -2t-11.5 -16z" />
<glyph unicode="X" horiz-adv-x="1515" d="M43 1278q0 -12 9 -15t50 -8q47 -4 88 -27.5t79 -60.5t78 -88t85 -110q14 -18 48 -66.5t72 -104t72.5 -105.5t49.5 -70q-23 -37 -72 -109t-103.5 -147.5t-102.5 -141t-70 -92.5q-49 -57 -107.5 -79.5t-118.5 -22.5q-10 0 -20 -4t-10 -17q0 -6 6 -13t22 -7q6 0 25.5 2 t26.5 2q29 2 62.5 3t64 2t53.5 1h28h48q33 0 71 -2q39 -2 74 -5t49 -3q10 0 22.5 3t12.5 15q0 14 -14.5 17.5t-22.5 3.5q-74 6 -123 33.5t-49 62.5q0 25 35 86t82 132t95 136.5t77 95.5q10 -14 36.5 -48.5t59.5 -79t67.5 -95.5t64.5 -97t48.5 -85t18.5 -59q0 -49 -43 -66.5 t-86 -17.5q-4 0 -14.5 -2t-10.5 -19q0 -12 12.5 -14t34.5 -2q16 0 57 1t89 5q47 2 90 3t59 1q14 0 51 -1t78 -3q43 -4 80 -5t53 -1q12 0 25.5 2t13.5 14q0 16 -13 18.5t-24 4.5q-63 2 -120.5 42t-133.5 130q-23 27 -57.5 72.5t-74.5 101t-81 113t-74.5 107.5t-58 86 t-31.5 46q27 45 69 104.5t87 118t83 106.5t56 66q47 53 104.5 93t129.5 45q37 2 46 4t9 16q0 12 -10 14t-51 2h-418q-41 0 -51.5 -2t-10.5 -14q0 -14 12.5 -17t28.5 -6q47 -4 85 -27.5t38 -64.5q0 -25 -11 -50t-40 -71q-10 -14 -34.5 -50t-54.5 -76.5t-59.5 -80.5t-47.5 -65 q-31 37 -78 99.5t-91 128t-76 120t-32 72.5q0 27 25.5 44t56.5 19q51 4 63.5 7.5t12.5 15.5q0 14 -11.5 16t-42.5 2h-526q-25 0 -37 -2t-12 -16z" />
<glyph unicode="Y" horiz-adv-x="1449" d="M33 1278q0 -10 9 -13t13 -3q37 -6 55.5 -11.5t43.5 -21.5q31 -20 72.5 -69.5t87.5 -115t93.5 -138t88.5 -140.5t72.5 -122t47.5 -83q6 -12 11.5 -50t8.5 -81t5 -81t2 -48q0 -152 -40 -211t-122 -63q-27 0 -26 -17q0 -14 13 -17t24 -3q10 0 38.5 1t59.5 3q33 2 61.5 4 t38.5 2h58q41 0 88 -2t90 -5t59 -3q4 0 19.5 2t15.5 18q0 12 -12.5 16.5t-61.5 8.5q-31 4 -64.5 22.5t-45.5 53.5q-6 16 -9.5 61t-4.5 96t-2 99.5t-1 70.5q0 8 1 39t2 66t4 67.5t8 46.5q4 12 9 22.5t21.5 35t51 73t100.5 134.5q76 104 127 169.5t92 102.5t79 51.5t89 14.5 q8 0 16 2t8 14q0 16 -15 18t-38 2h-377q-29 0 -43 -2t-14 -16t10.5 -16t24.5 -2q6 0 26.5 -3.5t42 -13.5t39 -27.5t17.5 -46.5t-19.5 -61.5t-50.5 -79.5q-61 -90 -128.5 -185t-127.5 -159q-66 90 -132.5 184.5t-129.5 184.5q-8 10 -18.5 26.5t-20.5 35t-17 36.5t-7 33 q0 2 2 12t11 22.5t29.5 23.5t59.5 15q29 4 39 7.5t10 13.5q0 14 -11 16t-24 2h-465q-39 0 -53 -2t-14 -16z" />
<glyph unicode="Z" horiz-adv-x="1300" d="M100 14q0 -14 14 -15h11q12 0 27 1h886h49q18 0 46 4l8 23q18 55 28.5 90t20.5 64.5t20.5 62t28.5 84.5v4q0 4 -3 11t-13 7q-6 0 -15 -4l-110 -135q-51 -61 -119 -95t-138.5 -49.5t-138 -18.5t-116.5 -3q-68 0 -122 1t-126 3q39 70 98.5 163t116.5 180t101 151.5t51 74.5 q61 88 115 167t106.5 156t104.5 155t112 166q14 23 19 32t5 19q0 12 -10 12q-4 0 -17.5 -1t-17.5 -3q-100 -8 -191 -9t-171 -1h-88h-105q-53 0 -102 1t-82 3q-6 0 -29.5 2t-49 4t-47 3t-24.5 1q-4 0 -9 -8t-10 -20.5t-10 -24.5t-7 -19q-4 -12 -16.5 -52t-27 -84t-24.5 -80 t-10 -38q0 -18 18 -18q6 0 12.5 6t8.5 10q53 78 94 129.5t90 82t118.5 44t180.5 13.5q10 0 83 -1t194 -8l-13.5 -27t-10.5 -21.5t-12.5 -20.5t-17.5 -27q-25 -39 -57.5 -86t-67 -95t-67.5 -95t-58 -84q-18 -27 -63 -92.5t-102.5 -150.5t-119 -178t-112.5 -172t-84 -132 t-33 -62z" />
<glyph unicode="[" horiz-adv-x="1044" d="M227 414q0 -31 1 -98.5t1 -153.5q0 -84 2 -179.5t2 -181.5q0 -88 1.5 -156.5t1.5 -103.5q0 -14 8 -17t37 -3q31 0 76.5 6t86.5 12q43 6 95.5 10.5t103.5 7.5t97 5t75 2q61 0 102 -7.5t41 -50.5q0 -4 -6 -18t-6 -18q0 -10 7.5 -12.5t11.5 -2.5q23 0 32 32t9 54 q0 18 -10.5 47t-40 54.5t-81 44t-133.5 18.5q-53 0 -103 -7t-104.5 -21.5t-115 -36t-131.5 -48.5q-4 72 -5 153t-1 208v74t1 116.5t2 138t2 138t2 119t1 79.5l-2 584q35 -10 92 -25.5t123.5 -31t134.5 -26.5t125 -11q61 0 106 18.5t76 45t46.5 58.5t15.5 60q0 27 -11.5 49.5 t-27.5 22.5q-10 0 -14.5 -6t-4.5 -10t5 -17.5t5 -17.5q0 -14 -6 -26.5t-31.5 -21t-75.5 -12.5t-138 -4q-49 0 -145.5 3t-196.5 12q-4 0 -17.5 1t-28 2t-27.5 2t-20 1q-16 0 -19 -4t-5 -13q-4 -23 -7 -90t-6.5 -155t-4.5 -187.5t-2 -184.5t-1 -147v-73z" />
<glyph unicode="\" d="M117 1352l704 -1389h86l-704 1389h-86z" />
<glyph unicode="]" horiz-adv-x="1044" d="M39 -471q0 -27 11 -49.5t28 -22.5q10 0 14 6.5t4 10.5t-5 17t-5 17q0 14 6 26.5t32 21t76 12.5t138 4q49 0 145.5 -3t196.5 -11q4 0 17.5 -1t27.5 -2t27.5 -2.5t19.5 -1.5q16 0 19.5 4.5t5.5 12.5q4 23 7 90.5t6 155.5t4 187t2 184t1 147v74q0 31 -1 98t-1 151 q0 86 -2 181.5t-2 181.5q0 88 -1 156.5t-1 103.5q0 14 -8 17t-37 3q-31 0 -77 -7t-87 -11q-43 -6 -95 -10t-103.5 -7t-97.5 -5.5t-75 -2.5q-61 0 -102 7.5t-41 50.5q0 4 6 18.5t6 18.5q0 10 -7 12t-11 2q-23 0 -32 -32t-9 -54q0 -18 10 -47t40 -54.5t81 -44t133 -18.5 q51 0 102.5 7t105.5 21.5t114.5 36t132.5 48.5q4 -72 5 -153t1 -208q0 -25 -1 -75t-1 -115q0 -66 -2 -138.5t-2 -138.5t-1 -119t-1 -79l2 -584q-35 10 -92.5 25.5t-124 31t-134 26.5t-124.5 11q-61 0 -106.5 -18.5t-76 -45t-46 -59t-15.5 -59.5z" />
<glyph unicode="^" horiz-adv-x="960" d="M37 580h94l350 585l350 -585h93l-426 716h-29z" />
<glyph unicode="_" d="M-12 -154v-102h1048v102h-1048z" />
<glyph unicode="`" horiz-adv-x="681" d="M100 1249q0 -29 22.5 -56.5t76.5 -68.5l237 -180q4 -4 15.5 -11t17.5 -7q4 0 9 4t5 8q0 6 -5 13t-23 36l-156 217q-33 45 -61.5 77t-71.5 32q-35 0 -50.5 -22.5t-15.5 -41.5z" />
<glyph unicode="a" horiz-adv-x="897" d="M96 182q0 -37 11.5 -71.5t38 -62.5t67.5 -45t100 -17q61 0 105.5 15t76 37.5t52 46.5t33.5 42h4q0 -33 2 -57.5t11 -42t28.5 -26.5t54.5 -9q12 0 45 1t66.5 4t59.5 10t26 22q0 16 -23 16q-4 0 -21.5 -2t-23.5 -2q-18 0 -33.5 9t-28 39t-18.5 84t-6 144q0 14 1 52.5 t2 81.5t2 81.5t1 55.5q0 90 -7 131t-34 63q-80 74 -246 74q-90 0 -149.5 -19.5t-95 -47t-51 -59.5t-15.5 -58q0 -29 11.5 -46.5t24.5 -26.5t24.5 -12t13.5 -3q23 0 38 12t24 28.5t13.5 31t4.5 20.5q6 27 12 51.5t21.5 44t42 31.5t69.5 12q31 0 59.5 -8t51 -29.5t36 -57.5 t13.5 -91q0 -39 -12.5 -64.5t-44 -46t-89 -41t-149.5 -51.5q-100 -35 -149.5 -97.5t-49.5 -146.5zM248 201q0 41 17.5 73.5t42 57t49 41t40.5 24.5q49 25 79 41.5t48.5 28.5t31 23.5t26.5 27.5q6 -61 6 -180q0 -68 -13.5 -131.5t-72.5 -112.5q-29 -25 -60.5 -35t-60.5 -10 q-59 0 -96 45t-37 107z" />
<glyph unicode="b" d="M49 1335q0 -12 23 -20q31 -10 50 -20.5t30 -43.5q2 -10 3 -53t2 -96t1 -103v-67q0 -33 -1 -102.5t-3 -157.5t-3 -186.5t-3.5 -187.5t-3.5 -162t-1 -107q0 -4 2 -15.5t17 -11.5q10 0 15 9t16 48q4 8 13 17.5t19 9.5q6 0 20.5 -8t30 -19.5t29.5 -20.5t21 -11 q72 -31 127 -38t84 -7q106 0 182 46t125 114.5t71.5 149.5t22.5 148q0 86 -29.5 162t-82 133.5t-122 90t-149.5 32.5q-53 0 -93 -12t-71 -28.5t-53.5 -37t-38.5 -35.5q0 66 1 151t2 162t2 130t1 57l2 70q0 23 -14 26q-4 0 -36 2.5t-69.5 4.5t-69.5 3t-38 1t-18.5 -2 t-12.5 -15zM286 309q0 37 1.5 87t5.5 104.5t13 103.5t22 82q16 41 62 81t122 40q63 0 106.5 -25.5t73 -64.5t46 -87t23.5 -93t9 -81t2 -50q0 -63 -14.5 -131t-45 -123.5t-79.5 -91t-117 -35.5q-61 0 -104 21.5t-70 49.5q-20 23 -31.5 44.5t-17.5 46t-6.5 54t-0.5 68.5z" />
<glyph unicode="c" horiz-adv-x="854" d="M68 403q0 -78 27.5 -152.5t78.5 -133t124 -95t163 -36.5q86 0 148.5 27.5t103.5 68.5t60.5 88t19.5 86q0 4 -3.5 10t-15.5 6q-10 0 -14 -5t-8 -23q-6 -41 -28 -78t-53.5 -65.5t-71.5 -45t-79 -16.5q-59 0 -110.5 32.5t-89 89t-59 134.5t-21.5 170q0 10 1 42t8 71.5 t20.5 83t39 79t64.5 59t96 23.5q39 0 66.5 -13t46 -32.5t30 -44t19.5 -47.5q8 -29 26.5 -59.5t59.5 -30.5q25 0 44 21.5t19 56.5q0 55 -39 91t-90 57.5t-103 29.5t-77 8q-90 0 -165 -39t-128 -103.5t-81.5 -146.5t-28.5 -168z" />
<glyph unicode="d" horiz-adv-x="1044" d="M74 397q0 -104 38 -183t93 -130t118.5 -76.5t114.5 -25.5q57 0 101.5 20.5t76 50t54 64.5t39.5 65l4 -4q0 -31 -1 -51.5t-1 -40.5q0 -18 1 -38.5t1 -49.5q18 0 44.5 -1t53.5 -1h53h43q49 0 61.5 2t12.5 14q0 10 -11.5 14t-21.5 9q-51 8 -73.5 35.5t-22.5 85.5 q0 23 1 71.5t1 110.5q0 61 2 131t2 131q0 63 1 114.5t1 76.5v264v309h-221q-25 0 -36 -2t-11 -14q0 -10 9 -14.5t44 -8.5q27 -4 42 -17.5t22.5 -55.5t8.5 -117.5t1 -202.5q0 -74 -1 -126t-3 -95h-4q-47 88 -115 115.5t-127 27.5q-88 0 -160.5 -39t-125 -102.5t-81 -146.5 t-28.5 -169zM246 416q0 49 5 116.5t28.5 131t71.5 107.5t134 44q39 0 72 -12t57.5 -32.5t41 -44.5t26.5 -48q14 -33 24.5 -89.5t10.5 -115.5q0 -80 -7.5 -135t-18.5 -93t-24.5 -61.5t-25.5 -40.5q-29 -41 -75 -68.5t-93 -27.5q-10 0 -47 7t-77 42t-71.5 110t-31.5 210z" />
<glyph unicode="e" horiz-adv-x="874" d="M70 401q0 -96 31.5 -173.5t86 -133t127 -85t154.5 -29.5q106 0 197.5 44t134.5 121q0 4 -2 15.5t-15 11.5q-6 0 -12 -5t-27 -24q-41 -39 -98 -66.5t-123 -27.5q-63 0 -116.5 26.5t-92.5 73t-60.5 107.5t-21.5 129v35q1 20 5 47q27 0 97.5 1t151 3t152.5 3t102 1 q55 0 67.5 6t12.5 35q0 72 -30.5 135.5t-81 109.5t-114 72.5t-126.5 26.5q-66 0 -135.5 -31.5t-129 -90t-97 -144.5t-37.5 -193zM238 518q14 111 49 172.5t71.5 91t69.5 35.5t45 6q39 0 73 -17.5t60.5 -46t42 -66.5t15.5 -79q0 -37 -13.5 -57t-38 -30.5t-56.5 -12.5t-69 -2 q-55 0 -124.5 2t-124.5 4z" />
<glyph unicode="f" horiz-adv-x="575" d="M39 782q0 -10 9 -14t20 -6q6 0 23.5 -1t38 -2t38.5 -2t27 -1q1 -60 1 -114v-52q-1 -76 -3.5 -145.5t-5.5 -136t-5 -138.5q-2 -39 -5 -63.5t-11 -39t-23.5 -21.5t-40.5 -13q-39 -10 -46 -13.5t-7 -13.5q0 -16 23 -16q2 0 14 1t27 1q16 0 29.5 1t19.5 1q31 2 62.5 4t43.5 2 q53 0 98.5 -1t67.5 -5l35 -4q8 0 15.5 3t7.5 11q0 16 -29 19q-53 6 -82 24.5t-42 52t-15 87t-2 128.5v201v121t1 69.5t3 49.5q38 -2 70 -2q24 0 44 1q49 3 54 5q12 2 21 15t12 24.5t3 13.5q0 18 -23.5 22.5t-51.5 6.5q-31 2 -48.5 3t-29.5 1t-23.5 -1t-27.5 -1 q-2 23 -3 50.5t-1 61.5q0 66 10 142t35 133q14 33 30.5 51t34 27.5t36.5 11.5t42 2h8q38 0 66 -17q30 -20 55 -67q27 -53 43 -75.5t45 -22.5q4 0 14.5 2t21.5 9t20.5 20.5t9.5 37.5q0 57 -32 89t-74 46.5t-80 16.5t-50 2q-94 0 -156.5 -27.5t-103.5 -73.5t-62.5 -102.5 t-30.5 -115t-9 -111.5v-90q-90 -2 -123 -10.5t-33 -51.5z" />
<glyph unicode="g" horiz-adv-x="1110" d="M78 -346q0 -74 48 -115t111.5 -59.5t127 -21.5t92.5 -3q80 0 175 13.5t176 50.5t135 103.5t54 174.5q0 37 -14 85t-65 89q-27 20 -53.5 31.5t-69.5 18t-108.5 9.5t-170.5 7q-49 2 -94 5t-79 11t-53.5 24.5t-19.5 45.5q0 20 9.5 34.5t23.5 26.5q20 14 39.5 23.5t43.5 14.5 t53.5 7t70.5 7q88 6 151.5 36.5t102.5 75.5t57.5 100.5t18.5 110.5q0 59 -13.5 93t-29.5 65q29 31 53 50t53 19q18 0 26.5 -10t22.5 -41q4 -8 24.5 -26.5t49.5 -18.5q27 0 47.5 17.5t20.5 46.5q0 14 -7.5 34.5t-22.5 38t-40 29.5t-61 12q-59 0 -102.5 -31.5t-90.5 -84.5 q-16 14 -36.5 33.5t-50.5 35t-72 26.5t-97 11q-80 0 -147.5 -27.5t-115.5 -73.5t-76 -108.5t-28 -130.5q0 -31 8.5 -68.5t32 -73.5t65.5 -68t107 -52v-4q-25 -8 -61.5 -21.5t-70 -35t-58.5 -55.5t-25 -81q0 -41 19.5 -66.5t52.5 -42t74 -25.5t82 -15v-4q-55 -18 -108.5 -43 t-95.5 -55.5t-66.5 -69.5t-24.5 -84zM205 -319q0 57 37 100t92 70.5t118.5 41t118.5 13.5q25 0 64 -3t80 -10.5t76.5 -20.5t54.5 -34q14 -14 26.5 -37.5t12.5 -54.5q0 -39 -20.5 -83t-65.5 -81t-118 -61.5t-177 -24.5q-41 0 -92.5 7.5t-97.5 26.5t-77.5 55t-31.5 96z M305 549q0 37 8.5 84t30 89t58 70.5t96.5 28.5q78 0 131 -73.5t53 -208.5q0 -78 -18.5 -129.5t-44 -81t-56.5 -41t-55 -11.5q-53 0 -91 23t-62.5 61.5t-37 87t-12.5 101.5z" />
<glyph unicode="h" horiz-adv-x="1067" d="M49 1348q0 -12 29 -19q43 -10 66.5 -45t34.5 -91t14.5 -132t3.5 -166q0 -121 -1 -237.5t-3.5 -220t-7.5 -187.5t-13 -137q-6 -41 -17.5 -56.5t-50.5 -25.5q-25 -6 -31.5 -9.5t-6.5 -11.5q0 -12 10 -14t14 -2t20.5 1t34.5 1q20 2 37 2h25q12 0 40.5 -1t61.5 -1t61.5 -1 t39.5 -1q10 0 17 3t7 13t-8 13.5t-16 5.5t-24.5 7t-33.5 15q-12 8 -18 28.5t-9 48.5t-3 56v56q0 35 1 91t4 116.5t9 114.5t16 85q8 31 28.5 59.5t48.5 51t62.5 37t71.5 14.5q72 0 111 -41t57.5 -106.5t21.5 -148.5t3 -165v-82t-2 -75.5t-4 -61.5t-5 -39q-2 -6 -5 -14 t-11 -15.5t-24.5 -14.5t-42.5 -11q-23 -4 -23 -19q0 -12 11.5 -14t31.5 -2h268q25 0 35 2t10 16q0 12 -26 13q-16 0 -41 12t-35 39q-2 6 -3 12t-2 22.5t-1 47.5v90q0 14 1 50t1 75q0 41 1 78t1 51q0 55 -6 116.5t-33 114t-82 86t-152 33.5q-66 0 -140.5 -29.5t-145.5 -117.5 q-2 23 -2 71v115q0 66 1 137.5t1 134.5v117v80q-43 -2 -69.5 -4t-52.5 -3t-58 -1h-84q-18 0 -19 -10z" />
<glyph unicode="i" horiz-adv-x="532" d="M53 16q0 -14 8.5 -16t16.5 -2q10 0 37.5 1t59.5 3t59.5 3t39.5 1q10 0 37 -2t57.5 -4t57.5 -4t39 -2q22 0 22 15t-15 19t-40 5q-66 4 -80 33.5t-14 74.5q0 121 -2 247q-1 63 -1 124.5t1 122.5l2 225q-25 -2 -56.5 -4t-65.5 -4t-67.5 -5t-62.5 -5q-10 0 -20.5 -4 t-10.5 -15q0 -2 1 -6t5 -6q4 -4 24.5 -6t29.5 -4q29 -6 46 -15.5t26.5 -32t12.5 -62.5t3 -107q0 -23 -1 -82.5t-2 -127t-2 -128t-1 -84.5q0 -59 -10.5 -86t-45.5 -31q-59 -8 -73.5 -12t-14.5 -17zM137 1255q0 -25 10.5 -42t24.5 -28t30.5 -15.5t28.5 -4.5q53 0 72 33t19 62 q0 27 -25 57.5t-72 30.5q-41 0 -64.5 -26t-23.5 -67z" />
<glyph unicode="j" horiz-adv-x="555" d="M-152 -375q0 -27 10.5 -54.5t33 -51t58.5 -37.5t87 -14q25 0 74 9t101 49t95 120t55 219q2 18 3.5 83.5t2.5 159t2 202t2 214t2 194.5t1 142q-59 -4 -123 -8t-119 -8q-31 -4 -44 -5t-13 -16q0 -14 11 -17t54 -3q35 0 54.5 -7.5t27.5 -34t9 -75.5t1 -131v-104v-164v-191 q0 -98 -1 -184t-2 -148.5t-3 -78.5q-8 -68 -34.5 -104t-56.5 -52t-54.5 -18.5t-26.5 -2.5q-25 0 -48 11.5t-23 40.5q0 4 3 16t8 26.5t8 27t3 18.5q0 39 -24.5 57.5t-51.5 18.5q-25 0 -53.5 -24t-28.5 -75zM195 1311q0 -41 26.5 -63.5t57.5 -22.5q27 0 57.5 21.5t30.5 62.5 q0 39 -28.5 63.5t-59.5 24.5q-47 0 -65.5 -30t-18.5 -56z" />
<glyph unicode="k" d="M23 1317q0 -16 24 -19q43 -6 67.5 -26.5t35 -51t13.5 -68.5t3 -79q0 -31 1 -94.5t3 -145t4 -173t3 -175.5t2 -150.5t1 -98.5q0 -59 -5 -95.5t-18.5 -58t-35 -31.5t-53.5 -14q-23 -4 -23 -21q0 -12 11.5 -14t39.5 -2h291q43 0 53.5 2t10.5 14t-10.5 15.5t-20.5 3.5 q-29 2 -44.5 13t-27.5 30q-14 18 -21.5 58t-10.5 84q-2 33 -2 65v21q1 42 1 67q29 23 65 47t52 37q49 -18 82 -45t54.5 -63t33.5 -81t21 -100q6 -43 12 -68.5t13 -43t17.5 -30t26.5 -26.5h242q20 0 35.5 2t15.5 16q0 18 -31 19q-53 2 -84.5 13t-50 29.5t-28 43t-15.5 55.5 q-23 100 -48.5 166t-52 109t-56 67.5t-60.5 42.5q8 6 27.5 26.5t41 43t41 43t29.5 29.5q29 27 51.5 43t45 26t45 16.5t51.5 12.5q23 2 22 18q0 14 -11 16.5t-17 2.5l-252 -2h-19h-24q-12 0 -23.5 -1t-15.5 -1q-10 -2 -13 -7.5t-3 -9.5q0 -12 12 -15t39 -5q18 -2 39.5 -11.5 t21.5 -33.5q0 -35 -76.5 -123t-255.5 -211v196q0 147 -3 287.5t-3 288.5q0 8 1 32.5t1 51.5v51q0 25 -2 35q-12 0 -47 -4t-72.5 -8t-72.5 -8.5t-49 -6.5q-27 -4 -36 -6t-9 -12z" />
<glyph unicode="l" horiz-adv-x="575" d="M33 1307q0 -10 11 -13.5t28 -7.5q47 -8 88 -38.5t51 -100.5q2 -20 4 -85t3 -154t1 -191v-195v-166v-104q0 -41 -2 -79t-13 -68.5t-36 -51t-72 -24.5q-35 -4 -42 -6.5t-7 -12.5q0 -14 11.5 -16t19.5 -2q6 0 28.5 2t28.5 4q25 2 51 2h50h34h47q27 0 52.5 -1t44.5 -3 q4 0 16 -2t25.5 -3t26 -2t18.5 -1q16 0 21 6t5 10q0 12 -12 15.5t-20 5.5q-16 2 -37 6t-39.5 14t-32.5 28.5t-18 49.5q-2 18 -3.5 112.5t-2.5 234.5t-1 308v340v47q0 37 -1 77t-2 76t-1 52h-16q-57 -20 -120.5 -27.5t-125.5 -13.5q-41 -4 -51 -7t-10 -15z" />
<glyph unicode="m" horiz-adv-x="1599" d="M47 825q0 -10 9.5 -13t43.5 -7q10 0 23.5 -3t28 -10.5t24.5 -22.5t14 -42q2 -12 4.5 -25.5t3.5 -42t1 -79.5v-134q0 -127 -6.5 -218t-10.5 -119q-4 -33 -21.5 -50.5t-37.5 -17.5q-41 -4 -49 -7t-8 -14q0 -16 13 -18t42 -2h311q12 0 25.5 2t13.5 14q0 16 -7 18.5t-30 2.5 q-35 0 -53.5 10t-27.5 34.5t-11 66.5t-2 108q0 18 1 68.5t5 109t10 114.5t17 85q6 20 24.5 49t46 54.5t63.5 43t79 17.5q61 0 94 -34t48 -85t17.5 -111.5t2.5 -115.5q0 -31 -1.5 -80t-3.5 -101.5t-6 -99.5t-10 -74q-10 -39 -34.5 -47t-41.5 -10q-29 -2 -40 -4t-11 -15 q0 -16 14.5 -18t36.5 -2h336q10 0 25.5 2t15.5 16q0 12 -7 14.5t-42 2.5q-37 0 -57.5 10t-29.5 31.5t-11 55.5t-2 81q0 37 1 93t5 121t12 129.5t23 117.5q16 23 36.5 46t45 43.5t55 33t69.5 12.5q63 0 99.5 -34t51.5 -86t18 -116.5t3 -126.5v-67q0 -45 -1 -92t-2 -90t-3 -62 q-6 -47 -23.5 -72.5t-90.5 -25.5q-8 0 -17.5 -3t-9.5 -16q0 -14 14.5 -16t30.5 -2h307q29 0 42.5 2t13.5 18q0 14 -8.5 16.5t-26.5 2.5q-31 0 -48.5 10t-25.5 28.5t-9 44t-1 56.5q0 20 1 73.5t2 113t2 113.5t1 77q0 47 -1 80t-5 56.5t-12.5 43t-24.5 39.5 q-41 51 -103.5 68.5t-111.5 17.5q-86 0 -149.5 -32.5t-139.5 -104.5q-12 14 -31.5 37.5t-49.5 45t-69.5 37t-93.5 15.5q-57 0 -105 -18.5t-86 -45t-66.5 -54t-45.5 -46.5q0 43 1 67.5t0 42t-4 29t-7 25.5q-18 1 -39 1t-45 -1q-49 -2 -143 -10q-47 -4 -57.5 -6t-10.5 -17z " />
<glyph unicode="n" horiz-adv-x="1087" d="M51 14q0 -14 19 -14h20h33h31h22q12 0 45 -1t70 -1q39 0 73.5 -1t49.5 -1q20 0 20 12q0 18 -22 21q-35 4 -56.5 14t-32 33.5t-13.5 63.5t-3 104q0 84 4 143t12.5 102t17.5 74t21 55q12 33 35 64t50.5 55.5t61.5 39t71 14.5q70 0 107.5 -41t55 -96.5t20.5 -115t3 -96.5 q0 -39 -2 -90t-3 -96t-3 -77t-2 -34q-2 -49 -17.5 -70.5t-54.5 -31.5q-23 -4 -37 -9t-14 -14q0 -14 12 -16t17 -2q10 0 35.5 1t54 3t55.5 3t37 1q8 0 32.5 -2t50 -4t45.5 -4l21 -2q6 0 12.5 3t6.5 13t-9.5 13.5t-50.5 15.5q-45 12 -52 49t-7 96q0 18 1 71.5t2 110t2 103.5 t1 53q0 43 -4 100.5t-28.5 107.5t-77 85t-150.5 35q-102 0 -177 -57.5t-126 -139.5h-4q-2 47 -4 76t-4 48.5t-6.5 35.5t-12.5 39q-53 -2 -108 -2h-109q-6 0 -18.5 -2t-12.5 -16q0 -8 9.5 -12.5t46.5 -16.5q57 -18 66 -90t9 -178v-109q0 -55 -1 -109.5t-3 -103.5t-6 -86 q0 -8 -2 -21.5t-8 -25.5t-16.5 -23.5t-26.5 -13.5q-49 -10 -61.5 -14t-12.5 -19z" />
<glyph unicode="o" horiz-adv-x="1003" d="M70 418q0 -92 34.5 -172t93 -137.5t135.5 -90t161 -32.5q90 0 169.5 37.5t140 101t95.5 145.5t35 172q0 92 -35 169t-93 132.5t-135 87t-161 31.5q-98 0 -180 -39t-139.5 -102.5t-89 -143t-31.5 -159.5zM227 424q0 86 19.5 158.5t55.5 126t84 83t108 29.5q72 0 125 -39 t87.5 -98t52 -131t17.5 -139q0 -74 -18.5 -143.5t-54 -124t-86 -87t-111.5 -32.5t-112.5 31.5t-88.5 85t-57.5 126t-20.5 154.5z" />
<glyph unicode="p" d="M8 -477q0 -12 5 -15.5t14 -3.5q12 0 41.5 1t64.5 1t66.5 1t44.5 1q49 0 106.5 -3t85.5 -5l6 6l4 9q-4 10 -8 14t-22 8q-29 6 -54.5 20.5t-39.5 41.5q-6 10 -9.5 35.5t-4.5 56t-2 58.5t-1 42q0 63 4 136t15 134q39 -23 92 -44t133 -21q76 0 150.5 28.5t133 82t94.5 130 t36 175.5q0 88 -30 165.5t-81 135t-117.5 91.5t-142.5 34q-51 0 -92 -14.5t-74 -36t-56.5 -47t-41.5 -50.5l-4 4q2 31 3 48.5t1 33.5q0 25 -1 44.5t-3 35.5q-12 0 -47 -1t-73 -2t-73 -2t-49 -1q-10 0 -20.5 -4t-10.5 -15q0 -14 23 -16q45 -4 69.5 -20.5t30.5 -57.5 q2 -8 3 -40.5t1 -75.5v-91v-77l2 -240q0 -43 -1 -123t-4 -166t-6 -161.5t-7 -112.5q-8 -68 -32 -84.5t-75 -22.5q-29 -4 -38 -7t-9 -13zM315 356v54q0 29 3.5 90t25.5 123q23 61 69 107t132 46q59 0 107 -30.5t82 -82t52.5 -120t18.5 -144.5q0 -74 -18.5 -139t-53.5 -114.5 t-85 -79t-113 -29.5q-72 0 -132.5 32.5t-78.5 110.5q-4 12 -5.5 42t-2.5 66t-1 68z" />
<glyph unicode="q" horiz-adv-x="1044" d="M63 424q0 -63 25 -137t74 -136.5t123.5 -104.5t175.5 -42q68 0 131 15.5t123 50.5q2 -33 3 -75t1 -87v-88v-78q0 -55 -8.5 -87t-22.5 -48.5t-35.5 -20.5t-48.5 -4q-10 0 -19.5 -3t-9.5 -15t9.5 -14.5t31.5 -2.5h342q27 0 43.5 2t16.5 17q0 14 -13.5 16t-29.5 2 q-35 0 -65.5 13.5t-41.5 68.5q-4 23 -6 79t-4 131t-3 159t-1 162v141v100q0 20 1 73.5t1 113.5q0 59 1 114.5t1 77.5q0 16 -7 20.5t-11 4.5q-10 0 -23 -29q-2 -4 -8 -13t-29 -42q-88 59 -164.5 80.5t-146.5 21.5q-90 0 -165 -41t-128 -105.5t-83 -141t-30 -148.5zM236 430 q0 51 13 119.5t44 129t82 102.5t125 42q43 0 74.5 -13t54 -33.5t38 -46t25.5 -52.5q10 -29 15.5 -76t8.5 -98t3 -101v-77q0 -53 -6 -109.5t-39 -97.5q-20 -25 -66.5 -51.5t-101.5 -26.5q-92 0 -146.5 50t-82 116.5t-34.5 130t-7 92.5z" />
<glyph unicode="r" horiz-adv-x="811" d="M53 815q0 -12 9.5 -15t13.5 -3q45 -6 70.5 -15.5t38 -53.5t15.5 -135t3 -259q0 -98 -2 -156.5t-10.5 -88.5t-23.5 -40t-42 -12q-41 -4 -51.5 -6t-10.5 -13q0 -14 12.5 -16t22.5 -2h320q16 0 31.5 3t15.5 20q0 4 -3 8t-16 6q-31 4 -47 7t-28 19q-8 10 -13.5 40t-7.5 66 t-2 71v55q0 92 2 146.5t7 87t10.5 49t11.5 30.5q12 25 29.5 50.5t39 46t45 34t48.5 13.5q29 0 49 -18.5t28 -35.5q16 -35 30 -50t42 -15q25 0 41.5 10t24.5 24.5t11 31t3 28.5q0 49 -38 89t-97 40q-14 0 -44 -5t-68 -26.5t-82 -66.5t-89 -127h-4q0 12 -2 44t-4 66.5t-4 65.5 t-4 41q-12 0 -48 -2t-77 -4t-78 -4t-51 -4q-6 0 -16.5 -3.5t-10.5 -15.5z" />
<glyph unicode="s" horiz-adv-x="811" d="M109 283q0 -14 1 -52t2 -80t3 -79t2 -47q2 -10 3 -16.5t11 -6.5q12 0 23 12q14 23 20 30t19 7q12 0 20 -4q43 -20 71.5 -32.5t50 -19.5t41 -10t44.5 -3q49 0 101 18t95 55t70 89t27 120q0 53 -19.5 90t-51.5 64.5t-72 48t-81 39.5q-70 31 -115.5 53.5t-74.5 44t-41 44 t-12 54.5q0 61 49 94t113 33q70 0 124 -38q10 -8 26.5 -32t32 -51.5t29 -55t17.5 -44.5q10 -29 25 -28q12 0 14 10t2 20q0 12 -2 66.5t-8 126.5q-2 12 -4 24.5t-17 12.5q-8 0 -10 -6q-14 -16 -18.5 -21.5t-12.5 -5.5q-4 0 -13 4t-20.5 9t-20.5 9.5t-11 6.5q-16 6 -51 18 t-91 12q-55 0 -103 -17.5t-85 -50t-58.5 -76.5t-21.5 -97q0 -51 16.5 -87t50 -64t84 -52.5t119.5 -54.5q18 -8 50 -25.5t64 -42.5t54.5 -56.5t22.5 -70.5q0 -43 -18.5 -72.5t-44 -48t-55.5 -27t-54 -8.5q-59 0 -104.5 29t-77 71t-53 87t-35.5 80q-8 16 -11.5 21t-9.5 5 q-12 0 -16 -9t-4 -17z" />
<glyph unicode="t" horiz-adv-x="704" d="M70 793q0 -8 10 -13q2 0 24.5 -2t50 -4t54.5 -4t37 -4q-4 -74 -7 -150.5t-6.5 -144.5t-4.5 -121t-1 -82q0 -37 4.5 -86t23.5 -94t61 -76.5t116 -31.5q61 0 107.5 18t77 40.5t46 43t15.5 27.5q0 14 -12 14q-4 0 -10.5 -4t-32.5 -21q-16 -10 -40 -19t-65 -9q-55 0 -86 25.5 t-45 64.5t-16 86t-2 88q0 2 1 46t2 108.5t4 138t7 139.5q70 6 112 9t68.5 4t44 2t37.5 1q10 10 12 17.5t5 36.5q-6 10 -11.5 11t-27.5 1h-240v31v47v47v33q0 6 1 21t1 32q0 18 1 33.5t1 21.5t-2 17.5t-16 11.5q-12 0 -16.5 -11.5t-6.5 -23.5q-10 -88 -67.5 -163t-176.5 -128 l-26 -13t-6 -11z" />
<glyph unicode="u" horiz-adv-x="1044" d="M78 823q0 -12 8 -15t31 -5q18 -2 29.5 -6t15.5 -14.5t5 -29t1 -48.5q0 -37 1 -116t4 -165t6 -161t7 -101q8 -61 36 -96t59.5 -52.5t62.5 -21.5t49 -4q63 0 114.5 20.5t92.5 51t70.5 64.5t50.5 60q2 -16 2 -39v-36q0 -10 -1 -40t-1 -40q0 -12 6 -19.5t35 -7.5h158 q25 0 38 2t13 16q0 10 -8.5 14t-36.5 9q-39 6 -50.5 51t-11.5 125q0 20 1 76.5t3 119t3 119t1 78.5q0 86 -3 140.5t-7 87.5h-200q-29 0 -40.5 -2t-11.5 -17q0 -10 9.5 -13t13.5 -3q35 -2 54.5 -11.5t27.5 -30t9 -54t1 -84.5v-95q0 -59 -3 -122.5t-10 -117.5t-20 -77 q-47 -82 -109.5 -119t-105.5 -37q-18 0 -41.5 7.5t-45 23.5t-38 43t-22.5 64q-4 23 -6 71.5t-5 112t-3.5 134.5t-1.5 134.5t-2 114.5t-3 78h-184q-27 0 -37 -2t-10 -15z" />
<glyph unicode="v" d="M35 827q0 -14 22 -18q27 -4 39.5 -10t18.5 -13q14 -16 40.5 -65t56.5 -111.5t59.5 -130t52.5 -117.5q14 -33 36.5 -83t47 -104t50 -105.5t46.5 -85.5h10q16 27 44 85t56.5 124.5t55 131t43.5 105.5q43 109 70.5 179.5t52 111.5t49 59.5t59.5 24.5q31 4 38 6t7 12t-6 14.5 t-12 6.5h-254q-10 0 -17.5 -4t-7.5 -15q0 -12 9.5 -14t33.5 -4q6 -2 25.5 -10.5t19.5 -38.5q0 -25 -13 -72t-34.5 -105.5t-47.5 -122t-49.5 -119.5t-43 -100t-27.5 -63q-6 10 -25.5 52t-47 99.5t-57 125t-55.5 129t-42 108.5t-16 64q0 8 4 26.5t32 22.5q35 6 43.5 10t8.5 14 q0 14 -10.5 16.5t-16.5 2.5l-320 2q-4 0 -16 -2t-12 -19z" />
<glyph unicode="w" horiz-adv-x="1472" d="M51 813q0 -16 21 -18q29 -4 40 -7.5t27 -19.5q18 -20 42 -68.5t50.5 -108t51 -121.5t43.5 -112q6 -16 23.5 -57t40 -95t47 -113.5t46.5 -110.5h15q16 4 31.5 46t35.5 93q20 49 46 113.5t52.5 130t49 125t35.5 96.5l6 6q23 -59 57.5 -144.5t71.5 -173.5 q35 -88 68.5 -166.5t60.5 -125.5h14q33 82 67.5 171t65.5 171t54.5 150.5t35.5 109.5q6 20 14.5 50t21.5 59.5t30.5 54t40.5 34.5q45 18 55 24.5t10 16.5t-10 13q-4 2 -17.5 3t-28.5 2t-30 1h-18h-27t-48 -1t-45.5 -2t-22.5 -1q-23 0 -23 -15q0 -14 12.5 -18t34.5 -6 q33 -4 43 -24.5t10 -33.5q0 -20 -19.5 -84.5t-48 -146.5t-59 -164t-51.5 -137q-10 25 -36.5 86t-56.5 132t-56.5 135.5t-36.5 90.5q-18 49 -22.5 61.5t-4.5 22.5q0 23 17.5 36t27.5 18q33 10 41 14t8 14q0 8 -6 12.5t-10 4.5q-4 2 -20.5 3t-36.5 1h-39h-25q-76 0 -121 -1 t-68.5 -3t-30.5 -8.5t-7 -14.5q0 -10 8 -13t43 -7q29 -4 54.5 -44t25.5 -81q0 -27 -21.5 -90.5t-49 -136t-57.5 -141.5t-44 -103q-57 131 -98 226t-67 159.5t-38 103.5t-12 59q0 23 26.5 34.5t47.5 15.5q12 2 25 6t13 20q0 12 -18 14.5t-88 2.5h-49t-83 -1t-81 -2t-43 -1 t-19.5 -3.5t-13.5 -17.5z" />
<glyph unicode="x" horiz-adv-x="1087" d="M45 821q0 -2 3 -10t20 -12q39 -6 65.5 -12.5t40.5 -16.5t56 -61.5t89.5 -114t89.5 -119.5t60 -80q-12 -18 -21.5 -30.5t-22.5 -30t-33.5 -46t-55.5 -79.5q-31 -45 -54.5 -74t-47 -46t-50 -27.5t-63.5 -18.5q-35 -8 -43 -10t-8 -13q0 -14 15 -17t40 -3h268q35 0 47.5 2 t12.5 16q0 10 -12.5 14.5t-22.5 4.5q-33 2 -62.5 10t-29.5 41q0 14 6 28.5t10 20.5q12 25 35.5 59.5t48.5 68.5t44 61.5t26 35.5q29 -37 46 -57t32.5 -40.5t34 -47.5t50.5 -76q20 -29 24.5 -37t4.5 -18q0 -16 -15.5 -26.5t-37.5 -16.5q-39 -8 -47 -10t-8 -13q0 -10 10 -15 t51 -5h320q53 0 65 3t12 20q0 10 -10 14t-20 4q-37 2 -66 15.5t-50.5 29.5t-35.5 33.5l-22 27.5q-14 16 -48 61.5t-73 95.5t-74 96t-49 65q12 16 40.5 58t62.5 88t66 88t46 59q20 23 48 32t65 9q6 0 18 3t12 19q0 14 -13 16.5t-32 2.5h-219q-35 0 -50.5 -3t-15.5 -20 q0 -10 9.5 -14t40.5 -8q20 -4 34.5 -17.5t14.5 -34.5q0 -20 -6 -32.5t-17 -26.5q-31 -47 -62.5 -93t-66.5 -93q-43 59 -69.5 97t-44 62.5t-28.5 39t-20 28.5q-4 10 -10 20.5t-6 20.5q0 14 10.5 18t55.5 11q43 6 43 26q0 14 -12.5 16.5t-39.5 2.5h-319h-35q-14 0 -29 -2 q-16 -4 -16 -17z" />
<glyph unicode="y" d="M18 -406q0 -23 11.5 -47t33 -43.5t52 -33t71.5 -13.5q76 0 134.5 43t101.5 106.5t74.5 136.5t56.5 132q14 35 47 126t70 195.5t69.5 197.5t46.5 132q25 63 44.5 112.5t40 85.5t44 57.5t56.5 27.5q16 4 25.5 8t9.5 17q0 10 -7.5 13t-17.5 3t-35.5 -1t-54.5 -1 q-27 0 -52.5 -1t-37.5 -1h-29q-20 0 -42.5 1t-45.5 1h-27q-23 0 -22 -17q0 -18 29 -18q55 -6 79.5 -29.5t24.5 -62.5q0 -37 -5 -66.5t-9 -46.5q-10 -37 -22.5 -76.5t-31 -93t-44 -124t-60.5 -167.5q-66 154 -110 258.5t-69.5 171t-36.5 101.5t-11 53q0 25 17 44.5t40 25.5 q45 12 55.5 17t10.5 16q0 10 -9.5 14t-15.5 4q-41 -2 -89 -4t-108 -2h-96q-45 0 -63 4h-23q-27 0 -27 -19q0 -10 10.5 -13t37.5 -7q39 -6 88 -99.5t131 -289.5q86 -207 128 -317.5t42 -165.5q0 -29 -22.5 -93.5t-57.5 -129t-80 -113.5t-88 -49t-49 40q-2 14 -5 32t-12.5 31 t-27 22.5t-45.5 9.5q-29 0 -61 -27t-32 -68z" />
<glyph unicode="z" horiz-adv-x="917" d="M100 18q0 -10 9.5 -15t21.5 -5q8 0 28.5 1t43.5 1t44 1t29 1q123 -2 246 -3h82l164 1q2 8 11 48t19.5 83t18.5 79t8 38q0 16 -16 16q-8 0 -27.5 -22.5t-41 -51t-41 -55t-27.5 -35.5q-35 -35 -67 -49t-101 -14l-215 2q16 31 25.5 52.5t31.5 55.5q43 68 96.5 151t108.5 170 t108.5 171t94.5 152q10 16 12 22t2 14q0 18 -37 19l-129 4q-12 0 -43 -1t-72 -1h-81h-74h-56t-41 -1t-34.5 -2t-36.5 -3q-16 -55 -25.5 -94t-19.5 -70q0 -2 -5 -17.5t-9.5 -27.5t-4.5 -15q0 -10 6.5 -13t10.5 -3q6 0 18 13.5t24.5 31t23 33.5t16.5 22q27 33 54.5 53.5t59 32 t70.5 15.5t90 4q23 0 54.5 -1t52.5 -3q-6 -12 -15.5 -24.5t-13.5 -20.5q-51 -90 -83 -144.5t-54.5 -93.5t-44 -70.5t-52.5 -74.5q-4 -6 -21 -32t-41 -63.5t-51.5 -79.5t-50 -80t-38 -66.5t-15.5 -35.5z" />
<glyph unicode="{" horiz-adv-x="980" d="M248 389q66 -8 109.5 -32.5t69.5 -56.5t37 -64.5t11 -59.5q0 -18 -3 -42.5t-7 -48.5t-8 -41t-6 -21q-14 -59 -17.5 -100.5t-3.5 -55.5q0 -63 24.5 -128t71.5 -118t118 -92t161 -51v35q-96 25 -160.5 81t-64.5 156q0 25 7 68t17 90q4 23 12.5 66.5t8.5 88.5t-16.5 94.5 t-52.5 96.5t-92 87t-134 69v4q100 35 158.5 84t89 99t39 93t8.5 68q0 45 -8.5 89t-12.5 66q-12 47 -18 90.5t-6 65.5q0 100 64.5 157.5t160.5 80.5v34q-92 -12 -162 -51t-118 -93t-71.5 -117.5t-23.5 -125.5q0 -16 3 -56t18 -99q0 -4 4 -22.5t9 -41t8 -47t3 -43.5 q0 -27 -11 -59.5t-37 -64.5t-70 -57.5t-109 -33.5v-41z" />
<glyph unicode="|" d="M467 -500h90v1852h-90v-1852z" />
<glyph unicode="}" horiz-adv-x="980" d="M176 -487v-35q90 12 160 51t118 92t72.5 117.5t24.5 128.5q0 14 -3 55t-18 101q-2 4 -6 21t-8 41t-7 48.5t-3 42.5q0 27 11 59.5t37 64.5t70 56.5t109 32.5v41q-66 8 -109.5 33.5t-70.5 57.5t-37 64.5t-10 59.5q0 18 3 43t8 47.5t9 41t4 22.5q14 59 17.5 99t3.5 56 q0 61 -23.5 125t-71.5 118t-118 93t-162 51v-34q47 -12 88 -32t72 -48.5t48 -67.5t17 -90q0 -23 -6 -65.5t-18 -90.5q-4 -23 -12.5 -66.5t-8.5 -88.5q0 -25 8.5 -68t39 -93t89 -99t158.5 -84v-4q-78 -29 -134 -69t-92 -87t-52.5 -96t-16.5 -95q0 -45 8.5 -89t12.5 -66 q10 -47 17 -90t7 -68q0 -100 -64.5 -156t-160.5 -81z" />
<glyph unicode="~" horiz-adv-x="1366" d="M152 461h43q2 16 11 47t28.5 60.5t55.5 52t91 22.5q23 0 45.5 -4t57 -15.5t88 -33t139.5 -55.5q63 -27 105 -42.5t69.5 -22.5t47 -9t40.5 -2q98 0 168.5 70.5t72.5 201.5h-43q-6 -59 -26.5 -96t-48 -56.5t-57 -26.5t-54.5 -7q-12 0 -27.5 1t-40 7t-61.5 19.5t-94 37.5 q-41 18 -93.5 40t-104.5 40.5t-100 30.5t-81 12q-6 0 -41 -4t-76 -29.5t-75.5 -81t-38.5 -157.5z" />
<glyph unicode="&#xa1;" horiz-adv-x="448" d="M125 -360q0 -10 2 -33t12.5 -46.5t29.5 -42t56 -18.5q41 0 69 35t28 90q0 6 -3.5 42t-7.5 79t-8 84t-6 55q-6 68 -14.5 147t-14.5 159.5t-10 159.5t-4 145q0 12 -6 14t-21 2q-16 0 -18 -10t-2 -51q0 -33 -6 -102.5t-15.5 -157t-19.5 -180.5t-19.5 -173t-15.5 -134t-6 -64 zM125 752q0 -41 28.5 -70t69.5 -29t70 29t29 70t-29 69.5t-70 28.5t-69.5 -28.5t-28.5 -69.5z" />
<glyph unicode="&#xa2;" horiz-adv-x="854" d="M68 399q0 -49 12 -103t39.5 -104.5t72 -96.5t109.5 -79l-104 -301l36 -12l103 301q31 -10 57.5 -16t67.5 -6q98 0 162.5 31.5t101.5 75.5t52.5 90t15.5 75q0 20 -19 20q-10 0 -13 -6t-7 -22q-8 -49 -33 -88t-58.5 -65.5t-72.5 -41t-74 -14.5q-55 0 -90 22.5t-57 40.5 l225 658q4 -6 12 -25.5t17.5 -41t17.5 -41t14 -25.5q16 -20 30.5 -24.5t25.5 -4.5q29 0 47 19.5t18 54.5q0 39 -15.5 65.5t-39 45t-51 29.5t-52.5 19l103 299l-37 13l-100 -297q-23 4 -49.5 9t-63.5 5q-98 0 -174 -43t-127 -110.5t-76.5 -148.5t-25.5 -157zM236 463 q0 18 4 75.5t25.5 121t66.5 112.5t129 49q37 0 60.5 -10t41.5 -20l-225 -662q-53 72 -77.5 158t-24.5 176z" />
<glyph unicode="&#xa3;" horiz-adv-x="1705" d="M47 -74q0 -39 20.5 -69.5t53.5 -51t75 -32t83 -11.5q29 0 67.5 7.5t85.5 26t100.5 51t110.5 85.5q25 -10 47.5 -20t50 -20.5t62.5 -24.5t86 -33q63 -25 107 -40t77 -24.5t59.5 -12.5t57.5 -3q39 0 97.5 12.5t111.5 46t92 95t39 162.5q0 10 -2 20t-15 10q-12 0 -15 -11 t-3 -21q-4 -39 -38 -71t-83 -53.5t-108.5 -32.5t-116.5 -11q-74 0 -144.5 10t-131 24.5t-108.5 28.5t-75 23q31 39 55.5 73.5t45 75.5t41 92.5t42.5 122.5l431 35q23 2 30.5 6t7.5 23q0 23 -9 24.5t-38 1.5l-409 -32q2 8 5 30.5t5 28.5q14 113 23.5 178.5t16.5 111.5 t15.5 89t22.5 108q12 59 30.5 125t53.5 120t93 89t151 35q43 0 89 -14.5t83.5 -51t63.5 -98t26 -153.5q0 -72 -15.5 -124.5t-40 -85t-56.5 -48t-64 -15.5q-23 0 -40.5 7.5l-45.5 19.5q-23 10 -33 10q-16 0 -17 -16q0 -8 13.5 -18.5t34 -18.5t45 -14.5t45.5 -6.5q51 0 101 26 t89 70t62.5 104t23.5 132q0 68 -30.5 128.5t-81 105.5t-114 71.5t-130.5 26.5q-70 0 -125.5 -18.5t-96 -44t-70.5 -53t-46 -46.5q-59 -68 -97 -134.5t-66 -155.5t-52.5 -212t-57.5 -301l-391 -30q-27 -2 -33 -5.5t-6 -17.5q0 -27 7.5 -31t31.5 -2l381 29 q-25 -129 -48.5 -200.5t-43.5 -123.5q-66 25 -124 38.5t-102 19.5t-71 7t-29 1q-43 0 -84 -11.5t-72.5 -32t-50 -49t-18.5 -61.5zM139 -88q0 35 14.5 59.5t37 40t50 22.5t56.5 7q39 0 79 -8t76.5 -20.5t67 -26t53.5 -23.5q-49 -78 -125.5 -121t-168.5 -43q-53 0 -96.5 24.5 t-43.5 88.5z" />
<glyph unicode="&#xa4;" horiz-adv-x="1386" d="M223 188l62 -61l127 123q20 -14 45.5 -31.5t59.5 -33t77 -25.5t98 -10q109 0 175.5 35.5t107.5 66.5l125 -125l61 61l-125 125q18 25 36 51.5t32 59.5t23.5 73t9.5 93q0 55 -10.5 100t-26 80t-32.5 60.5t-32 46.5l125 122l-61 64l-125 -125q-43 31 -109.5 65.5 t-173.5 34.5q-53 0 -96 -9t-77 -24.5t-60.5 -33t-46.5 -31.5l-127 123l-62 -64l125 -122q-14 -20 -31.5 -47t-33 -61t-25.5 -77t-10 -98t10 -98t25.5 -77t33 -60.5t31.5 -47.5zM336 594q0 74 27.5 138.5t76.5 113.5t113.5 76.5t138.5 27.5t138.5 -27.5t113.5 -76.5 t77 -113.5t28 -138.5t-28 -138.5t-77 -112.5t-113.5 -76.5t-138.5 -28.5t-138.5 28.5t-113.5 76.5t-76.5 112.5t-27.5 138.5z" />
<glyph unicode="&#xa5;" horiz-adv-x="1449" d="M33 1278q0 -10 9 -13t13 -3q37 -6 55.5 -11.5t43.5 -21.5q31 -20 70.5 -65.5t83.5 -105t88 -126t84 -128t73 -113.5t51 -81h-491v-59h512l16 -191h-528v-59h530q0 -152 -40 -211t-122 -63q-27 0 -26 -17q0 -14 13 -17t24 -3q10 0 38.5 1t59.5 3q33 2 61.5 4t38.5 2h58 q41 0 88 -2t90 -5t59 -3q4 0 19.5 2t15.5 18q0 12 -12.5 16.5t-61.5 8.5q-31 4 -64.5 22.5t-45.5 53.5q-10 33 -12.5 89t-2.5 101h508v59h-510v101q0 23 2 45t2 45h506v59h-500q0 25 5.5 44.5t24 50t55 81t102.5 136.5q76 104 127 169.5t92 102.5t79 51.5t89 14.5q8 0 16 2 t8 14q0 16 -15 18t-38 2h-377q-29 0 -43 -2t-14 -16t10.5 -16t24.5 -2q6 0 26.5 -3.5t42 -13.5t39 -27.5t17.5 -46.5t-19.5 -61.5t-50.5 -79.5q-61 -90 -128.5 -185t-127.5 -159q-66 90 -132.5 184.5t-129.5 184.5q-8 10 -18.5 26.5t-20.5 35t-17 36.5t-7 33q0 2 2 12 t11 22.5t29.5 23.5t59.5 15q29 4 39 7.5t10 13.5q0 14 -11 16t-24 2h-465q-39 0 -53 -2t-14 -16z" />
<glyph unicode="&#xa6;" d="M467 250v-750h90v750h-90zM467 600h90v752h-90v-752z" />
<glyph unicode="&#xa7;" horiz-adv-x="960" d="M92 604q0 -57 14.5 -106t43 -98.5t70.5 -100.5t97 -111q162 -178 250 -304t88 -232q0 -10 -4 -35t-21.5 -52.5t-52 -48t-94.5 -20.5q-41 0 -62.5 11.5t-30.5 24.5t-11 25.5t-2 14.5q0 20 15.5 36.5t19.5 20.5q20 16 29.5 26.5t9.5 33.5q0 31 -25 52t-57 21 q-47 0 -81 -39.5t-34 -82.5q0 -27 12.5 -60t40 -60.5t68.5 -46t100 -18.5q68 0 119 24.5t85 63.5t51.5 88.5t17.5 98.5q0 39 -10.5 78.5t-26 75.5t-31.5 66t-29 50q39 8 78 20.5t69.5 34t50 57t19.5 93.5q0 45 -11 84t-45 90t-94.5 126t-160.5 195q-117 137 -174 236.5 t-57 198.5q0 49 15 83.5t40 58t55.5 35t61.5 11.5q18 0 38.5 -5t39 -14.5t30.5 -22.5t12 -32q0 -10 -7 -21t-38 -36q-16 -12 -25 -26.5t-9 -35.5q0 -29 21.5 -52t55.5 -23q10 0 29 6t36 19.5t30.5 38t13.5 61.5q0 41 -18.5 75.5t-51 59t-74.5 39t-89 14.5 q-59 0 -107.5 -21.5t-83.5 -59.5t-53.5 -89t-18.5 -113q0 -45 9.5 -88t23.5 -79.5t28.5 -65.5t24.5 -47q-111 -10 -167 -57.5t-56 -143.5zM170 655q0 29 11.5 48.5t26.5 30.5t32.5 16.5t29.5 5.5q25 0 44.5 -7.5t47 -33t71.5 -75.5t116 -134q72 -86 117 -140.5t70.5 -91 t34.5 -63.5t9 -57q0 -39 -17.5 -59.5t-42 -31t-51 -13.5t-44.5 -3q-29 27 -62 59.5t-73.5 76.5t-92 104.5t-114.5 144.5q-59 76 -86 128t-27 95z" />
<glyph unicode="&#xa8;" horiz-adv-x="681" d="M59 1059q0 -41 28 -66.5t65 -25.5t64.5 25.5t27.5 66.5t-27.5 66.5t-64.5 25.5q-35 0 -64 -25.5t-29 -66.5zM438 1059q0 -41 28 -66.5t64 -25.5q37 0 65 25.5t28 66.5t-29 66.5t-64 25.5q-37 0 -64.5 -25.5t-27.5 -66.5z" />
<glyph unicode="&#xa9;" horiz-adv-x="1556" d="M70 631q0 -147 55 -276.5t151.5 -225.5t225.5 -151.5t276 -55.5t276.5 55.5t225.5 151.5t151.5 225t55.5 277q0 147 -56.5 277t-152.5 225.5t-225.5 150.5t-274.5 55t-274 -55t-225.5 -150.5t-152.5 -225.5t-56 -277zM131 631q0 135 51 254t139.5 206t206 137t250.5 50 t251 -50t206 -137t139 -206t51 -254t-51 -253t-138 -205t-205 -138t-253 -51t-252.5 51t-205 138t-138.5 205t-51 253zM319 625q0 -86 33 -167t93.5 -142.5t146.5 -98.5t190 -37q244 0 385 203l-39 20q-66 -92 -145.5 -126.5t-165.5 -34.5q-84 0 -140 25.5t-93 66.5 t-57.5 89t-30 94t-10.5 83t-1 53q0 190 90.5 289.5t231.5 99.5q86 0 142.5 -28.5t89 -67.5t49 -79t22.5 -60h39l-21 280h-38q-8 -16 -17.5 -30.5t-32.5 -14.5q-6 0 -13 1t-23 8q-35 10 -58.5 17t-43 11t-40 6t-45.5 2q-115 0 -206 -37.5t-156.5 -102t-100.5 -147.5t-35 -175 z" />
<glyph unicode="&#xaa;" horiz-adv-x="618" d="M84 926q0 -47 36 -84t116 -37q68 0 102 20.5t59 40.5q4 -41 25.5 -50t50.5 -9q10 0 32.5 1t45 4t40 8t17.5 16q0 12 -14 14t-41 2q-16 0 -24.5 16.5t-12.5 41t-5 51t-1 45.5q0 8 1 30.5t1 48.5q0 27 1 50.5t1 33.5q0 27 -3 56.5t-21.5 52t-58.5 38t-114 15.5 q-57 0 -97 -11t-65.5 -28.5t-37 -38t-11.5 -39.5q0 -27 19.5 -42t40.5 -15q27 0 42 17.5t21 39.5q8 35 20.5 57.5t59.5 22.5q39 0 65.5 -23.5t26.5 -80.5q0 -23 -6 -36t-25.5 -24.5t-55 -22.5t-93.5 -30q-12 -4 -35.5 -14t-46 -27.5t-39 -44t-16.5 -65.5zM207 938 q0 16 7 37.5t36 44.5q8 6 28.5 18.5t45 24.5t45 23.5t28.5 15.5q2 -18 3 -42t0 -49.5t-4 -49t-11 -37.5q-16 -35 -47 -52.5t-59 -17.5q-35 0 -53.5 25.5t-18.5 58.5z" />
<glyph unicode="&#xab;" horiz-adv-x="1044" d="M66 418q8 -8 18 -17.5t29.5 -28t53.5 -50t89 -82.5q68 -63 107.5 -101.5t62.5 -60t33 -30.5t20 -15q6 -2 19 -2q14 0 14 6q0 4 -1 7t-11 17q-8 12 -40 59.5t-70 104t-74.5 110.5t-55.5 83q10 16 32.5 50t50.5 76t57.5 87t54 83t41 62.5t16.5 26.5q0 4 -8 6t-10 2h-5 q-4 0 -32.5 -25.5t-70.5 -63.5t-91 -84t-94 -90t-82 -79t-53 -51zM532 418q8 -8 18.5 -17.5t30 -28t53.5 -50t89 -82.5q68 -63 107.5 -101.5t62 -60t33 -30.5t20.5 -15q6 -2 19 -2q14 0 14 6q0 4 -1 7t-11 17q-8 12 -40 59.5t-70 104t-75 110.5t-55 83q10 16 32.5 50 t50.5 76t57.5 87t54 83t41 62.5t16.5 26.5q0 4 -8 6t-10 2h-5q-4 0 -32.5 -25.5t-70.5 -63.5t-91 -84t-94 -90t-82 -79t-54 -51z" />
<glyph unicode="&#xac;" horiz-adv-x="1366" d="M145 795h988v-488h88v576h-1076v-88z" />
<glyph unicode="&#xad;" horiz-adv-x="704" d="M35 389q0 -29 8 -33t43 -4h539q31 0 38 4t7 33v55q0 29 -4 35t-27 6h-553q-35 0 -43 -5t-8 -36v-55z" />
<glyph unicode="&#xae;" horiz-adv-x="1556" d="M70 631q0 -147 55 -276.5t151.5 -225.5t225.5 -151.5t276 -55.5t276.5 55.5t225.5 151.5t151.5 225t55.5 277q0 147 -56.5 277t-152.5 225.5t-225.5 150.5t-274.5 55t-274 -55t-225.5 -150.5t-152.5 -225.5t-56 -277zM131 631q0 135 51 254t139.5 206t206 137t250.5 50 t251 -50t206 -137t139 -206t51 -254t-51 -253t-138 -205t-205 -138t-253 -51t-252.5 51t-205 138t-138.5 205t-51 253zM375 201h366v35h-24q-12 0 -25 2q-33 4 -51 23.5t-18 35.5v309h75l295 -405h185v35q-12 0 -23.5 2t-26 11t-32 26.5t-39.5 48.5l-211 297q20 6 58 18 t75 36.5t63.5 65.5t26.5 103q0 98 -78 160.5t-219 62.5h-387v-35q35 0 54.5 -7t28.5 -23.5t10 -42t1 -62.5v-524q0 -37 -2 -62.5t-11 -43t-30.5 -24.5t-60.5 -7v-35zM623 649v359q18 6 36.5 10t47.5 4q96 0 148 -57.5t52 -133.5q0 -57 -26.5 -93t-64.5 -55t-82 -26.5 t-81 -7.5h-30z" />
<glyph unicode="&#xaf;" horiz-adv-x="681" d="M61 969h560v96h-560v-96z" />
<glyph unicode="&#xb0;" horiz-adv-x="811" d="M98 1079q0 -66 24.5 -121t66.5 -97t97.5 -65.5t119.5 -23.5q63 0 119.5 24.5t97.5 65.5t65.5 97.5t24.5 119.5t-24.5 119.5t-65.5 97.5t-97.5 65.5t-119.5 24.5t-119 -24.5t-98 -65.5t-66.5 -97t-24.5 -120zM182 1079q0 47 17.5 88t48.5 71t72 47.5t86 17.5t85.5 -17.5 t71.5 -47.5t48.5 -71t17.5 -88t-17.5 -87t-48.5 -70.5t-71.5 -48t-85.5 -17.5q-47 0 -88.5 17.5t-71 48t-47 70.5t-17.5 87z" />
<glyph unicode="&#xb1;" horiz-adv-x="1366" d="M145 0h1076v88h-1076v-88zM145 709h494v-494h88v494h494v88h-494v493h-88v-493h-494v-88z" />
<glyph unicode="&#xb2;" horiz-adv-x="704" d="M80 713q0 -8 7 -9.5t42 -1.5h430l64 150q2 4 5 13t3 14q0 14 -17 14q-8 0 -13 -7t-23 -38q-20 -35 -56.5 -40t-109.5 -5h-164v4q104 76 175 131t99 84q31 31 55.5 81t24.5 99q0 45 -20.5 77t-50 51.5t-64.5 27.5t-66 8q-61 0 -117.5 -18.5t-101.5 -52t-71.5 -79 t-26.5 -98.5q0 -47 35 -85t82 -38q27 0 51 11.5t42.5 27t29 30.5t10.5 21q0 10 -6 13.5t-11 3.5q-6 0 -22 -17q-25 -23 -42 -35t-36 -12q-8 0 -27.5 13.5t-19.5 72.5q0 47 17.5 85t45 64.5t62.5 41t67 14.5q49 0 80 -36t31 -99q0 -66 -29.5 -122t-79 -108.5t-115 -105.5 t-136.5 -113q-10 -8 -21.5 -17t-11.5 -15z" />
<glyph unicode="&#xb3;" horiz-adv-x="704" d="M84 829q0 -20 12.5 -44.5t38 -45t65.5 -34t97 -13.5q63 0 118.5 19.5t96.5 52.5t64.5 76t23.5 90q0 49 -18.5 77.5t-44 44t-51 20.5t-40.5 5v4q84 45 109 80t25 70t-16.5 60.5t-41 43t-55.5 25.5t-59 8q-47 0 -94.5 -12.5t-86.5 -37t-63.5 -59t-24.5 -77.5 q0 -41 23.5 -69t66.5 -28q20 0 37 8.5t29 19.5t18 20.5t6 13.5t-7 10t-11 6q-6 0 -12 -6q-18 -18 -27.5 -24.5t-19.5 -6.5q-4 0 -15.5 7.5t-11.5 40.5q0 25 11.5 51t32 48.5t49 38t61.5 15.5q57 0 76.5 -33.5t19.5 -66.5q0 -35 -10.5 -53.5t-26.5 -34.5q-51 -49 -83 -73 t-54 -36q-12 -8 -15.5 -12t-3.5 -10q0 -18 15 -19q8 0 27.5 13.5t25.5 17.5q16 8 36.5 15t43.5 7q35 0 47 -24.5t12 -46.5q0 -33 -13 -75t-39 -79t-60.5 -62.5t-77.5 -25.5q-31 0 -60.5 15.5t-29.5 43.5q0 6 6 30t6 32q0 14 -10.5 30.5t-40.5 16.5q-35 0 -55.5 -22.5 t-20.5 -45.5z" />
<glyph unicode="&#xb4;" horiz-adv-x="681" d="M199 938q0 -4 5 -8t9 -4q6 0 17.5 7t15.5 11l237 180q53 41 76 69t23 56q0 18 -15.5 41t-50.5 23q-43 0 -71.5 -32t-61.5 -77l-156 -217q-20 -29 -24 -36t-4 -13z" />
<glyph unicode="&#xb6;" horiz-adv-x="1472" d="M186 737q0 -51 10.5 -108.5t35 -113.5t66.5 -107.5t103 -88.5q51 -31 99.5 -46t92.5 -21t82 -5t68 3v-729h74v1698q63 20 119.5 23t89.5 -1v-1720h78v1542q0 45 4 75.5t20.5 52t49 38t92.5 33.5v34q-178 -2 -289 -4t-181.5 -6t-113.5 -10t-86 -14q-98 -20 -175 -69.5 t-130 -119t-81 -156t-28 -180.5z" />
<glyph unicode="&#xb7;" horiz-adv-x="448" d="M127 535q0 -43 29.5 -72t70.5 -29t69 30t28 71t-28 68.5t-69 27.5t-70.5 -28t-29.5 -68z" />
<glyph unicode="&#xb8;" horiz-adv-x="681" d="M158 -371q0 -16 12 -18t16 -2q27 0 63 3t72.5 9t70.5 16.5t59 24.5q25 12 51 45t26 80q0 59 -39.5 91t-97.5 42q14 29 20.5 43t16.5 43h-45q-20 -41 -47 -92t-45 -86q41 -4 64.5 -24.5t23.5 -47.5q0 -31 -17.5 -50t-44 -30.5t-59.5 -16.5t-63 -9q-14 -2 -25.5 -5 t-11.5 -16z" />
<glyph unicode="&#xb9;" horiz-adv-x="704" d="M186 1298q0 -10 12.5 -13t30.5 -7q49 -6 66.5 -30.5t17.5 -88.5v-282q0 -35 -1 -59.5t-8 -41t-22.5 -26t-43.5 -13.5q-16 -2 -29.5 -6t-13.5 -14t7 -13l7 -4l29 2h245q23 0 32 2.5t9 14.5q0 10 -10 12t-29 6q-47 8 -54 36t-7 73v473q0 25 -2 35t-14 10q-4 0 -8.5 -1 t-18.5 -11q-20 -12 -68.5 -23.5t-97.5 -13.5q-4 0 -16.5 -2t-12.5 -15z" />
<glyph unicode="&#xba;" horiz-adv-x="641" d="M33 1063q0 -55 23.5 -103.5t62.5 -84t90 -55t106 -19.5q61 0 114.5 22.5t93.5 61.5t62.5 89t22.5 103q0 55 -23.5 101.5t-62.5 80t-90 53t-106 19.5q-66 0 -120 -23.5t-92 -61.5t-59.5 -86t-21.5 -97zM160 1067q0 98 44 162.5t111 64.5q43 0 75 -22.5t51.5 -56 t29.5 -75.5t10 -79q0 -43 -11 -83t-30.5 -70.5t-49.5 -50t-66 -19.5q-72 0 -118 67.5t-46 161.5z" />
<glyph unicode="&#xbb;" horiz-adv-x="1044" d="M66 37q0 -6 12 -6q14 0 20 2q8 6 19.5 15t34 30.5t62.5 59.5t108 102q55 51 88.5 82.5t53 50t30 28t18.5 17.5q-16 16 -53 51t-82 79t-94.5 90t-91 84t-70.5 63.5t-33 25.5h-4q-2 0 -10 -2t-8 -6q0 -2 16 -26.5t40.5 -62.5t54.5 -83t57.5 -87t50 -76t32.5 -50 q-18 -29 -55 -83t-74.5 -110.5t-69.5 -103.5t-40 -60q-10 -14 -11 -17t-1 -7zM532 37q0 -6 13 -6q14 0 20 2q8 6 19.5 15t34 30.5t62.5 59.5t107 102q55 51 89 82.5t53.5 50t30 28t18.5 17.5q-16 16 -53 51t-82 79t-94.5 90t-91.5 84t-70.5 63.5t-32.5 25.5h-4 q-2 0 -10.5 -2t-8.5 -6q0 -2 16.5 -26.5t41 -62.5t54.5 -83t57.5 -87t50 -76t32.5 -50q-18 -29 -55 -83t-75 -110.5t-69.5 -103.5t-39.5 -60q-10 -14 -11.5 -17t-1.5 -7z" />
<glyph unicode="&#xbc;" horiz-adv-x="1472" d="M188 1298q0 -10 13.5 -13l31.5 -7q47 -6 65.5 -30.5t18.5 -88.5v-282q0 -35 -1 -59.5t-8 -41t-22.5 -26t-43.5 -13.5q-18 -2 -30.5 -6t-12.5 -14t6 -13.5t8 -3.5l29 2h245q20 0 30.5 2.5t10.5 14.5q0 10 -11 12t-30 6q-45 8 -52 36t-7 73v473q0 25 -2 35t-16 10 q-4 0 -8.5 -1t-16.5 -11q-20 -12 -68.5 -23.5t-97.5 -13.5q-6 0 -18.5 -2t-12.5 -15zM281 -20h65l846 1382h-64zM807 225q55 2 92 4t69.5 3t67.5 1h86q0 -8 -1 -27.5t-2 -41t-2 -42t-3 -28.5q0 -4 -2 -12t-8 -18.5t-16.5 -18.5t-26.5 -10q-41 -4 -49 -7t-8 -14q0 -14 20 -14 h272q20 0 29.5 2t9.5 14q0 10 -8 12.5t-31 6.5q-8 0 -18 3t-20.5 10t-17.5 22.5t-7 40.5v122h61q27 0 43.5 -7t24.5 -22.5t14 -41.5q4 -23 7 -30t14 -7q10 0 13 9t3 16v4q-2 25 -3 38t-2 22t-1 17v23q0 6 1 23.5t2 37t2 38t1 26.5t-3 15t-13 7t-13.5 -8t-7.5 -43 q-8 -49 -37.5 -65.5t-105.5 -14.5v361q0 23 -2 29t-14 6q-14 0 -28.5 -13.5l-43.5 -40.5q-86 -88 -171 -176t-167 -180v-31zM866 270q27 29 61 65t68.5 71.5t69.5 69.5t63 61q0 -16 -1 -54.5t-2 -81.5t-2 -79.5t-1 -51.5h-256z" />
<glyph unicode="&#xbd;" horiz-adv-x="1472" d="M188 1298q0 -10 13.5 -13l31.5 -7q47 -6 65.5 -30.5t18.5 -88.5v-282q0 -35 -1 -59.5t-8 -41t-22.5 -26t-43.5 -13.5q-18 -2 -30.5 -6t-12.5 -14t6 -13.5t8 -3.5l29 2h245q20 0 30.5 2.5t10.5 14.5q0 10 -11 12t-30 6q-45 8 -52 36t-7 73v473q0 25 -2 35t-16 10 q-4 0 -8.5 -1t-16.5 -11q-20 -12 -68.5 -24.5t-97.5 -12.5q-6 0 -18.5 -2t-12.5 -15zM281 -20h65l846 1382h-64zM844 10q0 -8 8 -9t41 -1h432l61 150q2 4 5.5 13t3.5 13t-4.5 10.5t-10.5 6.5q-10 0 -15 -8.5t-24 -39.5q-20 -33 -56 -38t-109 -5h-164v4q106 76 177 129.5 t97 81.5q31 33 55.5 83.5t24.5 99.5q0 45 -20.5 75.5t-50 50t-64.5 28t-66 8.5q-59 0 -116.5 -18.5t-102.5 -52.5t-71.5 -79t-26.5 -98q0 -47 35 -84t84 -37q27 0 51 11t42.5 26.5t29 31t10.5 21.5q0 10 -7.5 12t-9.5 2q-8 0 -24 -14q-23 -23 -40.5 -35t-37.5 -12 q-8 0 -27.5 13t-19.5 73q0 47 18.5 85t46 63.5t61.5 40t66 14.5q49 0 80 -36t31 -100q0 -66 -27.5 -123t-76 -110t-114 -105.5t-140.5 -105.5q-10 -8 -22.5 -18.5t-12.5 -16.5z" />
<glyph unicode="&#xbe;" horiz-adv-x="1472" d="M88 829q0 -20 11.5 -44.5t37 -45t65.5 -34t97 -13.5q63 0 119.5 19.5t97.5 52.5t64.5 76t23.5 90q0 49 -19.5 77.5t-45 44t-51 20.5t-37.5 5v4q82 45 107.5 80t25.5 70t-16.5 60.5t-41 43t-55.5 25.5t-59 8q-47 0 -94.5 -12.5t-86 -37t-63.5 -59t-25 -77.5 q0 -41 23.5 -69t66.5 -28q20 0 37 8.5t28 19.5t17.5 20.5t6.5 13.5t-6.5 10t-10.5 6q-6 0 -12 -6q-20 -18 -28.5 -24.5t-18.5 -6.5q-4 0 -15.5 7.5t-11.5 40.5q0 25 11.5 51t32 48.5t48 38t60.5 15.5q57 0 77.5 -33.5t20.5 -66.5q0 -35 -10 -53.5t-27 -34.5q-51 -49 -83 -73 t-56 -36q-18 -12 -19 -22q0 -8 6.5 -13.5t10.5 -5.5q6 0 26.5 13.5t26.5 17.5q16 8 36.5 15t41.5 7q35 0 48 -24.5t13 -46.5q0 -33 -14 -75t-38.5 -79t-60.5 -62.5t-79 -25.5q-29 0 -58.5 15.5t-29.5 43.5q0 6 5 30t5 32q0 14 -10 30.5t-41 16.5q-35 0 -54.5 -22.5 t-19.5 -45.5zM281 -20h65l846 1382h-64zM807 225q55 2 92 4t69.5 3t67.5 1h86q0 -8 -1 -27.5t-2 -41t-2 -42t-3 -28.5q0 -6 -10 -30.5t-43 -28.5q-41 -4 -49 -7t-8 -14q0 -14 20 -14h272q20 0 29.5 2t9.5 14q0 16 -39 19q-8 0 -18 3t-20.5 10t-17.5 22.5t-7 40.5v122h61 q27 0 43.5 -7t24.5 -22.5t14 -41.5q4 -23 7 -30t14 -7q10 0 13 9t3 16v4q-2 25 -3 38t-2 22t-1 17v23q0 6 1 23.5t2 37t2 38t1 26.5t-3 15t-13 7t-13.5 -8t-7.5 -43q-8 -49 -37.5 -65.5t-105.5 -14.5v361q0 23 -2 29t-14 6q-14 0 -30 -12.5t-42 -41.5q-86 -88 -171 -176 t-167 -180v-31zM866 270q27 29 61 65t68.5 71.5t69.5 69.5t63 61q0 -16 -1 -54.5t-2 -81.5t-2 -79.5t-1 -51.5h-256z" />
<glyph unicode="&#xbf;" horiz-adv-x="874" d="M123 -121q0 -80 31.5 -149.5t86 -121.5t125 -83t150.5 -31q31 0 74 6t83 22.5t67.5 45.5t27.5 76q0 51 -29.5 71.5t-58.5 20.5q-33 0 -58.5 -23.5t-25.5 -68.5q0 -4 2 -24.5t2 -27.5q0 -23 -11 -35t-26.5 -18t-31 -7t-23.5 -1q-41 0 -82 18.5t-76 56.5t-56.5 94 t-21.5 130q0 59 16.5 120.5t47.5 112t73 82t93 31.5q53 0 95 -28.5t89 -65.5q2 35 3 83t2 101t1 109v106q0 16 -3 21.5t-19 5.5q-20 0 -23.5 -7t-3.5 -26q0 -20 -2 -61t-5 -87t-5 -88t-4 -63q-29 18 -71 37.5t-107 19.5q-66 0 -125.5 -26.5t-103.5 -74.5t-70.5 -112.5 t-26.5 -140.5zM553 752q0 -41 28.5 -70t69.5 -29t70 29t29 70t-29 69.5t-70 28.5t-69.5 -28.5t-28.5 -69.5z" />
<glyph unicode="&#xc0;" horiz-adv-x="1409" d="M6 8q0 -14 11.5 -16t15.5 -2q12 0 45 1t69 5q37 2 70 3t47 1q10 0 37 -1t57 -3q31 -4 59.5 -5t39.5 -1q12 6 12 14q0 16 -13.5 19.5t-23.5 3.5q-59 4 -106 37.5t-47 89.5q0 20 5 47.5t16 67.5t31.5 96.5t51.5 138.5q41 0 105.5 1t132 2t129.5 1h98q10 -33 28.5 -82 t30.5 -88q6 -20 16.5 -50t19.5 -61.5t16.5 -60.5t7.5 -43q0 -29 -12.5 -47.5t-30 -28.5t-35 -14t-27.5 -4q-47 -4 -57 -7.5t-10 -13.5q0 -14 9 -16t13 -2q18 0 57 2t84 4q47 2 89.5 3t58.5 1q14 0 48 -1t75 -3t75.5 -4t49.5 -2q6 0 11 2t5 12q0 18 -33 21q-39 4 -69.5 15 t-59 48t-61.5 108.5t-78 196.5q-33 90 -78 217t-95 260.5t-100.5 258t-90.5 210.5h-48q-35 -76 -67.5 -151.5t-61 -147t-53 -134t-41.5 -111.5q-25 -72 -43 -121t-37.5 -102.5t-47 -126t-70.5 -191.5q-10 -29 -25.5 -65.5t-39.5 -70.5t-56.5 -59.5t-79.5 -31.5 q-10 0 -19.5 -4.5t-9.5 -14.5zM401 565q47 141 99 278.5t118 272.5q8 -23 24.5 -65.5t38 -97t45.5 -115t44.5 -114.5t35.5 -96t23 -63q-16 0 -55 1t-84 1q-43 0 -82 1t-53 1q-41 0 -81 -1t-73 -3zM465 1728q0 -29 22.5 -56.5t76.5 -68.5l237 -180q4 -4 15.5 -11t17.5 -7 q4 0 9 4t5 8q0 6 -5 13t-23 36l-156 217q-33 45 -61.5 77t-71.5 32q-35 0 -50.5 -22.5t-15.5 -41.5z" />
<glyph unicode="&#xc1;" horiz-adv-x="1409" d="M6 8q0 -14 11.5 -16t15.5 -2q12 0 45 1t69 5q37 2 70 3t47 1q10 0 37 -1t57 -3q31 -4 59.5 -5t39.5 -1q12 6 12 14q0 16 -13.5 19.5t-23.5 3.5q-59 4 -106 37.5t-47 89.5q0 20 5 47.5t16 67.5t31.5 96.5t51.5 138.5q41 0 105.5 1t132 2t129.5 1h98q10 -33 28.5 -82 t30.5 -88q6 -20 16.5 -50t19.5 -61.5t16.5 -60.5t7.5 -43q0 -29 -12.5 -47.5t-30 -28.5t-35 -14t-27.5 -4q-47 -4 -57 -7.5t-10 -13.5q0 -14 9 -16t13 -2q18 0 57 2t84 4q47 2 89.5 3t58.5 1q14 0 48 -1t75 -3t75.5 -4t49.5 -2q6 0 11 2t5 12q0 18 -33 21q-39 4 -69.5 15 t-59 48t-61.5 108.5t-78 196.5q-33 90 -78 217t-95 260.5t-100.5 258t-90.5 210.5h-48q-35 -76 -67.5 -151.5t-61 -147t-53 -134t-41.5 -111.5q-25 -72 -43 -121t-37.5 -102.5t-47 -126t-70.5 -191.5q-10 -29 -25.5 -65.5t-39.5 -70.5t-56.5 -59.5t-79.5 -31.5 q-10 0 -19.5 -4.5t-9.5 -14.5zM401 565q47 141 99 278.5t118 272.5q8 -23 24.5 -65.5t38 -97t45.5 -115t44.5 -114.5t35.5 -96t23 -63q-16 0 -55 1t-84 1q-43 0 -82 1t-53 1q-41 0 -81 -1t-73 -3zM564 1417q0 -4 5 -8t9 -4q6 0 17.5 7t15.5 11l237 180q53 41 76 69t23 56 q0 18 -15.5 41t-50.5 23q-43 0 -71.5 -32t-61.5 -77l-156 -217q-20 -29 -24 -36t-4 -13z" />
<glyph unicode="&#xc2;" horiz-adv-x="1409" d="M6 8q0 -14 11.5 -16t15.5 -2q12 0 45 1t69 5q37 2 70 3t47 1q10 0 37 -1t57 -3q31 -4 59.5 -5t39.5 -1q12 6 12 14q0 16 -13.5 19.5t-23.5 3.5q-59 4 -106 37.5t-47 89.5q0 20 5 47.5t16 67.5t31.5 96.5t51.5 138.5q41 0 105.5 1t132 2t129.5 1h98q10 -33 28.5 -82 t30.5 -88q6 -20 16.5 -50t19.5 -61.5t16.5 -60.5t7.5 -43q0 -29 -12.5 -47.5t-30 -28.5t-35 -14t-27.5 -4q-47 -4 -57 -7.5t-10 -13.5q0 -14 9 -16t13 -2q18 0 57 2t84 4q47 2 89.5 3t58.5 1q14 0 48 -1t75 -3t75.5 -4t49.5 -2q6 0 11 2t5 12q0 18 -33 21q-39 4 -69.5 15 t-59 48t-61.5 108.5t-78 196.5q-33 90 -78 217t-95 260.5t-100.5 258t-90.5 210.5h-48q-35 -76 -67.5 -151.5t-61 -147t-53 -134t-41.5 -111.5q-25 -72 -43 -121t-37.5 -102.5t-47 -126t-70.5 -191.5q-10 -29 -25.5 -65.5t-39.5 -70.5t-56.5 -59.5t-79.5 -31.5 q-10 0 -19.5 -4.5t-9.5 -14.5zM401 565q47 141 99 278.5t118 272.5q8 -23 24.5 -65.5t38 -97t45.5 -115t44.5 -114.5t35.5 -96t23 -63q-16 0 -55 1t-84 1q-43 0 -82 1t-53 1q-41 0 -81 -1t-73 -3zM445 1435q0 -4 3 -9t13 -5q6 0 21.5 15.5l25.5 25.5l199 205l217 -225 q18 -20 29 -21q14 0 14 16q0 4 -9 21.5t-15 30.5l-183 325h-110l-176 -317q-20 -37 -24.5 -45t-4.5 -17z" />
<glyph unicode="&#xc3;" horiz-adv-x="1409" d="M6 8q0 -14 11.5 -16t15.5 -2q12 0 45 1t69 5q37 2 70 3t47 1q10 0 37 -1t57 -3q31 -4 59.5 -5t39.5 -1q12 6 12 14q0 16 -13.5 19.5t-23.5 3.5q-59 4 -106 37.5t-47 89.5q0 20 5 47.5t16 67.5t31.5 96.5t51.5 138.5q41 0 105.5 1t132 2t129.5 1h98q10 -33 28.5 -82 t30.5 -88q6 -20 16.5 -50t19.5 -61.5t16.5 -60.5t7.5 -43q0 -29 -12.5 -47.5t-30 -28.5t-35 -14t-27.5 -4q-47 -4 -57 -7.5t-10 -13.5q0 -14 9 -16t13 -2q18 0 57 2t84 4q47 2 89.5 3t58.5 1q14 0 48 -1t75 -3t75.5 -4t49.5 -2q6 0 11 2t5 12q0 18 -33 21q-39 4 -69.5 15 t-59 48t-61.5 108.5t-78 196.5q-33 90 -78 217t-95 260.5t-100.5 258t-90.5 210.5h-48q-35 -76 -67.5 -151.5t-61 -147t-53 -134t-41.5 -111.5q-25 -72 -43 -121t-37.5 -102.5t-47 -126t-70.5 -191.5q-10 -29 -25.5 -65.5t-39.5 -70.5t-56.5 -59.5t-79.5 -31.5 q-10 0 -19.5 -4.5t-9.5 -14.5zM401 565q47 141 99 278.5t118 272.5q8 -23 24.5 -65.5t38 -97t45.5 -115t44.5 -114.5t35.5 -96t23 -63q-16 0 -55 1t-84 1q-43 0 -82 1t-53 1q-41 0 -81 -1t-73 -3zM435 1435q0 -16 20 -16q16 0 19.5 4t5.5 21q4 29 30.5 50t61.5 21 q23 0 40 -7t34 -17q39 -25 63.5 -39.5t40.5 -21.5t29.5 -9t31.5 -2q43 0 75 19.5t51.5 50t29.5 66.5t10 69q0 12 -2 15t-12 3q-23 0 -27 -2t-6 -12q-4 -35 -28.5 -55.5t-59.5 -20.5q-20 0 -47 8.5t-74 38.5q-49 31 -74.5 38t-45.5 7q-55 0 -89 -30.5t-50.5 -68.5 t-21.5 -70.5t-5 -39.5z" />
<glyph unicode="&#xc4;" horiz-adv-x="1409" d="M6 8q0 -14 11.5 -16t15.5 -2q12 0 45 1t69 5q37 2 70 3t47 1q10 0 37 -1t57 -3q31 -4 59.5 -5t39.5 -1q12 6 12 14q0 16 -13.5 19.5t-23.5 3.5q-59 4 -106 37.5t-47 89.5q0 20 5 47.5t16 67.5t31.5 96.5t51.5 138.5q41 0 105.5 1t132 2t129.5 1h98q10 -33 28.5 -82 t30.5 -88q6 -20 16.5 -50t19.5 -61.5t16.5 -60.5t7.5 -43q0 -29 -12.5 -47.5t-30 -28.5t-35 -14t-27.5 -4q-47 -4 -57 -7.5t-10 -13.5q0 -14 9 -16t13 -2q18 0 57 2t84 4q47 2 89.5 3t58.5 1q14 0 48 -1t75 -3t75.5 -4t49.5 -2q6 0 11 2t5 12q0 18 -33 21q-39 4 -69.5 15 t-59 48t-61.5 108.5t-78 196.5q-33 90 -78 217t-95 260.5t-100.5 258t-90.5 210.5h-48q-35 -76 -67.5 -151.5t-61 -147t-53 -134t-41.5 -111.5q-25 -72 -43 -121t-37.5 -102.5t-47 -126t-70.5 -191.5q-10 -29 -25.5 -65.5t-39.5 -70.5t-56.5 -59.5t-79.5 -31.5 q-10 0 -19.5 -4.5t-9.5 -14.5zM401 565q47 141 99 278.5t118 272.5q8 -23 24.5 -65.5t38 -97t45.5 -115t44.5 -114.5t35.5 -96t23 -63q-16 0 -55 1t-84 1q-43 0 -82 1t-53 1q-41 0 -81 -1t-73 -3zM424 1538q0 -41 28 -66.5t65 -25.5t64.5 25.5t27.5 66.5t-27.5 66.5 t-64.5 25.5q-35 0 -64 -25.5t-29 -66.5zM803 1538q0 -41 28 -66.5t64 -25.5q37 0 65 25.5t28 66.5t-29 66.5t-64 25.5q-37 0 -64.5 -25.5t-27.5 -66.5z" />
<glyph unicode="&#xc5;" horiz-adv-x="1409" d="M6 8q0 -14 11.5 -16t15.5 -2q12 0 45 1t69 5q37 2 70 3t47 1q10 0 37 -1t57 -3q31 -4 59.5 -5t39.5 -1q12 6 12 14q0 16 -13.5 19.5t-23.5 3.5q-59 4 -106 37.5t-47 89.5q0 20 5 47.5t16 67.5t31.5 96.5t51.5 138.5q41 0 105.5 1t132 2t129.5 1h98q10 -33 28.5 -82 t30.5 -88q6 -20 16.5 -50t19.5 -61.5t16.5 -60.5t7.5 -43q0 -29 -12.5 -47.5t-30 -28.5t-35 -14t-27.5 -4q-47 -4 -57 -7.5t-10 -13.5q0 -14 9 -16t13 -2q18 0 57 2t84 4q47 2 89.5 3t58.5 1q14 0 48 -1t75 -3t75.5 -4t49.5 -2q6 0 11 2t5 12q0 18 -33 21q-39 4 -69.5 15 t-59 48t-61.5 108.5t-78 196.5q-33 90 -78 217t-95 260.5t-100.5 258t-90.5 210.5h-48q-35 -76 -67.5 -151.5t-61 -147t-53 -134t-41.5 -111.5q-25 -72 -43 -121t-37.5 -102.5t-47 -126t-70.5 -191.5q-10 -29 -25.5 -65.5t-39.5 -70.5t-56.5 -59.5t-79.5 -31.5 q-10 0 -19.5 -4.5t-9.5 -14.5zM401 565q47 141 99 278.5t118 272.5q8 -23 24.5 -65.5t38 -97t45.5 -115t44.5 -114.5t35.5 -96t23 -63q-16 0 -55 1t-84 1q-43 0 -82 1t-53 1q-41 0 -81 -1t-73 -3zM504 1601q0 -66 47 -113.5t113 -47.5q68 0 115 48t47 113q0 66 -47 114 t-115 48q-66 0 -113 -47t-47 -115zM566 1601q0 41 28.5 71t69.5 30q43 0 71.5 -30t28.5 -71t-29.5 -70.5t-70.5 -29.5q-39 0 -68.5 29.5t-29.5 70.5z" />
<glyph unicode="&#xc6;" horiz-adv-x="2091" d="M18 10q0 -14 14.5 -16t22.5 -2t33 2t53 4q29 0 56.5 1t38.5 1h51t80 -2q41 -2 78.5 -5t54.5 -3q8 0 19 3t11 17q0 12 -12 14.5t-18 4.5q-66 0 -103 24.5t-37 83.5q0 45 18.5 102.5t50.5 123t74 138t87 150.5h438q0 -49 1 -103t1 -110q0 -55 -2 -106t-4 -90q-4 -39 -9 -77 t-20.5 -68.5t-44 -49t-78.5 -18.5q-8 0 -22 -3t-14 -18q0 -8 10 -13t22 -5l277 10l325 -6h277q61 0 98 -1t58.5 -2t31.5 -1h23q2 8 2 16q0 10 3 27.5t9 47.5t19 77q2 8 8 31.5t12 48t11.5 46t5.5 27.5q0 20 -19 21q-10 0 -13 -5t-16 -28q-41 -74 -88 -124t-107.5 -81 t-136 -44t-169.5 -13q-14 0 -53.5 2t-81 11t-78.5 30.5t-49 60.5q-8 25 -12.5 64t-6.5 81t-2 81v69v84t4 137q86 0 148.5 -5t107.5 -27q33 -18 54.5 -38t35 -43.5t21.5 -50t14 -57.5q6 -29 23 -28q10 0 13 10t3 20q0 4 -2 13q0 16 -1 32.5t-2 40t-2 56t-1 82.5q0 18 1 55 t1 90q0 6 1 18.5t2 26.5t2 26.5t1 18.5q0 8 -2 17.5t-12 9.5t-15 -6q-2 -4 -6 -13.5t-9 -21t-8 -21.5t-5 -14q-27 -55 -58.5 -86t-75 -44t-98.5 -15.5t-131 -0.5v127q0 74 2 150t4 146.5t6 123.5q16 2 33 5t38.5 6.5t50 4.5t69.5 1q106 0 182 -13.5t134.5 -45t105.5 -83 t96 -125.5q10 -16 21 -16q18 0 18 21q0 10 -11.5 53t-25.5 94t-28.5 97t-18.5 61h-1286q-14 0 -27.5 -2t-13.5 -17q0 -14 14.5 -16t32.5 -4q29 0 59.5 -3t56 -12.5t42 -27t16.5 -45.5q0 -16 -6 -37t-13.5 -42.5t-15.5 -38.5t-12 -26q-53 -106 -147.5 -285.5t-219.5 -402.5 q-29 -51 -61.5 -105.5t-70.5 -101.5t-82 -78.5t-95 -35.5q-29 -2 -29 -19zM614 713q35 74 69 142.5t64.5 125.5t54 100t36.5 66q8 12 18 30.5t23.5 34t29 26.5t31.5 11q23 0 36 -10t23 -37q10 -25 16.5 -75t9.5 -115.5t3 -143.5v-155q-25 -2 -84 -2h-125t-124 1t-81 1z" />
<glyph unicode="&#xc7;" horiz-adv-x="1323" d="M98 645q0 -166 57.5 -291t149.5 -210t209 -128t234 -43q-10 -23 -34 -62.5t-55 -86.5q39 -2 62.5 -14.5t35 -27.5t14.5 -29.5t3 -20.5q0 -43 -24.5 -65.5t-58.5 -33t-70.5 -12.5t-61.5 -2q-8 0 -20.5 -2t-12.5 -18t18.5 -19.5t53.5 -3.5q115 0 181.5 26.5t99 60.5 t41 67.5t8.5 50.5q0 47 -38 91t-122 52l20 51q133 10 227.5 62.5t154 113t87 110.5t27.5 58q0 16 -8 20.5t-14 4.5q-14 0 -31 -31q-12 -25 -45 -69.5t-84 -91t-121 -80t-158 -33.5q-84 0 -173 41t-162.5 121t-121 199.5t-47.5 277.5q0 123 31 234.5t87.5 195.5t137 134 t183.5 50q78 0 146.5 -31.5t123.5 -82t98 -115t72 -131.5q10 -23 16.5 -34t18.5 -11q16 0 17 13t-1 32l-22 348q0 16 -3 25.5t-20 9.5q-6 0 -13 -3t-11 -9q-4 -10 -8.5 -17.5t-11.5 -15.5t-18.5 -18.5t-29.5 -26.5q-27 14 -64.5 34.5t-83.5 37t-101.5 28.5t-117.5 12 q-111 0 -226.5 -43t-208.5 -130t-152.5 -217t-59.5 -302z" />
<glyph unicode="&#xc8;" horiz-adv-x="1343" d="M57 16q0 -10 9.5 -13t19.5 -3h246q90 0 200.5 -2t227.5 -6t229.5 -5t206.5 1q2 12 14.5 60t24.5 103.5t22.5 101.5t10.5 54q0 4 -3 13.5t-14 9.5q-10 0 -18 -14.5t-10 -20.5q-39 -90 -101.5 -142.5t-133 -78t-142.5 -32.5t-127 -7q-18 0 -52 1t-69 8t-68.5 21.5 t-52.5 40.5q-10 14 -17 32t-11.5 54.5t-6.5 102t-2 174.5v111t2 75q86 0 151.5 -6t112 -29.5t75 -67.5t42.5 -118q0 -8 4 -16t15 -8q12 0 15 12t3 18q0 8 -1 36t-3 38q-2 41 -2 80v76q0 18 1 43.5t1 60.5q0 6 2 25.5t3 39t3 35.5l2 17q0 10 -4 20.5t-14 10.5 q-8 0 -12.5 -7.5t-8.5 -15.5q-20 -59 -41.5 -97t-53.5 -60.5t-76 -32t-109 -9.5q-23 0 -58.5 2.5t-46.5 2.5q-2 31 -1 90t2 124.5t3.5 127t2.5 96.5q0 4 1 17.5t2 28.5t3 28.5t6 19.5q53 10 114.5 13t116.5 3q61 0 120.5 -2t116 -23.5t113 -71.5t111.5 -146q20 -35 31 -35 q4 0 12 8q-10 68 -18.5 117t-15.5 85t-12 62.5t-11 48.5h-854q-10 0 -35 2t-53 5q-29 4 -51.5 5t-26.5 1t-19.5 -2t-15.5 -17q0 -10 9 -15t18 -7q53 -14 90 -30.5t51 -55.5q4 -12 8 -67.5t7 -122t4 -128t1 -86.5l-4 -190q-4 -186 -4 -307q0 -119 -22 -172 q-8 -23 -25.5 -36.5t-39 -21.5t-45 -11t-44.5 -3q-8 0 -19.5 -4t-11.5 -17zM432 1728q0 -29 22.5 -56.5t76.5 -68.5l237 -180q4 -4 15.5 -11t17.5 -7q4 0 9 4t5 8q0 6 -5 13t-23 36l-156 217q-33 45 -61.5 77t-71.5 32q-35 0 -50.5 -22.5t-15.5 -41.5z" />
<glyph unicode="&#xc9;" horiz-adv-x="1343" d="M57 16q0 -10 9.5 -13t19.5 -3h246q90 0 200.5 -2t227.5 -6t229.5 -5t206.5 1q2 12 14.5 60t24.5 103.5t22.5 101.5t10.5 54q0 4 -3 13.5t-14 9.5q-10 0 -18 -14.5t-10 -20.5q-39 -90 -101.5 -142.5t-133 -78t-142.5 -32.5t-127 -7q-18 0 -52 1t-69 8t-68.5 21.5 t-52.5 40.5q-10 14 -17 32t-11.5 54.5t-6.5 102t-2 174.5v111t2 75q86 0 151.5 -6t112 -29.5t75 -67.5t42.5 -118q0 -8 4 -16t15 -8q12 0 15 12t3 18q0 8 -1 36t-3 38q-2 41 -2 80v76q0 18 1 43.5t1 60.5q0 6 2 25.5t3 39t3 35.5l2 17q0 10 -4 20.5t-14 10.5 q-8 0 -12.5 -7.5t-8.5 -15.5q-20 -59 -41.5 -97t-53.5 -60.5t-76 -32t-109 -9.5q-23 0 -58.5 2.5t-46.5 2.5q-2 31 -1 90t2 124.5t3.5 127t2.5 96.5q0 4 1 17.5t2 28.5t3 28.5t6 19.5q53 10 114.5 13t116.5 3q61 0 120.5 -2t116 -23.5t113 -71.5t111.5 -146q20 -35 31 -35 q4 0 12 8q-10 68 -18.5 117t-15.5 85t-12 62.5t-11 48.5h-854q-10 0 -35 2t-53 5q-29 4 -51.5 5t-26.5 1t-19.5 -2t-15.5 -17q0 -10 9 -15t18 -7q53 -14 90 -30.5t51 -55.5q4 -12 8 -67.5t7 -122t4 -128t1 -86.5l-4 -190q-4 -186 -4 -307q0 -119 -22 -172 q-8 -23 -25.5 -36.5t-39 -21.5t-45 -11t-44.5 -3q-8 0 -19.5 -4t-11.5 -17zM531 1417q0 -4 5 -8t9 -4q6 0 17.5 7t15.5 11l237 180q53 41 76 69t23 56q0 18 -15.5 41t-50.5 23q-43 0 -71.5 -32t-61.5 -77l-156 -217q-20 -29 -24 -36t-4 -13z" />
<glyph unicode="&#xca;" horiz-adv-x="1343" d="M57 16q0 -10 9.5 -13t19.5 -3h246q90 0 200.5 -2t227.5 -6t229.5 -5t206.5 1q2 12 14.5 60t24.5 103.5t22.5 101.5t10.5 54q0 4 -3 13.5t-14 9.5q-10 0 -18 -14.5t-10 -20.5q-39 -90 -101.5 -142.5t-133 -78t-142.5 -32.5t-127 -7q-18 0 -52 1t-69 8t-68.5 21.5 t-52.5 40.5q-10 14 -17 32t-11.5 54.5t-6.5 102t-2 174.5v111t2 75q86 0 151.5 -6t112 -29.5t75 -67.5t42.5 -118q0 -8 4 -16t15 -8q12 0 15 12t3 18q0 8 -1 36t-3 38q-2 41 -2 80v76q0 18 1 43.5t1 60.5q0 6 2 25.5t3 39t3 35.5l2 17q0 10 -4 20.5t-14 10.5 q-8 0 -12.5 -7.5t-8.5 -15.5q-20 -59 -41.5 -97t-53.5 -60.5t-76 -32t-109 -9.5q-23 0 -58.5 2.5t-46.5 2.5q-2 31 -1 90t2 124.5t3.5 127t2.5 96.5q0 4 1 17.5t2 28.5t3 28.5t6 19.5q53 10 114.5 13t116.5 3q61 0 120.5 -2t116 -23.5t113 -71.5t111.5 -146q20 -35 31 -35 q4 0 12 8q-10 68 -18.5 117t-15.5 85t-12 62.5t-11 48.5h-854q-10 0 -35 2t-53 5q-29 4 -51.5 5t-26.5 1t-19.5 -2t-15.5 -17q0 -10 9 -15t18 -7q53 -14 90 -30.5t51 -55.5q4 -12 8 -67.5t7 -122t4 -128t1 -86.5l-4 -190q-4 -186 -4 -307q0 -119 -22 -172 q-8 -23 -25.5 -36.5t-39 -21.5t-45 -11t-44.5 -3q-8 0 -19.5 -4t-11.5 -17zM412 1435q0 -4 3 -9t13 -5q6 0 21.5 15.5l25.5 25.5l199 205l217 -225q18 -20 29 -21q14 0 14 16q0 4 -9 21.5t-15 30.5l-183 325h-110l-176 -317q-20 -37 -24.5 -45t-4.5 -17z" />
<glyph unicode="&#xcb;" horiz-adv-x="1343" d="M57 16q0 -10 9.5 -13t19.5 -3h246q90 0 200.5 -2t227.5 -6t229.5 -5t206.5 1q2 12 14.5 60t24.5 103.5t22.5 101.5t10.5 54q0 4 -3 13.5t-14 9.5q-10 0 -18 -14.5t-10 -20.5q-39 -90 -101.5 -142.5t-133 -78t-142.5 -32.5t-127 -7q-18 0 -52 1t-69 8t-68.5 21.5 t-52.5 40.5q-10 14 -17 32t-11.5 54.5t-6.5 102t-2 174.5v111t2 75q86 0 151.5 -6t112 -29.5t75 -67.5t42.5 -118q0 -8 4 -16t15 -8q12 0 15 12t3 18q0 8 -1 36t-3 38q-2 41 -2 80v76q0 18 1 43.5t1 60.5q0 6 2 25.5t3 39t3 35.5l2 17q0 10 -4 20.5t-14 10.5 q-8 0 -12.5 -7.5t-8.5 -15.5q-20 -59 -41.5 -97t-53.5 -60.5t-76 -32t-109 -9.5q-23 0 -58.5 2.5t-46.5 2.5q-2 31 -1 90t2 124.5t3.5 127t2.5 96.5q0 4 1 17.5t2 28.5t3 28.5t6 19.5q53 10 114.5 13t116.5 3q61 0 120.5 -2t116 -23.5t113 -71.5t111.5 -146q20 -35 31 -35 q4 0 12 8q-10 68 -18.5 117t-15.5 85t-12 62.5t-11 48.5h-854q-10 0 -35 2t-53 5q-29 4 -51.5 5t-26.5 1t-19.5 -2t-15.5 -17q0 -10 9 -15t18 -7q53 -14 90 -30.5t51 -55.5q4 -12 8 -67.5t7 -122t4 -128t1 -86.5l-4 -190q-4 -186 -4 -307q0 -119 -22 -172 q-8 -23 -25.5 -36.5t-39 -21.5t-45 -11t-44.5 -3q-8 0 -19.5 -4t-11.5 -17zM391 1538q0 -41 28 -66.5t65 -25.5t64.5 25.5t27.5 66.5t-27.5 66.5t-64.5 25.5q-35 0 -64 -25.5t-29 -66.5zM770 1538q0 -41 28 -66.5t64 -25.5q37 0 65 25.5t28 66.5t-29 66.5t-64 25.5 q-37 0 -64.5 -25.5t-27.5 -66.5z" />
<glyph unicode="&#xcc;" horiz-adv-x="768" d="M119 1300q0 -18 26 -22q59 -10 83 -31.5t34 -56.5q6 -23 10 -75t7.5 -119.5t4.5 -144.5t2 -147.5t1 -130.5v-90v-82q0 -51 -2 -107t-4 -105.5t-7 -71.5q-10 -55 -47 -66.5t-65 -11.5q-6 0 -17.5 -3t-11.5 -20q0 -18 23 -18q6 -2 36.5 -1t53.5 3l381 -2q10 0 17 4t7 14 t-10 14.5t-16 4.5q-23 2 -46.5 7t-44 17.5t-36 34t-21.5 60.5q-4 25 -7 95t-6 155t-4 167t-1 125v111t2 132.5t5 127.5t9 100q10 61 50 83t98 30q4 2 16 5t12 13q0 16 -17.5 18.5t-33.5 2.5t-57 -1t-88 -1t-89 -1t-61 -1q-8 0 -31.5 1t-50.5 1t-50 1t-34 1q-4 0 -12 -2 t-8 -17zM143 1728q0 -29 22.5 -56.5t76.5 -68.5l237 -180q4 -4 15.5 -11t17.5 -7q4 0 9 4t5 8q0 6 -5 13t-23 36l-156 217q-33 45 -61.5 77t-71.5 32q-35 0 -50.5 -22.5t-15.5 -41.5z" />
<glyph unicode="&#xcd;" horiz-adv-x="768" d="M119 1300q0 -18 26 -22q59 -10 83 -31.5t34 -56.5q6 -23 10 -75t7.5 -119.5t4.5 -144.5t2 -147.5t1 -130.5v-90v-82q0 -51 -2 -107t-4 -105.5t-7 -71.5q-10 -55 -47 -66.5t-65 -11.5q-6 0 -17.5 -3t-11.5 -20q0 -18 23 -18q6 -2 36.5 -1t53.5 3l381 -2q10 0 17 4t7 14 t-10 14.5t-16 4.5q-23 2 -46.5 7t-44 17.5t-36 34t-21.5 60.5q-4 25 -7 95t-6 155t-4 167t-1 125v111t2 132.5t5 127.5t9 100q10 61 50 83t98 30q4 2 16 5t12 13q0 16 -17.5 18.5t-33.5 2.5t-57 -1t-88 -1t-89 -1t-61 -1q-8 0 -31.5 1t-50.5 1t-50 1t-34 1q-4 0 -12 -2 t-8 -17zM242 1417q0 -4 5 -8t9 -4q6 0 17.5 7t15.5 11l237 180q53 41 76 69t23 56q0 18 -15.5 41t-50.5 23q-43 0 -71.5 -32t-61.5 -77l-156 -217q-20 -29 -24 -36t-4 -13z" />
<glyph unicode="&#xce;" horiz-adv-x="768" d="M119 1300q0 -18 26 -22q59 -10 83 -31.5t34 -56.5q6 -23 10 -75t7.5 -119.5t4.5 -144.5t2 -147.5t1 -130.5v-90v-82q0 -51 -2 -107t-4 -105.5t-7 -71.5q-10 -55 -47 -66.5t-65 -11.5q-6 0 -17.5 -3t-11.5 -20q0 -18 23 -18q6 -2 36.5 -1t53.5 3l381 -2q10 0 17 4t7 14 t-10 14.5t-16 4.5q-23 2 -46.5 7t-44 17.5t-36 34t-21.5 60.5q-4 25 -7 95t-6 155t-4 167t-1 125v111t2 132.5t5 127.5t9 100q10 61 50 83t98 30q4 2 16 5t12 13q0 16 -17.5 18.5t-33.5 2.5t-57 -1t-88 -1t-89 -1t-61 -1q-8 0 -31.5 1t-50.5 1t-50 1t-34 1q-4 0 -12 -2 t-8 -17zM123 1435q0 -4 3 -9t13 -5q6 0 21.5 15.5l25.5 25.5l199 205l217 -225q18 -20 29 -21q14 0 14 16q0 4 -9 21.5t-15 30.5l-183 325h-110l-176 -317q-20 -37 -24.5 -45t-4.5 -17z" />
<glyph unicode="&#xcf;" horiz-adv-x="768" d="M102 1538q0 -41 28 -66.5t65 -25.5t64.5 25.5t27.5 66.5t-27.5 66.5t-64.5 25.5q-35 0 -64 -25.5t-29 -66.5zM119 1300q0 -18 26 -22q59 -10 83 -31.5t34 -56.5q6 -23 10 -75t7.5 -119.5t4.5 -144.5t2 -147.5t1 -130.5v-90v-82q0 -51 -2 -107t-4 -105.5t-7 -71.5 q-10 -55 -47 -66.5t-65 -11.5q-6 0 -17.5 -3t-11.5 -20q0 -18 23 -18q6 -2 36.5 -1t53.5 3l381 -2q10 0 17 4t7 14t-10 14.5t-16 4.5q-23 2 -46.5 7t-44 17.5t-36 34t-21.5 60.5q-4 25 -7 95t-6 155t-4 167t-1 125v111t2 132.5t5 127.5t9 100q10 61 50 83t98 30q4 2 16 5 t12 13q0 16 -17.5 18.5t-33.5 2.5t-57 -1t-88 -1t-89 -1t-61 -1q-8 0 -31.5 1t-50.5 1t-50 1t-34 1q-4 0 -12 -2t-8 -17zM481 1538q0 -41 28 -66.5t64 -25.5q37 0 65 25.5t28 66.5t-29 66.5t-64 25.5q-37 0 -64.5 -25.5t-27.5 -66.5z" />
<glyph unicode="&#xd0;" horiz-adv-x="1556" d="M27 6q0 -12 10 -14t14 -2l58 4q18 2 61 3t93 2t95 1h70q18 0 63.5 -2t98.5 -6t99 -7t67 -3q86 0 154.5 10t120.5 25.5t92 36t69 40.5q133 94 204.5 238.5t71.5 306.5q0 59 -12 133t-45 149.5t-89 146.5t-143 125t-211 87t-290 31l-205 -2h-74t-58.5 1t-65 4t-95.5 7 q-6 2 -27.5 3t-27.5 1q-12 0 -16.5 -7t-4.5 -13q0 -16 17 -21q51 -8 69.5 -13t40.5 -24q16 -14 26.5 -52t16 -83t7.5 -87t2 -64q0 -6 -1 -35t-2 -69t-2.5 -86t-3.5 -87h-170v-57h168q-2 -63 -3 -129t-4 -126.5t-6 -107.5t-7 -74q-8 -51 -21.5 -80.5t-35 -46t-51 -22.5 t-72.5 -12q-25 -4 -35 -7.5t-10 -15.5zM436 342q0 35 1 78t2 83t2 73.5t1 50.5h394v57h-392q0 33 3.5 90t6.5 116.5t6 109t5 65.5q0 10 1 33.5t3 49.5t3 47.5t1 27.5q2 14 5 22t20.5 12.5t53.5 6.5t101 2q106 0 201.5 -23.5t179.5 -95.5q109 -96 161 -227.5t52 -276.5 q0 -72 -21.5 -176.5t-80 -202.5t-163.5 -167.5t-271 -69.5q-102 0 -158.5 24.5t-82.5 67.5t-30 100t-4 123z" />
<glyph unicode="&#xd1;" horiz-adv-x="1536" d="M29 1284q0 -10 14 -13t20 -3q33 -4 58.5 -19.5t42.5 -31.5q43 -43 67.5 -83t37 -74t15.5 -62.5t3 -53.5q2 -66 4 -145.5t4 -163.5t3 -165t1 -144q0 -68 -4 -122t-23.5 -93t-60.5 -60.5t-117 -21.5q-10 0 -21.5 -4.5t-11.5 -16.5q0 -10 13.5 -13t21.5 -3q10 0 36 2t59.5 3 t73.5 2t79 1q80 0 145.5 -4t88.5 -6q10 0 23 2t13 16t-12 19q-6 2 -20.5 5t-30.5 7t-30.5 7t-20.5 5q-41 14 -65.5 38t-37 50.5t-17.5 52t-7 46.5q-6 49 -11.5 105t-9.5 138t-7 200t-3 288q0 16 1 27.5t11 11.5q4 0 12.5 -7.5t18.5 -23.5q8 -16 29.5 -42t46 -53.5t50.5 -55 t44 -48.5q14 -16 36.5 -41.5t48.5 -56.5t52.5 -63.5t50.5 -61.5q16 -18 51 -59t79.5 -92.5t93.5 -108.5t94 -109.5t80 -94.5t53 -62l17.5 -17.5t21.5 -11.5q14 0 17 13.5t3 17.5q8 195 9.5 388t1.5 388q0 135 3 221t22.5 136t61.5 74t119 32q10 0 18.5 4t8.5 14 q0 14 -12 16.5t-21 2.5l-178 -11q-23 -2 -72 0t-99 4.5t-92 3.5t-48 1q-20 -4 -21 -21q0 -12 10.5 -14t28.5 -2q6 0 22.5 -2t40 -10.5t49 -22.5t48.5 -39q20 -23 32.5 -49.5t18.5 -67.5t7 -101.5t1 -152.5v-121q0 -63 -2 -129.5t-4 -131t-4 -117.5q-4 6 -21.5 25.5 t-31.5 33.5l-553 647q-59 68 -93 107t-56.5 65.5t-39 47t-40.5 53.5q-14 0 -48 1t-77 1h-86h-82q-14 0 -29.5 -2.5t-15.5 -18.5zM498 1435q0 -16 20 -16q16 0 19.5 4t5.5 21q4 29 30.5 50t61.5 21q23 0 40 -7t34 -17q39 -25 63.5 -39.5t40.5 -21.5t29.5 -9t31.5 -2 q43 0 75 19.5t51.5 50t29.5 66.5t10 69q0 12 -2 15t-12 3q-23 0 -27 -2t-6 -12q-4 -35 -28.5 -55.5t-59.5 -20.5q-20 0 -47 8.5t-74 38.5q-49 31 -74.5 38t-45.5 7q-55 0 -89 -30.5t-50.5 -68.5t-21.5 -70.5t-5 -39.5z" />
<glyph unicode="&#xd2;" horiz-adv-x="1492" d="M88 664q0 -166 54.5 -294t142.5 -214t201.5 -130t232.5 -44q156 0 281.5 63.5t216 163.5t139.5 225t49 246q0 115 -43 230.5t-125 209.5t-200.5 152.5t-270.5 58.5q-166 0 -293 -68.5t-213 -170t-129 -217t-43 -211.5zM309 696q0 78 23.5 179.5t76 191.5t134.5 152.5 t198 62.5q113 0 196 -57.5t138 -146.5t82 -197.5t27 -210.5q0 -88 -22.5 -199t-75 -209t-135.5 -164.5t-206 -66.5q-92 0 -170.5 44t-123.5 103q-43 57 -71 130t-43 146.5t-21.5 138t-6.5 103.5zM506 1728q0 -29 22.5 -56.5t76.5 -68.5l237 -180q4 -4 15.5 -11t17.5 -7 q4 0 9 4t5 8q0 6 -5 13t-23 36l-156 217q-33 45 -61.5 77t-71.5 32q-35 0 -50.5 -22.5t-15.5 -41.5z" />
<glyph unicode="&#xd3;" horiz-adv-x="1492" d="M88 664q0 -166 54.5 -294t142.5 -214t201.5 -130t232.5 -44q156 0 281.5 63.5t216 163.5t139.5 225t49 246q0 115 -43 230.5t-125 209.5t-200.5 152.5t-270.5 58.5q-166 0 -293 -68.5t-213 -170t-129 -217t-43 -211.5zM309 696q0 78 23.5 179.5t76 191.5t134.5 152.5 t198 62.5q113 0 196 -57.5t138 -146.5t82 -197.5t27 -210.5q0 -88 -22.5 -199t-75 -209t-135.5 -164.5t-206 -66.5q-92 0 -170.5 44t-123.5 103q-43 57 -71 130t-43 146.5t-21.5 138t-6.5 103.5zM605 1417q0 -4 5 -8t9 -4q6 0 17.5 7t15.5 11l237 180q53 41 76 69t23 56 q0 18 -15.5 41t-50.5 23q-43 0 -71.5 -32t-61.5 -77l-156 -217q-20 -29 -24 -36t-4 -13z" />
<glyph unicode="&#xd4;" horiz-adv-x="1492" d="M88 664q0 -166 54.5 -294t142.5 -214t201.5 -130t232.5 -44q156 0 281.5 63.5t216 163.5t139.5 225t49 246q0 115 -43 230.5t-125 209.5t-200.5 152.5t-270.5 58.5q-166 0 -293 -68.5t-213 -170t-129 -217t-43 -211.5zM309 696q0 78 23.5 179.5t76 191.5t134.5 152.5 t198 62.5q113 0 196 -57.5t138 -146.5t82 -197.5t27 -210.5q0 -88 -22.5 -199t-75 -209t-135.5 -164.5t-206 -66.5q-92 0 -170.5 44t-123.5 103q-43 57 -71 130t-43 146.5t-21.5 138t-6.5 103.5zM486 1435q0 -4 3 -9t13 -5q6 0 21.5 15.5l25.5 25.5l199 205l217 -225 q18 -20 29 -21q14 0 14 16q0 4 -9 21.5t-15 30.5l-183 325h-110l-176 -317q-20 -37 -24.5 -45t-4.5 -17z" />
<glyph unicode="&#xd5;" horiz-adv-x="1492" d="M88 664q0 -166 54.5 -294t142.5 -214t201.5 -130t232.5 -44q156 0 281.5 63.5t216 163.5t139.5 225t49 246q0 115 -43 230.5t-125 209.5t-200.5 152.5t-270.5 58.5q-166 0 -293 -68.5t-213 -170t-129 -217t-43 -211.5zM309 696q0 78 23.5 179.5t76 191.5t134.5 152.5 t198 62.5q113 0 196 -57.5t138 -146.5t82 -197.5t27 -210.5q0 -88 -22.5 -199t-75 -209t-135.5 -164.5t-206 -66.5q-92 0 -170.5 44t-123.5 103q-43 57 -71 130t-43 146.5t-21.5 138t-6.5 103.5zM476 1435q0 -16 20 -16q16 0 19.5 4t5.5 21q4 29 30.5 50t61.5 21q23 0 40 -7 t34 -17q39 -25 63.5 -39.5t40.5 -21.5t29.5 -9t31.5 -2q43 0 75 19.5t51.5 50t29.5 66.5t10 69q0 12 -2 15t-12 3q-23 0 -27 -2t-6 -12q-4 -35 -28.5 -55.5t-59.5 -20.5q-20 0 -47 8.5t-74 38.5q-49 31 -74.5 38t-45.5 7q-55 0 -89 -30.5t-50.5 -68.5t-21.5 -70.5t-5 -39.5z " />
<glyph unicode="&#xd6;" horiz-adv-x="1492" d="M88 664q0 -166 54.5 -294t142.5 -214t201.5 -130t232.5 -44q156 0 281.5 63.5t216 163.5t139.5 225t49 246q0 115 -43 230.5t-125 209.5t-200.5 152.5t-270.5 58.5q-166 0 -293 -68.5t-213 -170t-129 -217t-43 -211.5zM309 696q0 78 23.5 179.5t76 191.5t134.5 152.5 t198 62.5q113 0 196 -57.5t138 -146.5t82 -197.5t27 -210.5q0 -88 -22.5 -199t-75 -209t-135.5 -164.5t-206 -66.5q-92 0 -170.5 44t-123.5 103q-43 57 -71 130t-43 146.5t-21.5 138t-6.5 103.5zM465 1538q0 -41 28 -66.5t65 -25.5t64.5 25.5t27.5 66.5t-27.5 66.5 t-64.5 25.5q-35 0 -64 -25.5t-29 -66.5zM844 1538q0 -41 28 -66.5t64 -25.5q37 0 65 25.5t28 66.5t-29 66.5t-64 25.5q-37 0 -64.5 -25.5t-27.5 -66.5z" />
<glyph unicode="&#xd7;" horiz-adv-x="1366" d="M197 1020l426 -428l-424 -420l61 -63l424 421l422 -421l61 63l-422 420l426 428l-61 61l-426 -426l-426 426z" />
<glyph unicode="&#xd8;" horiz-adv-x="1492" d="M88 635q0 -59 11.5 -122.5t36 -126t61 -121t86.5 -107.5l-144 -166l37 -33l146 166q53 -45 106 -72.5t103.5 -43t97.5 -20.5t88 -5q156 0 282.5 63.5t217 162.5t139.5 224t49 248q0 127 -53.5 253t-143.5 216l142 162l-39 33l-140 -162q-57 47 -113.5 76.5t-109.5 45 t-100 20.5t-84 5q-152 0 -277 -62.5t-214 -161.5t-137 -223t-48 -249zM309 672q0 106 28 214.5t82 196.5t135 143.5t187 55.5q76 0 133.5 -24.5t97.5 -58.5t65.5 -68.5t39.5 -57.5l-686 -792q-27 61 -54.5 165.5t-27.5 225.5zM414 231l688 795q39 -78 60.5 -168t21.5 -188 q0 -90 -22.5 -201t-75 -208t-136.5 -163.5t-205 -66.5q-12 0 -50 4t-86 23.5t-100 60.5t-95 112z" />
<glyph unicode="&#xd9;" horiz-adv-x="1556" d="M63 1288q0 -10 7.5 -13t15.5 -3q47 -6 72.5 -13.5t48.5 -29.5q12 -12 22.5 -29.5t17.5 -67t12 -142.5t5 -255q0 -16 -1 -55t-1 -84q0 -43 -1 -82t-1 -55q0 -123 14.5 -190.5t53.5 -121.5q41 -57 103.5 -89.5t127 -50t121.5 -21.5t86 -4q104 0 186 19t143.5 51t102.5 74 t62 89q20 49 32.5 125t18.5 160t8 164.5t2 140.5q0 150 6 239t24.5 137t51.5 65.5t86 25.5q16 4 19 8t3 8q0 14 -9 17.5t-17 3.5h-402q-20 0 -34.5 -2t-14.5 -19q0 -14 13.5 -17t25.5 -3q63 0 101 -31t56.5 -81t24 -116.5t5.5 -140.5q0 -174 -5.5 -322.5t-21.5 -240.5 q-14 -82 -51 -135.5t-89.5 -84t-116 -43t-130.5 -12.5q-41 0 -93.5 7.5t-103.5 27t-95 57t-69 99.5q-14 35 -22 79t-13.5 105.5t-6.5 143.5t-1 190q0 117 3.5 207t16.5 151.5t41.5 95t80.5 42.5q35 6 50 10t15 16t-11 14.5t-32 2.5h-502q-16 0 -28.5 -2t-12.5 -19zM538 1728 q0 -29 22.5 -56.5t76.5 -68.5l237 -180q4 -4 15.5 -11t17.5 -7q4 0 9 4t5 8q0 6 -5 13t-23 36l-156 217q-33 45 -61.5 77t-71.5 32q-35 0 -50.5 -22.5t-15.5 -41.5z" />
<glyph unicode="&#xda;" horiz-adv-x="1556" d="M63 1288q0 -10 7.5 -13t15.5 -3q47 -6 72.5 -13.5t48.5 -29.5q12 -12 22.5 -29.5t17.5 -67t12 -142.5t5 -255q0 -16 -1 -55t-1 -84q0 -43 -1 -82t-1 -55q0 -123 14.5 -190.5t53.5 -121.5q41 -57 103.5 -89.5t127 -50t121.5 -21.5t86 -4q104 0 186 19t143.5 51t102.5 74 t62 89q20 49 32.5 125t18.5 160t8 164.5t2 140.5q0 150 6 239t24.5 137t51.5 65.5t86 25.5q16 4 19 8t3 8q0 14 -9 17.5t-17 3.5h-402q-20 0 -34.5 -2t-14.5 -19q0 -14 13.5 -17t25.5 -3q63 0 101 -31t56.5 -81t24 -116.5t5.5 -140.5q0 -174 -5.5 -322.5t-21.5 -240.5 q-14 -82 -51 -135.5t-89.5 -84t-116 -43t-130.5 -12.5q-41 0 -93.5 7.5t-103.5 27t-95 57t-69 99.5q-14 35 -22 79t-13.5 105.5t-6.5 143.5t-1 190q0 117 3.5 207t16.5 151.5t41.5 95t80.5 42.5q35 6 50 10t15 16t-11 14.5t-32 2.5h-502q-16 0 -28.5 -2t-12.5 -19zM678 1417 q0 -4 5 -8t9 -4q6 0 17.5 7t15.5 11l237 180q53 41 76 69t23 56q0 18 -15.5 41t-50.5 23q-43 0 -71.5 -32t-61.5 -77l-156 -217q-20 -29 -24 -36t-4 -13z" />
<glyph unicode="&#xdb;" horiz-adv-x="1556" d="M63 1288q0 -10 7.5 -13t15.5 -3q47 -6 72.5 -13.5t48.5 -29.5q12 -12 22.5 -29.5t17.5 -67t12 -142.5t5 -255q0 -16 -1 -55t-1 -84q0 -43 -1 -82t-1 -55q0 -123 14.5 -190.5t53.5 -121.5q41 -57 103.5 -89.5t127 -50t121.5 -21.5t86 -4q104 0 186 19t143.5 51t102.5 74 t62 89q20 49 32.5 125t18.5 160t8 164.5t2 140.5q0 150 6 239t24.5 137t51.5 65.5t86 25.5q16 4 19 8t3 8q0 14 -9 17.5t-17 3.5h-402q-20 0 -34.5 -2t-14.5 -19q0 -14 13.5 -17t25.5 -3q63 0 101 -31t56.5 -81t24 -116.5t5.5 -140.5q0 -174 -5.5 -322.5t-21.5 -240.5 q-14 -82 -51 -135.5t-89.5 -84t-116 -43t-130.5 -12.5q-41 0 -93.5 7.5t-103.5 27t-95 57t-69 99.5q-14 35 -22 79t-13.5 105.5t-6.5 143.5t-1 190q0 117 3.5 207t16.5 151.5t41.5 95t80.5 42.5q35 6 50 10t15 16t-11 14.5t-32 2.5h-502q-16 0 -28.5 -2t-12.5 -19zM559 1435 q0 -4 3 -9t13 -5q6 0 21.5 15.5l25.5 25.5l199 205l217 -225q18 -20 29 -21q14 0 14 16q0 4 -9 21.5t-15 30.5l-183 325h-110l-176 -317q-20 -37 -24.5 -45t-4.5 -17z" />
<glyph unicode="&#xdc;" horiz-adv-x="1556" d="M63 1288q0 -10 7.5 -13t15.5 -3q47 -6 72.5 -13.5t48.5 -29.5q12 -12 22.5 -29.5t17.5 -67t12 -142.5t5 -255q0 -16 -1 -55t-1 -84q0 -43 -1 -82t-1 -55q0 -123 14.5 -190.5t53.5 -121.5q41 -57 103.5 -89.5t127 -50t121.5 -21.5t86 -4q104 0 186 19t143.5 51t102.5 74 t62 89q20 49 32.5 125t18.5 160t8 164.5t2 140.5q0 150 6 239t24.5 137t51.5 65.5t86 25.5q16 4 19 8t3 8q0 14 -9 17.5t-17 3.5h-402q-20 0 -34.5 -2t-14.5 -19q0 -14 13.5 -17t25.5 -3q63 0 101 -31t56.5 -81t24 -116.5t5.5 -140.5q0 -174 -5.5 -322.5t-21.5 -240.5 q-14 -82 -51 -135.5t-89.5 -84t-116 -43t-130.5 -12.5q-41 0 -93.5 7.5t-103.5 27t-95 57t-69 99.5q-14 35 -22 79t-13.5 105.5t-6.5 143.5t-1 190q0 117 3.5 207t16.5 151.5t41.5 95t80.5 42.5q35 6 50 10t15 16t-11 14.5t-32 2.5h-502q-16 0 -28.5 -2t-12.5 -19zM538 1538 q0 -41 28 -66.5t65 -25.5t64.5 25.5t27.5 66.5t-27.5 66.5t-64.5 25.5q-35 0 -64 -25.5t-29 -66.5zM917 1538q0 -41 28 -66.5t64 -25.5q37 0 65 25.5t28 66.5t-29 66.5t-64 25.5q-37 0 -64.5 -25.5t-27.5 -66.5z" />
<glyph unicode="&#xdd;" horiz-adv-x="1449" d="M33 1278q0 -10 9 -13t13 -3q37 -6 55.5 -11.5t43.5 -21.5q31 -20 72.5 -69.5t87.5 -115t93.5 -138t88.5 -140.5t72.5 -122t47.5 -83q6 -12 11.5 -50t8.5 -81t5 -81t2 -48q0 -152 -40 -211t-122 -63q-27 0 -26 -17q0 -14 13 -17t24 -3q10 0 38.5 1t59.5 3q33 2 61.5 4 t38.5 2h58q41 0 88 -2t90 -5t59 -3q4 0 19.5 2t15.5 18q0 12 -12.5 16.5t-61.5 8.5q-31 4 -64.5 22.5t-45.5 53.5q-6 16 -9.5 61t-4.5 96t-2 99.5t-1 70.5q0 8 1 39t2 66t4 67.5t8 46.5q4 12 9 22.5t21.5 35t51 73t100.5 134.5q76 104 127 169.5t92 102.5t79 51.5t89 14.5 q8 0 16 2t8 14q0 16 -15 18t-38 2h-377q-29 0 -43 -2t-14 -16t10.5 -16t24.5 -2q6 0 26.5 -3.5t42 -13.5t39 -27.5t17.5 -46.5t-19.5 -61.5t-50.5 -79.5q-61 -90 -128.5 -185t-127.5 -159q-66 90 -132.5 184.5t-129.5 184.5q-8 10 -18.5 26.5t-20.5 35t-17 36.5t-7 33 q0 2 2 12t11 22.5t29.5 23.5t59.5 15q29 4 39 7.5t10 13.5q0 14 -11 16t-24 2h-465q-39 0 -53 -2t-14 -16zM584 1417q0 -4 5 -8t9 -4q6 0 17.5 7t15.5 11l237 180q53 41 76 69t23 56q0 18 -15.5 41t-50.5 23q-43 0 -71.5 -32t-61.5 -77l-156 -217q-20 -29 -24 -36t-4 -13z " />
<glyph unicode="&#xde;" horiz-adv-x="1259" d="M96 18q0 -18 51 -18h324h125q6 0 17.5 2t11.5 16q0 10 -12.5 14.5t-37.5 8.5q-78 10 -108.5 62.5t-30.5 181.5v73h174q104 0 203.5 13.5t177.5 51.5t125 106.5t47 179.5q0 125 -55 194.5t-153.5 103t-231.5 39t-287 1.5v53q0 55 10.5 88t29 51t43 25.5t52.5 9.5 q35 4 43.5 6t8.5 14q0 14 -11.5 16.5t-23.5 2.5h-461q-6 0 -17.5 -2t-11.5 -15v-8q0 -4 4 -8q2 -2 23.5 -5t26.5 -3q43 -6 66.5 -23.5t34.5 -50.5t13 -84t2 -127v-702q0 -10 -1 -35t-4 -52.5t-7 -52t-8 -34.5q-14 -31 -41 -50.5t-60 -23.5q-35 -4 -43 -6t-8 -13zM436 403 v570q6 10 15.5 17t25.5 11q25 4 63 5.5t52 1.5q41 0 105.5 -4.5t126 -31t106.5 -85t45 -164.5q0 -82 -22.5 -137.5t-58.5 -92t-81 -56t-87 -29t-79 -10.5t-57 -1q-61 0 -154 6z" />
<glyph unicode="&#xdf;" d="M25 23q0 -14 12 -16.5t18 -2.5h359q6 0 16 2t10 14q0 18 -18 19q-39 2 -60.5 15.5t-33 48t-13.5 97t-2 167.5v96q0 63 1 139t1 158t1 153.5t3.5 127t4.5 77.5q2 33 12 71t32.5 68.5t59.5 51t94 20.5q68 0 109 -28.5t62.5 -68.5t27.5 -84t6 -73q0 -109 -45 -170t-143 -71 q-41 -4 -49.5 -6.5t-8.5 -12.5q0 -14 11.5 -17t33.5 -5q45 -4 95.5 -15.5t91.5 -55.5t67.5 -132t26.5 -246q0 -43 -5 -96t-20.5 -99.5t-46 -77t-82.5 -30.5q-29 0 -35 14.5t-10 34.5q-4 33 -17 64.5t-59 31.5q-20 0 -46.5 -14t-26.5 -55q0 -16 8 -36t26.5 -37t48 -29.5 t72.5 -12.5q72 0 134.5 32t109.5 87t75 130t28 163q0 80 -29 165t-101 146q-53 47 -107 62.5t-101 23.5v4q31 8 73.5 25.5t80.5 47.5t65.5 77t27.5 116q0 47 -19.5 97.5t-60 92.5t-105 68.5t-155.5 26.5q-121 0 -189.5 -43t-103 -102.5t-46 -120t-13.5 -96.5q-2 -18 -3 -42 t-2 -83.5t-2 -169t-1 -297.5q0 -12 1 -45t1 -72q0 -37 1 -71t1 -48q0 -12 -2 -33.5t-13.5 -43t-35 -38t-68.5 -20.5q-10 -2 -20 -5t-10 -13z" />
<glyph unicode="&#xe0;" horiz-adv-x="897" d="M96 182q0 -37 11.5 -71.5t38 -62.5t67.5 -45t100 -17q61 0 105.5 15t76 37.5t52 46.5t33.5 42h4q0 -33 2 -57.5t11 -42t28.5 -26.5t54.5 -9q12 0 45 1t66.5 4t59.5 10t26 22q0 16 -23 16q-4 0 -21.5 -2t-23.5 -2q-18 0 -33.5 9t-28 39t-18.5 84t-6 144q0 14 1 52.5 t2 81.5t2 81.5t1 55.5q0 90 -7 131t-34 63q-80 74 -246 74q-90 0 -149.5 -19.5t-95 -47t-51 -59.5t-15.5 -58q0 -29 11.5 -46.5t24.5 -26.5t24.5 -12t13.5 -3q23 0 38 12t24 28.5t13.5 31t4.5 20.5q6 27 12 51.5t21.5 44t42 31.5t69.5 12q31 0 59.5 -8t51 -29.5t36 -57.5 t13.5 -91q0 -39 -12.5 -64.5t-44 -46t-89 -41t-149.5 -51.5q-100 -35 -149.5 -97.5t-49.5 -146.5zM209 1280q0 -29 22.5 -56.5t76.5 -68.5l237 -180q4 -4 15.5 -11t17.5 -7q4 0 9 4t5 8q0 6 -5 13t-23 36l-156 217q-33 45 -61.5 77t-71.5 32q-35 0 -50.5 -22.5t-15.5 -41.5z M248 201q0 41 17.5 73.5t42 57t49 41t40.5 24.5q49 25 79 41.5t48.5 28.5t31 23.5t26.5 27.5q6 -61 6 -180q0 -68 -13.5 -131.5t-72.5 -112.5q-29 -25 -60.5 -35t-60.5 -10q-59 0 -96 45t-37 107z" />
<glyph unicode="&#xe1;" horiz-adv-x="897" d="M96 182q0 -37 11.5 -71.5t38 -62.5t67.5 -45t100 -17q61 0 105.5 15t76 37.5t52 46.5t33.5 42h4q0 -33 2 -57.5t11 -42t28.5 -26.5t54.5 -9q12 0 45 1t66.5 4t59.5 10t26 22q0 16 -23 16q-4 0 -21.5 -2t-23.5 -2q-18 0 -33.5 9t-28 39t-18.5 84t-6 144q0 14 1 52.5 t2 81.5t2 81.5t1 55.5q0 90 -7 131t-34 63q-80 74 -246 74q-90 0 -149.5 -19.5t-95 -47t-51 -59.5t-15.5 -58q0 -29 11.5 -46.5t24.5 -26.5t24.5 -12t13.5 -3q23 0 38 12t24 28.5t13.5 31t4.5 20.5q6 27 12 51.5t21.5 44t42 31.5t69.5 12q31 0 59.5 -8t51 -29.5t36 -57.5 t13.5 -91q0 -39 -12.5 -64.5t-44 -46t-89 -41t-149.5 -51.5q-100 -35 -149.5 -97.5t-49.5 -146.5zM248 201q0 41 17.5 73.5t42 57t49 41t40.5 24.5q49 25 79 41.5t48.5 28.5t31 23.5t26.5 27.5q6 -61 6 -180q0 -68 -13.5 -131.5t-72.5 -112.5q-29 -25 -60.5 -35t-60.5 -10 q-59 0 -96 45t-37 107zM308 969q0 -4 5 -8t9 -4q6 0 17.5 7t15.5 11l237 180q53 41 76 69t23 56q0 18 -15.5 41t-50.5 23q-43 0 -71.5 -32t-61.5 -77l-156 -217q-20 -29 -24 -36t-4 -13z" />
<glyph unicode="&#xe2;" horiz-adv-x="897" d="M96 182q0 -37 11.5 -71.5t38 -62.5t67.5 -45t100 -17q61 0 105.5 15t76 37.5t52 46.5t33.5 42h4q0 -33 2 -57.5t11 -42t28.5 -26.5t54.5 -9q12 0 45 1t66.5 4t59.5 10t26 22q0 16 -23 16q-4 0 -21.5 -2t-23.5 -2q-18 0 -33.5 9t-28 39t-18.5 84t-6 144q0 14 1 52.5 t2 81.5t2 81.5t1 55.5q0 90 -7 131t-34 63q-80 74 -246 74q-90 0 -149.5 -19.5t-95 -47t-51 -59.5t-15.5 -58q0 -29 11.5 -46.5t24.5 -26.5t24.5 -12t13.5 -3q23 0 38 12t24 28.5t13.5 31t4.5 20.5q6 27 12 51.5t21.5 44t42 31.5t69.5 12q31 0 59.5 -8t51 -29.5t36 -57.5 t13.5 -91q0 -39 -12.5 -64.5t-44 -46t-89 -41t-149.5 -51.5q-100 -35 -149.5 -97.5t-49.5 -146.5zM189 987q0 -4 3 -9t13 -5q6 0 21.5 15.5l25.5 25.5l199 205l217 -225q18 -20 29 -21q14 0 14 16q0 4 -9 21.5t-15 30.5l-183 325h-110l-176 -317q-20 -37 -24.5 -45t-4.5 -17 zM248 201q0 41 17.5 73.5t42 57t49 41t40.5 24.5q49 25 79 41.5t48.5 28.5t31 23.5t26.5 27.5q6 -61 6 -180q0 -68 -13.5 -131.5t-72.5 -112.5q-29 -25 -60.5 -35t-60.5 -10q-59 0 -96 45t-37 107z" />
<glyph unicode="&#xe3;" horiz-adv-x="897" d="M96 182q0 -37 11.5 -71.5t38 -62.5t67.5 -45t100 -17q61 0 105.5 15t76 37.5t52 46.5t33.5 42h4q0 -33 2 -57.5t11 -42t28.5 -26.5t54.5 -9q12 0 45 1t66.5 4t59.5 10t26 22q0 16 -23 16q-4 0 -21.5 -2t-23.5 -2q-18 0 -33.5 9t-28 39t-18.5 84t-6 144q0 14 1 52.5 t2 81.5t2 81.5t1 55.5q0 90 -7 131t-34 63q-80 74 -246 74q-90 0 -149.5 -19.5t-95 -47t-51 -59.5t-15.5 -58q0 -29 11.5 -46.5t24.5 -26.5t24.5 -12t13.5 -3q23 0 38 12t24 28.5t13.5 31t4.5 20.5q6 27 12 51.5t21.5 44t42 31.5t69.5 12q31 0 59.5 -8t51 -29.5t36 -57.5 t13.5 -91q0 -39 -12.5 -64.5t-44 -46t-89 -41t-149.5 -51.5q-100 -35 -149.5 -97.5t-49.5 -146.5zM179 987q0 -16 20 -16q16 0 19.5 4t5.5 21q4 29 30.5 50t61.5 21q23 0 40 -7t34 -17q39 -25 63.5 -39.5t40.5 -21.5t29.5 -9t31.5 -2q43 0 75 19.5t51.5 50t29.5 66.5t10 69 q0 12 -2 15t-12 3q-23 0 -27 -2t-6 -12q-4 -35 -28.5 -55.5t-59.5 -20.5q-20 0 -47 8.5t-74 38.5q-49 31 -74.5 38t-45.5 7q-55 0 -89 -30.5t-50.5 -68.5t-21.5 -70.5t-5 -39.5zM248 201q0 41 17.5 73.5t42 57t49 41t40.5 24.5q49 25 79 41.5t48.5 28.5t31 23.5t26.5 27.5 q6 -61 6 -180q0 -68 -13.5 -131.5t-72.5 -112.5q-29 -25 -60.5 -35t-60.5 -10q-59 0 -96 45t-37 107z" />
<glyph unicode="&#xe4;" horiz-adv-x="897" d="M96 182q0 -37 11.5 -71.5t38 -62.5t67.5 -45t100 -17q61 0 105.5 15t76 37.5t52 46.5t33.5 42h4q0 -33 2 -57.5t11 -42t28.5 -26.5t54.5 -9q12 0 45 1t66.5 4t59.5 10t26 22q0 16 -23 16q-4 0 -21.5 -2t-23.5 -2q-18 0 -33.5 9t-28 39t-18.5 84t-6 144q0 14 1 52.5 t2 81.5t2 81.5t1 55.5q0 90 -7 131t-34 63q-80 74 -246 74q-90 0 -149.5 -19.5t-95 -47t-51 -59.5t-15.5 -58q0 -29 11.5 -46.5t24.5 -26.5t24.5 -12t13.5 -3q23 0 38 12t24 28.5t13.5 31t4.5 20.5q6 27 12 51.5t21.5 44t42 31.5t69.5 12q31 0 59.5 -8t51 -29.5t36 -57.5 t13.5 -91q0 -39 -12.5 -64.5t-44 -46t-89 -41t-149.5 -51.5q-100 -35 -149.5 -97.5t-49.5 -146.5zM168 1090q0 -41 28 -66.5t65 -25.5t64.5 25.5t27.5 66.5t-27.5 66.5t-64.5 25.5q-35 0 -64 -25.5t-29 -66.5zM248 201q0 41 17.5 73.5t42 57t49 41t40.5 24.5q49 25 79 41.5 t48.5 28.5t31 23.5t26.5 27.5q6 -61 6 -180q0 -68 -13.5 -131.5t-72.5 -112.5q-29 -25 -60.5 -35t-60.5 -10q-59 0 -96 45t-37 107zM547 1090q0 -41 28 -66.5t64 -25.5q37 0 65 25.5t28 66.5t-29 66.5t-64 25.5q-37 0 -64.5 -25.5t-27.5 -66.5z" />
<glyph unicode="&#xe5;" horiz-adv-x="897" d="M96 182q0 -37 11.5 -71.5t38 -62.5t67.5 -45t100 -17q61 0 105.5 15t76 37.5t52 46.5t33.5 42h4q0 -33 2 -57.5t11 -42t28.5 -26.5t54.5 -9q12 0 45 1t66.5 4t59.5 10t26 22q0 16 -23 16q-4 0 -21.5 -2t-23.5 -2q-18 0 -33.5 9t-28 39t-18.5 84t-6 144q0 14 1 52.5 t2 81.5t2 81.5t1 55.5q0 90 -7 131t-34 63q-80 74 -246 74q-90 0 -149.5 -19.5t-95 -47t-51 -59.5t-15.5 -58q0 -29 11.5 -46.5t24.5 -26.5t24.5 -12t13.5 -3q23 0 38 12t24 28.5t13.5 31t4.5 20.5q6 27 12 51.5t21.5 44t42 31.5t69.5 12q31 0 59.5 -8t51 -29.5t36 -57.5 t13.5 -91q0 -39 -12.5 -64.5t-44 -46t-89 -41t-149.5 -51.5q-100 -35 -149.5 -97.5t-49.5 -146.5zM248 201q0 41 17.5 73.5t42 57t49 41t40.5 24.5q49 25 79 41.5t48.5 28.5t31 23.5t26.5 27.5q6 -61 6 -180q0 -68 -13.5 -131.5t-72.5 -112.5q-29 -25 -60.5 -35t-60.5 -10 q-59 0 -96 45t-37 107zM289 1153q0 -66 47 -113.5t113 -47.5q68 0 115 48t47 113q0 66 -47 114t-115 48q-66 0 -113 -47t-47 -115zM351 1153q0 41 28.5 71t69.5 30q43 0 71.5 -30t28.5 -71t-29.5 -70.5t-70.5 -29.5q-39 0 -68.5 29.5t-29.5 70.5z" />
<glyph unicode="&#xe6;" horiz-adv-x="1366" d="M74 170q0 -90 48 -139t124 -49q53 0 104 20.5t95 50t79 59t56 48.5q45 -68 101 -105t107.5 -53t91.5 -19t52 -3q86 0 154.5 26.5t114.5 60t70.5 63.5t24.5 36q0 18 -18 18q-12 0 -37 -26q-53 -57 -127 -91t-137 -34q-41 0 -74 14t-58.5 32.5t-41 34t-17.5 19.5 q-31 37 -46 81t-21 87t-5 80.5t1 62.5q29 2 103.5 7.5t160.5 10.5t163 10t109 9q31 4 36 10.5t5 12.5q0 10 -6 37.5t-16 58.5q-29 90 -76 140.5t-94 74t-85 27.5t-50 4q-18 0 -46 -3t-63 -16.5t-75 -40t-81 -73.5q-10 16 -28.5 39.5t-48 45t-73.5 37t-108 15.5 q-35 0 -77.5 -11.5t-80.5 -25.5t-64.5 -25.5t-31.5 -13.5q-59 -29 -76.5 -63.5t-17.5 -57.5q0 -18 8.5 -29.5t18.5 -17.5t21.5 -8t15.5 -2q35 0 54 22.5t30 45.5q12 29 24.5 55t31.5 45.5t50 32t78 12.5q51 0 80 -28.5t41 -69.5t14 -90.5t2 -88.5q-145 -53 -239.5 -97 t-149.5 -85t-77.5 -84t-22.5 -96zM209 236q0 53 31.5 85.5t85.5 61.5q53 29 115.5 53t121.5 47v-57v-86v-86v-53q-72 -68 -114.5 -98.5t-92.5 -30.5q-66 0 -106.5 49t-40.5 115zM715 489q2 47 8 104.5t43 111.5q35 47 82 73.5t100 26.5q78 0 125 -57.5t47 -165.5 q0 -25 -9 -39.5t-46 -22.5q-31 -6 -62.5 -11t-72.5 -8t-93 -5.5t-122 -6.5z" />
<glyph unicode="&#xe7;" horiz-adv-x="854" d="M68 406q0 -74 26.5 -150t76.5 -136.5t124 -97t170 -36.5q-18 -33 -28.5 -52.5t-17.5 -34t-15.5 -26.5t-20.5 -33q8 -2 21.5 -5t25.5 -9t20.5 -18.5t8.5 -32.5q0 -49 -49.5 -67.5t-104.5 -18.5q-8 0 -24.5 -3t-16.5 -18q0 -6 8.5 -10t20.5 -6t24 -2h21q51 0 99 11t85 31.5 t59.5 50.5t22.5 67q0 10 -4 27.5t-17.5 35.5t-39 32.5t-68.5 20.5q10 23 16.5 34.5t16.5 27.5q84 10 139 42.5t87 74.5t45.5 83t13.5 68q0 4 -3.5 10t-15.5 6q-10 0 -14 -5t-8 -23q-6 -41 -28 -78t-53.5 -65.5t-71.5 -45t-79 -16.5q-59 0 -110.5 32.5t-89 89t-59 134.5 t-21.5 170q0 10 1 42t8 71.5t20.5 83t39 79t64.5 59t96 23.5q39 0 66.5 -13t46 -32.5t30 -44t19.5 -47.5q8 -29 26.5 -59.5t59.5 -30.5q25 0 44 21.5t19 56.5q0 55 -39 91t-90 57.5t-103 29.5t-77 8q-94 0 -169 -41t-127 -105.5t-79.5 -146.5t-27.5 -161z" />
<glyph unicode="&#xe8;" horiz-adv-x="874" d="M70 401q0 -96 31.5 -173.5t86 -133t127 -85t154.5 -29.5q106 0 197.5 44t134.5 121q0 4 -2 15.5t-15 11.5q-6 0 -12 -5t-27 -24q-41 -39 -98 -66.5t-123 -27.5q-63 0 -116.5 26.5t-92.5 73t-60.5 107.5t-21.5 129v35q1 20 5 47q27 0 97.5 1t151 3t152.5 3t102 1 q55 0 67.5 6t12.5 35q0 72 -30.5 135.5t-81 109.5t-114 72.5t-126.5 26.5q-66 0 -135.5 -31.5t-129 -90t-97 -144.5t-37.5 -193zM196 1280q0 -29 22.5 -56.5t76.5 -68.5l237 -180q4 -4 15.5 -11t17.5 -7q4 0 9 4t5 8q0 6 -5 13t-23 36l-156 217q-33 45 -61.5 77t-71.5 32 q-35 0 -50.5 -22.5t-15.5 -41.5zM238 518q14 111 49 172.5t71.5 91t69.5 35.5t45 6q39 0 73 -17.5t60.5 -46t42 -66.5t15.5 -79q0 -37 -13.5 -57t-38 -30.5t-56.5 -12.5t-69 -2q-55 0 -124.5 2t-124.5 4z" />
<glyph unicode="&#xe9;" horiz-adv-x="874" d="M70 401q0 -96 31.5 -173.5t86 -133t127 -85t154.5 -29.5q106 0 197.5 44t134.5 121q0 4 -2 15.5t-15 11.5q-6 0 -12 -5t-27 -24q-41 -39 -98 -66.5t-123 -27.5q-63 0 -116.5 26.5t-92.5 73t-60.5 107.5t-21.5 129v35q1 20 5 47q27 0 97.5 1t151 3t152.5 3t102 1 q55 0 67.5 6t12.5 35q0 72 -30.5 135.5t-81 109.5t-114 72.5t-126.5 26.5q-66 0 -135.5 -31.5t-129 -90t-97 -144.5t-37.5 -193zM238 518q14 111 49 172.5t71.5 91t69.5 35.5t45 6q39 0 73 -17.5t60.5 -46t42 -66.5t15.5 -79q0 -37 -13.5 -57t-38 -30.5t-56.5 -12.5t-69 -2 q-55 0 -124.5 2t-124.5 4zM295 969q0 -4 5 -8t9 -4q6 0 17.5 7t15.5 11l237 180q53 41 76 69t23 56q0 18 -15.5 41t-50.5 23q-43 0 -71.5 -32t-61.5 -77l-156 -217q-20 -29 -24 -36t-4 -13z" />
<glyph unicode="&#xea;" horiz-adv-x="874" d="M70 401q0 -96 31.5 -173.5t86 -133t127 -85t154.5 -29.5q106 0 197.5 44t134.5 121q0 4 -2 15.5t-15 11.5q-6 0 -12 -5t-27 -24q-41 -39 -98 -66.5t-123 -27.5q-63 0 -116.5 26.5t-92.5 73t-60.5 107.5t-21.5 129v35q1 20 5 47q27 0 97.5 1t151 3t152.5 3t102 1 q55 0 67.5 6t12.5 35q0 72 -30.5 135.5t-81 109.5t-114 72.5t-126.5 26.5q-66 0 -135.5 -31.5t-129 -90t-97 -144.5t-37.5 -193zM176 987q0 -4 3 -9t13 -5q6 0 21.5 15.5l25.5 25.5l199 205l217 -225q18 -20 29 -21q14 0 14 16q0 4 -9 21.5t-15 30.5l-183 325h-110 l-176 -317q-20 -37 -24.5 -45t-4.5 -17zM238 518q14 111 49 172.5t71.5 91t69.5 35.5t45 6q39 0 73 -17.5t60.5 -46t42 -66.5t15.5 -79q0 -37 -13.5 -57t-38 -30.5t-56.5 -12.5t-69 -2q-55 0 -124.5 2t-124.5 4z" />
<glyph unicode="&#xeb;" horiz-adv-x="874" d="M70 401q0 -96 31.5 -173.5t86 -133t127 -85t154.5 -29.5q106 0 197.5 44t134.5 121q0 4 -2 15.5t-15 11.5q-6 0 -12 -5t-27 -24q-41 -39 -98 -66.5t-123 -27.5q-63 0 -116.5 26.5t-92.5 73t-60.5 107.5t-21.5 129v35q1 20 5 47q27 0 97.5 1t151 3t152.5 3t102 1 q55 0 67.5 6t12.5 35q0 72 -30.5 135.5t-81 109.5t-114 72.5t-126.5 26.5q-66 0 -135.5 -31.5t-129 -90t-97 -144.5t-37.5 -193zM155 1090q0 -41 28 -66.5t65 -25.5t64.5 25.5t27.5 66.5t-27.5 66.5t-64.5 25.5q-35 0 -64 -25.5t-29 -66.5zM238 518q14 111 49 172.5t71.5 91 t69.5 35.5t45 6q39 0 73 -17.5t60.5 -46t42 -66.5t15.5 -79q0 -37 -13.5 -57t-38 -30.5t-56.5 -12.5t-69 -2q-55 0 -124.5 2t-124.5 4zM534 1090q0 -41 28 -66.5t64 -25.5q37 0 65 25.5t28 66.5t-29 66.5t-64 25.5q-37 0 -64.5 -25.5t-27.5 -66.5z" />
<glyph unicode="&#xec;" horiz-adv-x="532" d="M28 1280q0 -29 22.5 -56.5t76.5 -68.5l237 -180q4 -4 15.5 -11t17.5 -7q4 0 9 4t5 8q0 6 -5 13t-23 36l-156 217q-33 45 -61.5 77t-71.5 32q-35 0 -50.5 -22.5t-15.5 -41.5zM53 16q0 -14 8.5 -16t16.5 -2q10 0 37.5 1t59.5 3t59.5 3t39.5 1q10 0 37 -2t57.5 -4t57.5 -4 t39 -2q23 0 22 16q0 14 -15 17.5t-40 5.5q-66 4 -80 33.5t-14 74.5q0 121 -2 247t0 247l2 225q-25 -2 -56.5 -4t-65.5 -4t-67.5 -5t-62.5 -5q-10 0 -20.5 -4t-10.5 -15q0 -2 1 -6t5 -6q4 -4 24.5 -6t29.5 -4q29 -6 46 -15.5t26.5 -32t12.5 -62.5t3 -107q0 -23 -1 -82.5 t-2 -127t-2 -128t-1 -84.5q0 -59 -10.5 -86t-45.5 -31q-59 -8 -73.5 -12t-14.5 -17z" />
<glyph unicode="&#xed;" horiz-adv-x="532" d="M53 16q0 -14 8.5 -16t16.5 -2q10 0 37.5 1t59.5 3t59.5 3t39.5 1q10 0 37 -2t57.5 -4t57.5 -4t39 -2q23 0 22 16q0 14 -15 17.5t-40 5.5q-66 4 -80 33.5t-14 74.5q0 121 -2 247t0 247l2 225q-25 -2 -56.5 -4t-65.5 -4t-67.5 -5t-62.5 -5q-10 0 -20.5 -4t-10.5 -15 q0 -2 1 -6t5 -6q4 -4 24.5 -6t29.5 -4q29 -6 46 -15.5t26.5 -32t12.5 -62.5t3 -107q0 -23 -1 -82.5t-2 -127t-2 -128t-1 -84.5q0 -59 -10.5 -86t-45.5 -31q-59 -8 -73.5 -12t-14.5 -17zM127 969q0 -4 5 -8t9 -4q6 0 17.5 7t15.5 11l237 180q53 41 76 69t23 56q0 18 -15.5 41 t-50.5 23q-43 0 -71.5 -32t-61.5 -77l-156 -217q-20 -29 -24 -36t-4 -13z" />
<glyph unicode="&#xee;" horiz-adv-x="532" d="M8 987q0 -4 3 -9t13 -5q6 0 21.5 15.5l25.5 25.5l199 205l217 -225q18 -20 29 -21q14 0 14 16q0 4 -9 21.5t-15 30.5l-183 325h-110l-176 -317q-20 -37 -24.5 -45t-4.5 -17zM53 16q0 -14 8.5 -16t16.5 -2q10 0 37.5 1t59.5 3t59.5 3t39.5 1q10 0 37 -2t57.5 -4t57.5 -4 t39 -2q23 0 22 16q0 14 -15 17.5t-40 5.5q-66 4 -80 33.5t-14 74.5q0 121 -2 247t0 247l2 225q-25 -2 -56.5 -4t-65.5 -4t-67.5 -5t-62.5 -5q-10 0 -20.5 -4t-10.5 -15q0 -2 1 -6t5 -6q4 -4 24.5 -6t29.5 -4q29 -6 46 -15.5t26.5 -32t12.5 -62.5t3 -107q0 -23 -1 -82.5 t-2 -127t-2 -128t-1 -84.5q0 -59 -10.5 -86t-45.5 -31q-59 -8 -73.5 -12t-14.5 -17z" />
<glyph unicode="&#xef;" horiz-adv-x="532" d="M-13 1090q0 -41 28 -66.5t65 -25.5t64.5 25.5t27.5 66.5t-27.5 66.5t-64.5 25.5q-35 0 -64 -25.5t-29 -66.5zM53 16q0 -14 8.5 -16t16.5 -2q10 0 37.5 1t59.5 3t59.5 3t39.5 1q10 0 37 -2t57.5 -4t57.5 -4t39 -2q23 0 22 16q0 14 -15 17.5t-40 5.5q-66 4 -80 33.5 t-14 74.5q0 121 -2 247t0 247l2 225q-25 -2 -56.5 -4t-65.5 -4t-67.5 -5t-62.5 -5q-10 0 -20.5 -4t-10.5 -15q0 -2 1 -6t5 -6q4 -4 24.5 -6t29.5 -4q29 -6 46 -15.5t26.5 -32t12.5 -62.5t3 -107q0 -23 -1 -82.5t-2 -127t-2 -128t-1 -84.5q0 -59 -10.5 -86t-45.5 -31 q-59 -8 -73.5 -12t-14.5 -17zM366 1090q0 -41 28 -66.5t64 -25.5q37 0 65 25.5t28 66.5t-29 66.5t-64 25.5q-37 0 -64.5 -25.5t-27.5 -66.5z" />
<glyph unicode="&#xf0;" horiz-adv-x="1003" d="M70 412q0 -90 32.5 -168t91 -136.5t136.5 -92t168 -33.5q86 0 164.5 33.5t139 95t96.5 148.5t36 194q0 111 -42 235.5t-108 237.5q-51 86 -106 149.5t-105 114.5l168 133l-32 35l-170 -135q-27 27 -75 65.5t-93 69.5h-84q8 -8 23.5 -20.5t30.5 -26t27.5 -24.5t16.5 -15 q25 -29 40 -46.5t24.5 -28.5t14.5 -16t11 -12l-176 -139l29 -33l176 138q37 -49 64.5 -89t50 -79t43 -81t47.5 -98l-4 -4q-31 23 -79 47.5t-128 24.5q-100 0 -179 -39t-134.5 -101.5t-85 -142t-29.5 -161.5zM227 432q0 80 21.5 150.5t58.5 122t88 81t111 29.5q76 0 127 -39 t83 -99.5t46 -133t14 -142.5q0 -115 -30.5 -188.5t-74.5 -115.5t-91.5 -58t-77.5 -16q-47 0 -96.5 23.5t-89.5 73.5t-64.5 128t-24.5 184z" />
<glyph unicode="&#xf1;" horiz-adv-x="1087" d="M51 14q0 -14 19 -14h20h33h31h22q12 0 45 -1t70 -1q39 0 73.5 -1t49.5 -1q20 0 20 12q0 18 -22 21q-35 4 -56.5 14t-32 33.5t-13.5 63.5t-3 104q0 84 4 143t12.5 102t17.5 74t21 55q12 33 35 64t50.5 55.5t61.5 39t71 14.5q70 0 107.5 -41t55 -96.5t20.5 -115t3 -96.5 q0 -39 -2 -90t-3 -96t-3 -77t-2 -34q-2 -49 -17.5 -70.5t-54.5 -31.5q-23 -4 -37 -9t-14 -14q0 -14 12 -16t17 -2q10 0 35.5 1t54 3t55.5 3t37 1q8 0 32.5 -2t50 -4t45.5 -4l21 -2q6 0 12.5 3t6.5 13t-9.5 13.5t-50.5 15.5q-45 12 -52 49t-7 96q0 18 1 71.5t2 110t2 103.5 t1 53q0 43 -4 100.5t-28.5 107.5t-77 85t-150.5 35q-102 0 -177 -57.5t-126 -139.5h-4q-2 47 -4 76t-4 48.5t-6.5 35.5t-12.5 39q-53 -2 -108 -2h-109q-6 0 -18.5 -2t-12.5 -16q0 -8 9.5 -12.5t46.5 -16.5q57 -18 66 -90t9 -178v-109q0 -55 -1 -109.5t-3 -103.5t-6 -86 q0 -8 -2 -21.5t-8 -25.5t-16.5 -23.5t-26.5 -13.5q-49 -10 -61.5 -14t-12.5 -19zM273 987q0 -16 20 -16q16 0 19.5 4t5.5 21q4 29 30.5 50t61.5 21q23 0 40 -7t34 -17q39 -25 63.5 -39.5t40.5 -21.5t29.5 -9t31.5 -2q43 0 75 19.5t51.5 50t29.5 66.5t10 69q0 12 -2 15t-12 3 q-23 0 -27 -2t-6 -12q-4 -35 -28.5 -55.5t-59.5 -20.5q-20 0 -47 8.5t-74 38.5q-49 31 -74.5 38t-45.5 7q-55 0 -89 -30.5t-50.5 -68.5t-21.5 -70.5t-5 -39.5z" />
<glyph unicode="&#xf2;" horiz-adv-x="1003" d="M70 418q0 -92 34.5 -172t93 -137.5t135.5 -90t161 -32.5q90 0 169.5 37.5t140 101t95.5 145.5t35 172q0 92 -35 169t-93 132.5t-135 87t-161 31.5q-98 0 -180 -39t-139.5 -102.5t-89 -143t-31.5 -159.5zM227 424q0 86 19.5 158.5t55.5 126t84 83t108 29.5q72 0 125 -39 t87.5 -98t52 -131t17.5 -139q0 -74 -18.5 -143.5t-54 -124t-86 -87t-111.5 -32.5t-112.5 31.5t-88.5 85t-57.5 126t-20.5 154.5zM262 1280q0 -29 22.5 -56.5t76.5 -68.5l237 -180q4 -4 15.5 -11t17.5 -7q4 0 9 4t5 8q0 6 -5 13t-23 36l-156 217q-33 45 -61.5 77t-71.5 32 q-35 0 -50.5 -22.5t-15.5 -41.5z" />
<glyph unicode="&#xf3;" horiz-adv-x="1003" d="M70 418q0 -92 34.5 -172t93 -137.5t135.5 -90t161 -32.5q90 0 169.5 37.5t140 101t95.5 145.5t35 172q0 92 -35 169t-93 132.5t-135 87t-161 31.5q-98 0 -180 -39t-139.5 -102.5t-89 -143t-31.5 -159.5zM227 424q0 86 19.5 158.5t55.5 126t84 83t108 29.5q72 0 125 -39 t87.5 -98t52 -131t17.5 -139q0 -74 -18.5 -143.5t-54 -124t-86 -87t-111.5 -32.5t-112.5 31.5t-88.5 85t-57.5 126t-20.5 154.5zM361 969q0 -4 5 -8t9 -4q6 0 17.5 7t15.5 11l237 180q53 41 76 69t23 56q0 18 -15.5 41t-50.5 23q-43 0 -71.5 -32t-61.5 -77l-156 -217 q-20 -29 -24 -36t-4 -13z" />
<glyph unicode="&#xf4;" horiz-adv-x="1003" d="M70 418q0 -92 34.5 -172t93 -137.5t135.5 -90t161 -32.5q90 0 169.5 37.5t140 101t95.5 145.5t35 172q0 92 -35 169t-93 132.5t-135 87t-161 31.5q-98 0 -180 -39t-139.5 -102.5t-89 -143t-31.5 -159.5zM227 424q0 86 19.5 158.5t55.5 126t84 83t108 29.5q72 0 125 -39 t87.5 -98t52 -131t17.5 -139q0 -74 -18.5 -143.5t-54 -124t-86 -87t-111.5 -32.5t-112.5 31.5t-88.5 85t-57.5 126t-20.5 154.5zM242 987q0 -4 3 -9t13 -5q6 0 21.5 15.5l25.5 25.5l199 205l217 -225q18 -20 29 -21q14 0 14 16q0 4 -9 21.5t-15 30.5l-183 325h-110 l-176 -317q-20 -37 -24.5 -45t-4.5 -17z" />
<glyph unicode="&#xf5;" horiz-adv-x="1003" d="M70 418q0 -92 34.5 -172t93 -137.5t135.5 -90t161 -32.5q90 0 169.5 37.5t140 101t95.5 145.5t35 172q0 92 -35 169t-93 132.5t-135 87t-161 31.5q-98 0 -180 -39t-139.5 -102.5t-89 -143t-31.5 -159.5zM227 424q0 86 19.5 158.5t55.5 126t84 83t108 29.5q72 0 125 -39 t87.5 -98t52 -131t17.5 -139q0 -74 -18.5 -143.5t-54 -124t-86 -87t-111.5 -32.5t-112.5 31.5t-88.5 85t-57.5 126t-20.5 154.5zM232 987q0 -16 20 -16q16 0 19.5 4t5.5 21q4 29 30.5 50t61.5 21q23 0 40 -7t34 -17q39 -25 63.5 -39.5t40.5 -21.5t29.5 -9t31.5 -2 q43 0 75 19.5t51.5 50t29.5 66.5t10 69q0 12 -2 15t-12 3q-23 0 -27 -2t-6 -12q-4 -35 -28.5 -55.5t-59.5 -20.5q-20 0 -47 8.5t-74 38.5q-49 31 -74.5 38t-45.5 7q-55 0 -89 -30.5t-50.5 -68.5t-21.5 -70.5t-5 -39.5z" />
<glyph unicode="&#xf6;" horiz-adv-x="1003" d="M70 418q0 -92 34.5 -172t93 -137.5t135.5 -90t161 -32.5q90 0 169.5 37.5t140 101t95.5 145.5t35 172q0 92 -35 169t-93 132.5t-135 87t-161 31.5q-98 0 -180 -39t-139.5 -102.5t-89 -143t-31.5 -159.5zM221 1090q0 -41 28 -66.5t65 -25.5t64.5 25.5t27.5 66.5 t-27.5 66.5t-64.5 25.5q-35 0 -64 -25.5t-29 -66.5zM227 424q0 86 19.5 158.5t55.5 126t84 83t108 29.5q72 0 125 -39t87.5 -98t52 -131t17.5 -139q0 -74 -18.5 -143.5t-54 -124t-86 -87t-111.5 -32.5t-112.5 31.5t-88.5 85t-57.5 126t-20.5 154.5zM600 1090q0 -41 28 -66.5 t64 -25.5q37 0 65 25.5t28 66.5t-29 66.5t-64 25.5q-37 0 -64.5 -25.5t-27.5 -66.5z" />
<glyph unicode="&#xf7;" horiz-adv-x="1366" d="M145 551h1076v88h-1076v-88zM618 182q0 -27 18.5 -44t43.5 -17q27 0 44 17t17 44t-17 44.5t-44 17.5q-25 0 -43.5 -17.5t-18.5 -44.5zM618 1014q0 -27 17.5 -47.5t46.5 -20.5q27 0 43 18.5t16 43.5q0 27 -17 44t-44 17q-23 0 -42.5 -14t-19.5 -41z" />
<glyph unicode="&#xf8;" horiz-adv-x="1003" d="M68 -53l32 -29l136 156q41 -31 79.5 -48.5t72.5 -26.5t60.5 -11t45.5 -2q90 0 169.5 37.5t140 101t95.5 145.5t35 172q0 72 -27.5 150t-93.5 145l129 146l-35 28l-127 -145q-63 51 -135 73.5t-135 22.5q-96 0 -177 -38t-139.5 -101.5t-91 -143t-32.5 -165.5q0 -8 2 -40 t14 -76t40 -95t77 -101zM227 432q0 70 16.5 139.5t50.5 125t84 90t116 34.5q49 0 84.5 -16.5t61.5 -39t42 -46t25 -37.5l-428 -489q-27 57 -39.5 119.5t-12.5 119.5zM301 152l428 489q29 -68 38 -125t9 -102q0 -74 -18.5 -143.5t-54 -124t-86 -87t-111.5 -32.5q-8 0 -29.5 2 t-50.5 13t-61.5 36.5t-63.5 73.5z" />
<glyph unicode="&#xf9;" horiz-adv-x="1044" d="M78 823q0 -12 8 -15t31 -5q18 -2 29.5 -6t15.5 -14.5t5 -29t1 -48.5q0 -37 1 -116t4 -165t6 -161t7 -101q8 -61 36 -96t59.5 -52.5t62.5 -21.5t49 -4q63 0 114.5 20.5t92.5 51t70.5 64.5t50.5 60q2 -16 2 -39v-36q0 -10 -1 -40t-1 -40q0 -12 6 -19.5t35 -7.5h158 q25 0 38 2t13 16q0 10 -8.5 14.5t-36.5 8.5q-39 6 -50.5 51t-11.5 125q0 20 1 76.5t3 119t3 119t1 78.5q0 86 -3 140.5t-7 87.5h-200q-29 0 -40.5 -2t-11.5 -17q0 -10 9.5 -13t13.5 -3q35 -2 54.5 -11.5t27.5 -30t9 -54t1 -84.5v-95q0 -59 -3 -122.5t-10 -117.5t-20 -77 q-47 -82 -109.5 -119t-105.5 -37q-18 0 -41.5 7.5t-45 23.5t-38 43t-22.5 64q-4 23 -6 71.5t-4.5 112t-3.5 134.5t-2 134.5t-2 114.5t-3 78h-184q-27 0 -37 -2t-10 -15zM282 1280q0 -29 22.5 -56.5t76.5 -68.5l237 -180q4 -4 15.5 -11t17.5 -7q4 0 9 4t5 8q0 6 -5 13t-23 36 l-156 217q-33 45 -61.5 77t-71.5 32q-35 0 -50.5 -22.5t-15.5 -41.5z" />
<glyph unicode="&#xfa;" horiz-adv-x="1044" d="M78 823q0 -12 8 -15t31 -5q18 -2 29.5 -6t15.5 -14.5t5 -29t1 -48.5q0 -37 1 -116t4 -165t6 -161t7 -101q8 -61 36 -96t59.5 -52.5t62.5 -21.5t49 -4q63 0 114.5 20.5t92.5 51t70.5 64.5t50.5 60q2 -16 2 -39v-36q0 -10 -1 -40t-1 -40q0 -12 6 -19.5t35 -7.5h158 q25 0 38 2t13 16q0 10 -8.5 14.5t-36.5 8.5q-39 6 -50.5 51t-11.5 125q0 20 1 76.5t3 119t3 119t1 78.5q0 86 -3 140.5t-7 87.5h-200q-29 0 -40.5 -2t-11.5 -17q0 -10 9.5 -13t13.5 -3q35 -2 54.5 -11.5t27.5 -30t9 -54t1 -84.5v-95q0 -59 -3 -122.5t-10 -117.5t-20 -77 q-47 -82 -109.5 -119t-105.5 -37q-18 0 -41.5 7.5t-45 23.5t-38 43t-22.5 64q-4 23 -6 71.5t-4.5 112t-3.5 134.5t-2 134.5t-2 114.5t-3 78h-184q-27 0 -37 -2t-10 -15zM381 969q0 -4 5 -8t9 -4q6 0 17.5 7t15.5 11l237 180q53 41 76 69t23 56q0 18 -15.5 41t-50.5 23 q-43 0 -71.5 -32t-61.5 -77l-156 -217q-20 -29 -24 -36t-4 -13z" />
<glyph unicode="&#xfb;" horiz-adv-x="1044" d="M78 823q0 -12 8 -15t31 -5q18 -2 29.5 -6t15.5 -14.5t5 -29t1 -48.5q0 -37 1 -116t4 -165t6 -161t7 -101q8 -61 36 -96t59.5 -52.5t62.5 -21.5t49 -4q63 0 114.5 20.5t92.5 51t70.5 64.5t50.5 60q2 -16 2 -39v-36q0 -10 -1 -40t-1 -40q0 -12 6 -19.5t35 -7.5h158 q25 0 38 2t13 16q0 10 -8.5 14.5t-36.5 8.5q-39 6 -50.5 51t-11.5 125q0 20 1 76.5t3 119t3 119t1 78.5q0 86 -3 140.5t-7 87.5h-200q-29 0 -40.5 -2t-11.5 -17q0 -10 9.5 -13t13.5 -3q35 -2 54.5 -11.5t27.5 -30t9 -54t1 -84.5v-95q0 -59 -3 -122.5t-10 -117.5t-20 -77 q-47 -82 -109.5 -119t-105.5 -37q-18 0 -41.5 7.5t-45 23.5t-38 43t-22.5 64q-4 23 -6 71.5t-4.5 112t-3.5 134.5t-2 134.5t-2 114.5t-3 78h-184q-27 0 -37 -2t-10 -15zM262 987q0 -4 3 -9t13 -5q6 0 21.5 15.5l25.5 25.5l199 205l217 -225q18 -20 29 -21q14 0 14 16 q0 4 -9 21.5t-15 30.5l-183 325h-110l-176 -317q-20 -37 -24.5 -45t-4.5 -17z" />
<glyph unicode="&#xfc;" horiz-adv-x="1044" d="M78 823q0 -12 8 -15t31 -5q18 -2 29.5 -6t15.5 -14.5t5 -29t1 -48.5q0 -37 1 -116t4 -165t6 -161t7 -101q8 -61 36 -96t59.5 -52.5t62.5 -21.5t49 -4q63 0 114.5 20.5t92.5 51t70.5 64.5t50.5 60q2 -16 2 -39v-36q0 -10 -1 -40t-1 -40q0 -12 6 -19.5t35 -7.5h158 q25 0 38 2t13 16q0 10 -8.5 14.5t-36.5 8.5q-39 6 -50.5 51t-11.5 125q0 20 1 76.5t3 119t3 119t1 78.5q0 86 -3 140.5t-7 87.5h-200q-29 0 -40.5 -2t-11.5 -17q0 -10 9.5 -13t13.5 -3q35 -2 54.5 -11.5t27.5 -30t9 -54t1 -84.5v-95q0 -59 -3 -122.5t-10 -117.5t-20 -77 q-47 -82 -109.5 -119t-105.5 -37q-18 0 -41.5 7.5t-45 23.5t-38 43t-22.5 64q-4 23 -6 71.5t-4.5 112t-3.5 134.5t-2 134.5t-2 114.5t-3 78h-184q-27 0 -37 -2t-10 -15zM241 1090q0 -41 28 -66.5t65 -25.5t64.5 25.5t27.5 66.5t-27.5 66.5t-64.5 25.5q-35 0 -64 -25.5 t-29 -66.5zM620 1090q0 -41 28 -66.5t64 -25.5q37 0 65 25.5t28 66.5t-29 66.5t-64 25.5q-37 0 -64.5 -25.5t-27.5 -66.5z" />
<glyph unicode="&#xfd;" d="M18 -406q0 -23 11.5 -47t33 -43.5t52 -33t71.5 -13.5q76 0 134.5 43t101.5 106.5t74.5 136.5t56.5 132q14 35 47 126t70 195.5t69.5 197.5t46.5 132q25 63 44.5 112.5t40 85.5t44 57.5t56.5 27.5q16 4 25.5 8t9.5 17q0 10 -7.5 13t-17.5 3t-35.5 -1t-54.5 -1 q-27 0 -52.5 -1t-37.5 -1h-29q-20 0 -42.5 1t-45.5 1h-27q-23 0 -22 -17q0 -18 29 -18q55 -6 79.5 -29.5t24.5 -62.5q0 -37 -5 -66.5t-9 -46.5q-10 -37 -22.5 -76.5t-31 -93t-44 -124t-60.5 -167.5q-66 154 -110 258.5t-69.5 171t-36.5 101.5t-11 53q0 25 17 44.5t40 25.5 q45 12 55.5 17t10.5 16q0 10 -9.5 14t-15.5 4q-41 -2 -89 -4t-108 -2h-96q-45 0 -63 4h-23q-27 0 -27 -19q0 -10 10.5 -13t37.5 -7q39 -6 88 -99.5t131 -289.5q86 -207 128 -317.5t42 -165.5q0 -29 -22.5 -93.5t-57.5 -129t-80 -113.5t-88 -49t-49 40q-2 14 -5 32t-12.5 31 t-27 22.5t-45.5 9.5q-29 0 -61 -27t-32 -68zM371 969q0 -4 5 -8t9 -4q6 0 17.5 7t15.5 11l237 180q53 41 76 69t23 56q0 18 -15.5 41t-50.5 23q-43 0 -71.5 -32t-61.5 -77l-156 -217q-20 -29 -24 -36t-4 -13z" />
<glyph unicode="&#xfe;" d="M8 -485q0 -20 25 -21l14 1t33 3q16 0 34.5 1t24.5 1q16 0 59.5 -1t90.5 -3t91 -3t62 -1q16 0 17 16q0 12 -9.5 16.5t-33.5 8.5q-39 6 -59.5 21.5t-30 36t-11.5 45t-2 49.5v77v82t1 98.5t3 123.5q37 -31 75 -46.5t71 -23.5t57.5 -9t34.5 -1q74 0 146.5 30.5t131 87 t94.5 135t36 173.5q0 88 -31 164.5t-82 133t-117.5 89t-138.5 32.5q-57 0 -101 -17t-78 -39.5t-56.5 -47.5t-34.5 -39v676h-240q-35 0 -35 -16q0 -20 29 -23q41 -4 63.5 -17.5t33.5 -46t13 -85t0 -132.5l-4 -278q-2 -178 -3 -308t-2 -224.5t-1 -161.5v-117t-1 -95t-3 -96 q-4 -70 -9 -112.5t-18.5 -67t-41 -36t-72.5 -15.5q-16 -2 -20.5 -5t-4.5 -13zM315 381q0 63 3.5 107t8.5 76t14 55.5t21 44.5q25 41 72 72.5t111 31.5q51 0 98 -23.5t83 -69.5t57.5 -114.5t21.5 -161.5q0 -92 -23.5 -162.5t-62.5 -116.5t-87 -69.5t-100 -23.5 q-57 0 -103 25.5t-69 60.5q-29 45 -37 104.5t-8 163.5z" />
<glyph unicode="&#xff;" d="M18 -406q0 -23 11.5 -47t33 -43.5t52 -33t71.5 -13.5q76 0 134.5 43t101.5 106.5t74.5 136.5t56.5 132q14 35 47 126t70 195.5t69.5 197.5t46.5 132q25 63 44.5 112.5t40 85.5t44 57.5t56.5 27.5q16 4 25.5 8t9.5 17q0 10 -7.5 13t-17.5 3t-35.5 -1t-54.5 -1 q-27 0 -52.5 -1t-37.5 -1h-29q-20 0 -42.5 1t-45.5 1h-27q-23 0 -22 -17q0 -18 29 -18q55 -6 79.5 -29.5t24.5 -62.5q0 -37 -5 -66.5t-9 -46.5q-10 -37 -22.5 -76.5t-31 -93t-44 -124t-60.5 -167.5q-66 154 -110 258.5t-69.5 171t-36.5 101.5t-11 53q0 25 17 44.5t40 25.5 q45 12 55.5 17t10.5 16q0 10 -9.5 14t-15.5 4q-41 -2 -89 -4t-108 -2h-96q-45 0 -63 4h-23q-27 0 -27 -19q0 -10 10.5 -13t37.5 -7q39 -6 88 -99.5t131 -289.5q86 -207 128 -317.5t42 -165.5q0 -29 -22.5 -93.5t-57.5 -129t-80 -113.5t-88 -49t-49 40q-2 14 -5 32t-12.5 31 t-27 22.5t-45.5 9.5q-29 0 -61 -27t-32 -68zM231 1090q0 -41 28 -66.5t65 -25.5t64.5 25.5t27.5 66.5t-27.5 66.5t-64.5 25.5q-35 0 -64 -25.5t-29 -66.5zM610 1090q0 -41 28 -66.5t64 -25.5q37 0 65 25.5t28 66.5t-29 66.5t-64 25.5q-37 0 -64.5 -25.5t-27.5 -66.5z" />
<glyph unicode="&#x152;" horiz-adv-x="2240" d="M94 641q0 -141 48 -260t133 -205t199 -135t245 -49q25 0 88 4t135 8t135.5 8t89.5 4q14 0 51 -2t79 -4t77 -5t47 -3h27q20 0 45 -1t49 -1h49h508q4 14 15.5 62.5t23.5 102.5t21.5 100t9.5 57q0 20 -15 20q-10 0 -16 -9t-10 -16q-41 -98 -107.5 -153t-140.5 -82 t-144.5 -33t-119.5 -6q-102 0 -157.5 18.5t-81 66.5t-30 129t-4.5 206v22v33q0 20 1.5 55t3.5 93q63 0 134.5 -4.5t121.5 -26.5q35 -16 58.5 -42t37.5 -53.5t20 -54t9 -41.5l5 -15t15 -9q10 0 13 9t3 15q0 14 -1 49t-3 73t-3 72t-1 48q0 23 2 78t8 123q2 4 2 20q0 25 -16 25 h-6t-6 -4q-4 -4 -8 -20.5t-9 -20.5q-23 -53 -47 -87t-57 -54.5t-75 -27.5t-99 -7q-12 0 -29.5 1t-68.5 3q-4 135 -1 269t13 269q18 4 36.5 7.5t42 6.5t54.5 4t76 1q102 0 170.5 -11.5t121 -39t96.5 -75.5t97 -124q20 -31 29 -31q4 0 10 4t6 19q0 6 -6 42t-15.5 82t-19.5 95 t-20 82h-623q-14 0 -53 -1t-82 -5q-45 -4 -84 -6.5t-55 -2.5q-20 0 -74.5 4.5t-114.5 8.5q-61 4 -116.5 8t-77.5 4q-135 0 -255 -55.5t-211 -149.5t-144.5 -218t-53.5 -261zM311 674q0 129 32 239.5t91.5 190.5t142 126t185.5 46q104 0 176 -31t119 -81t71.5 -112.5t37 -127 t14.5 -123t2 -99.5q0 -39 -1 -94t-7.5 -115.5t-18.5 -122t-37 -110.5q-51 -109 -147.5 -164t-210.5 -55q-96 0 -167 35t-120 91t-81 125.5t-50 140.5t-24.5 134.5t-6.5 106.5z" />
<glyph unicode="&#x153;" horiz-adv-x="1599" d="M72 412q0 -84 31.5 -161t86 -137.5t127 -96t154.5 -35.5q14 0 52 4t88.5 23.5t107.5 60.5t110 114q25 -33 41.5 -53t28.5 -33.5t20.5 -22.5t18.5 -18q37 -35 99.5 -56t129.5 -21q74 0 132.5 21.5t98.5 49t61.5 55t21.5 37.5q0 14 -15 15q-8 0 -13 -6.5t-26 -28.5 q-33 -37 -89 -65.5t-121 -28.5q-57 0 -107.5 27.5t-85.5 82t-54.5 132t-15.5 178.5q27 0 70 -1.5t90 -2.5t90 -2t70 -1q12 0 43 1t65.5 2t67.5 2.5t45 1.5h35q0 119 -37 196.5t-91 124.5t-114.5 66.5t-107.5 19.5q-61 0 -111.5 -18.5t-88.5 -46t-65.5 -57t-46.5 -50.5 q-16 20 -43.5 51t-69.5 58.5t-98.5 47t-130.5 19.5q-88 0 -170 -37t-145.5 -99t-101 -143t-37.5 -169zM248 436q0 41 7 89t22.5 96.5t39 89.5t58.5 65q29 23 70.5 35t82.5 12q80 0 128.5 -44t74 -105.5t33.5 -126t8 -103.5q0 -72 -17.5 -146.5t-51 -136t-87 -100 t-122.5 -38.5q-80 0 -129.5 49t-75 116.5t-33.5 137t-8 110.5zM954 487q2 47 9.5 105.5t30 109t65.5 84t117 33.5q92 0 147 -66.5t55 -158.5q0 -23 -11 -54.5t-58 -41.5q-25 -6 -73 -9.5t-101 -3.5q-51 0 -100.5 1t-80.5 1z" />
<glyph unicode="&#x178;" horiz-adv-x="1449" d="M33 1278q0 -10 9 -13t13 -3q37 -6 55.5 -11.5t43.5 -21.5q31 -20 72.5 -69.5t87.5 -115t93.5 -138t88.5 -140.5t72.5 -122t47.5 -83q6 -12 11.5 -50t8.5 -81t5 -81t2 -48q0 -152 -40 -211t-122 -63q-27 0 -26 -17q0 -14 13 -17t24 -3q10 0 38.5 1t59.5 3q33 2 61.5 4 t38.5 2h58q41 0 88 -2t90 -5t59 -3q4 0 19.5 2t15.5 18q0 12 -12.5 16.5t-61.5 8.5q-31 4 -64.5 22.5t-45.5 53.5q-6 16 -9.5 61t-4.5 96t-2 99.5t-1 70.5q0 8 1 39t2 66t4 67.5t8 46.5q4 12 9 22.5t21.5 35t51 73t100.5 134.5q76 104 127 169.5t92 102.5t79 51.5t89 14.5 q8 0 16 2t8 14q0 16 -15 18t-38 2h-377q-29 0 -43 -2t-14 -16t10.5 -16t24.5 -2q6 0 26.5 -3.5t42 -13.5t39 -27.5t17.5 -46.5t-19.5 -61.5t-50.5 -79.5q-61 -90 -128.5 -185t-127.5 -159q-66 90 -132.5 184.5t-129.5 184.5q-8 10 -18.5 26.5t-20.5 35t-17 36.5t-7 33 q0 2 2 12t11 22.5t29.5 23.5t59.5 15q29 4 39 7.5t10 13.5q0 14 -11 16t-24 2h-465q-39 0 -53 -2t-14 -16zM444 1538q0 -41 28 -66.5t65 -25.5t64.5 25.5t27.5 66.5t-27.5 66.5t-64.5 25.5q-35 0 -64 -25.5t-29 -66.5zM823 1538q0 -41 28 -66.5t64 -25.5q37 0 65 25.5 t28 66.5t-29 66.5t-64 25.5q-37 0 -64.5 -25.5t-27.5 -66.5z" />
<glyph unicode="&#x2c6;" horiz-adv-x="681" d="M80 956q0 -4 3 -9t13 -5q6 0 21.5 15.5l25.5 25.5l199 205l217 -225q18 -20 29 -21q14 0 14 16q0 4 -9 21.5t-15 30.5l-183 325h-110l-176 -317q-20 -37 -24.5 -45t-4.5 -17z" />
<glyph unicode="&#x2dc;" horiz-adv-x="681" d="M70 956q0 -16 20 -16q16 0 19.5 4t5.5 21q4 29 30.5 50t61.5 21q23 0 40 -7t34 -17q39 -25 63.5 -39.5t40.5 -21.5t29.5 -9t31.5 -2q43 0 75 19.5t51.5 50t29.5 66.5t10 69q0 12 -2 15t-12 3q-23 0 -27 -2t-6 -12q-4 -35 -28.5 -55.5t-59.5 -20.5q-20 0 -47 8.5t-74 38.5 q-49 31 -74.5 38t-45.5 7q-55 0 -89 -30.5t-50.5 -68.5t-21.5 -70.5t-5 -39.5z" />
<glyph unicode="&#x2000;" horiz-adv-x="907" />
<glyph unicode="&#x2001;" horiz-adv-x="1814" />
<glyph unicode="&#x2002;" horiz-adv-x="907" />
<glyph unicode="&#x2003;" horiz-adv-x="1814" />
<glyph unicode="&#x2004;" horiz-adv-x="604" />
<glyph unicode="&#x2005;" horiz-adv-x="453" />
<glyph unicode="&#x2006;" horiz-adv-x="302" />
<glyph unicode="&#x2007;" horiz-adv-x="302" />
<glyph unicode="&#x2008;" horiz-adv-x="226" />
<glyph unicode="&#x2009;" horiz-adv-x="362" />
<glyph unicode="&#x200a;" horiz-adv-x="100" />
<glyph unicode="&#x2010;" horiz-adv-x="704" d="M35 389q0 -29 8 -33t43 -4h539q31 0 38 4t7 33v55q0 29 -4 35t-27 6h-553q-35 0 -43 -5t-8 -36v-55z" />
<glyph unicode="&#x2011;" horiz-adv-x="704" d="M35 389q0 -29 8 -33t43 -4h539q31 0 38 4t7 33v55q0 29 -4 35t-27 6h-553q-35 0 -43 -5t-8 -36v-55z" />
<glyph unicode="&#x2012;" horiz-adv-x="704" d="M35 389q0 -29 8 -33t43 -4h539q31 0 38 4t7 33v55q0 29 -4 35t-27 6h-553q-35 0 -43 -5t-8 -36v-55z" />
<glyph unicode="&#x2013;" d="M-12 465h1048v94h-1048v-94z" />
<glyph unicode="&#x2014;" horiz-adv-x="2048" d="M-12 465h2072v94h-2072v-94z" />
<glyph unicode="&#x2018;" horiz-adv-x="425" d="M119 1055q0 -55 36 -87t83 -32q43 0 65.5 24.5t22.5 53.5q0 35 -20.5 51t-31.5 20q-18 10 -32.5 20.5t-14.5 29.5q0 35 31 66.5t88 76.5q27 20 27 31q0 4 -2 11t-17 7q-4 0 -42 -20.5t-81 -57.5t-77.5 -87t-34.5 -107z" />
<glyph unicode="&#x2019;" horiz-adv-x="425" d="M53 954q0 -4 2 -11t17 -7q4 0 42 20.5t81 57.5t77.5 87t34.5 107q0 55 -36 87t-83 32q-43 0 -65.5 -24.5t-22.5 -53.5q0 -35 20.5 -51t31.5 -20q18 -10 32.5 -20.5t14.5 -29.5q0 -35 -32 -65.5t-87 -77.5q-27 -20 -27 -31z" />
<glyph unicode="&#x201a;" horiz-adv-x="425" d="M57 -246q0 -4 2 -11t17 -7q4 0 42 20.5t81 57t77.5 87t34.5 107.5q0 55 -35.5 87t-82.5 32q-43 0 -66 -24.5t-23 -53.5q0 -35 20.5 -51t31.5 -21q18 -10 32.5 -20t14.5 -29q0 -35 -31 -66.5t-88 -76.5q-27 -20 -27 -31z" />
<glyph unicode="&#x201c;" horiz-adv-x="724" d="M96 1055q0 -55 36 -87t83 -32q43 0 65.5 24.5t22.5 53.5q0 35 -20.5 51t-30.5 20q-18 10 -32.5 20.5t-14.5 29.5q0 35 30.5 66.5t88.5 76.5q27 20 26 31q0 4 -2 11t-16 7q-4 0 -42 -20.5t-81 -57.5t-78 -87t-35 -107zM440 1055q0 -55 36 -87t83 -32q43 0 65.5 24.5 t22.5 53.5q0 35 -20.5 51t-30.5 20q-18 10 -32.5 20.5t-14.5 29.5q0 35 30.5 66.5t88.5 76.5q27 20 26 31q0 4 -2 11t-16 7q-4 0 -42 -20.5t-81 -57.5t-78 -87t-35 -107z" />
<glyph unicode="&#x201d;" horiz-adv-x="724" d="M31 954q0 -4 2 -11t16 -7q4 0 42 20.5t81 57.5t78 87t35 107q0 55 -36 87t-83 32q-43 0 -65.5 -24.5t-22.5 -53.5q0 -35 20.5 -51t30.5 -20q18 -10 32.5 -20.5t14.5 -29.5q0 -35 -30.5 -66.5t-88.5 -76.5q-27 -20 -26 -31zM375 954q0 -4 2 -11t16 -7q4 0 42 20.5t81 57.5 t78 87t35 107q0 55 -36 87t-83 32q-43 0 -65.5 -24.5t-22.5 -53.5q0 -35 20.5 -51t30.5 -20q18 -10 32.5 -20.5t14.5 -29.5q0 -35 -30.5 -66.5t-88.5 -76.5q-27 -20 -26 -31z" />
<glyph unicode="&#x201e;" horiz-adv-x="788" d="M31 -246q0 -4 2 -11t16 -7q4 0 42 20.5t81 57t78 87t35 107.5q0 55 -36 87t-83 32q-43 0 -65.5 -24.5t-22.5 -53.5q0 -35 20.5 -51t30.5 -21q18 -10 32.5 -20t14.5 -29q0 -35 -30.5 -66.5t-88.5 -76.5q-27 -20 -26 -31zM375 -246q0 -4 2 -11t16 -7q4 0 42 20.5t81 57 t78 87t35 107.5q0 55 -36 87t-83 32q-43 0 -65.5 -24.5t-22.5 -53.5q0 -35 20.5 -51t30.5 -21q18 -10 32.5 -20t14.5 -29q0 -35 -30.5 -66.5t-88.5 -76.5q-27 -20 -26 -31z" />
<glyph unicode="&#x2022;" horiz-adv-x="724" d="M113 678q0 -53 19.5 -98t53 -80t79.5 -54.5t97 -19.5t97.5 19.5t81 54.5t54 80t19.5 98q0 51 -19.5 97t-54 80t-80.5 53.5t-98 19.5q-51 0 -97 -19.5t-79.5 -53.5t-53 -80t-19.5 -97z" />
<glyph unicode="&#x2026;" horiz-adv-x="2048" d="M244 86q0 -41 28.5 -69.5t69.5 -28.5t69.5 28.5t28.5 69.5t-28.5 69.5t-69.5 28.5t-69.5 -28.5t-28.5 -69.5zM926 86q0 -41 28.5 -69.5t69.5 -28.5t69.5 28.5t28.5 69.5t-28.5 69.5t-69.5 28.5t-69.5 -28.5t-28.5 -69.5zM1608 86q0 -41 28.5 -69.5t69.5 -28.5t69.5 28.5 t28.5 69.5t-28.5 69.5t-69.5 28.5t-69.5 -28.5t-28.5 -69.5z" />
<glyph unicode="&#x202f;" horiz-adv-x="362" />
<glyph unicode="&#x2039;" horiz-adv-x="575" d="M53 418q8 -8 18.5 -17.5t30 -28t53 -50t89.5 -82.5q68 -63 107.5 -101.5t62 -60t33 -30.5t20.5 -15q6 -2 18 -2q14 0 15 6q0 4 -1 7t-12 17q-8 12 -39.5 59.5t-69.5 104t-75 110.5t-55 83q10 16 32.5 50t50 76t57.5 87t54.5 83t41 62.5t16.5 26.5q0 4 -8.5 6t-10.5 2h-4 q-4 0 -32.5 -25.5t-70.5 -63.5t-91.5 -84t-94.5 -90t-81.5 -79t-53.5 -51z" />
<glyph unicode="&#x203a;" horiz-adv-x="575" d="M76 37q0 -6 12 -6q14 0 21 2q8 6 19 15t33.5 30.5t62.5 59.5t108 102q55 51 89 82.5t53.5 50t29.5 28t18 17.5q-16 16 -53 51t-82 79t-94 90t-91 84t-71 63.5t-33 25.5h-4q-2 0 -10 -2t-8 -6q0 -2 16.5 -26.5t41 -62.5t54 -83t57 -87t50 -76t33.5 -50q-18 -29 -55 -83 t-75 -110.5t-70 -103.5t-40 -60q-10 -14 -11 -17t-1 -7z" />
<glyph unicode="&#x205f;" horiz-adv-x="453" />
<glyph unicode="&#x2122;" horiz-adv-x="2004" d="M121 1108h26q6 49 18.5 76.5t33 41t47 17.5t59.5 4h92v-565q0 -55 -5 -88t-18.5 -49.5t-36 -20.5t-56.5 -4v-33h356v33q-37 0 -59.5 4t-36 20.5t-18.5 49.5t-5 88v565h94q45 0 73 -7t45.5 -22.5t25.5 -43t12 -66.5h27v188h-674v-188zM866 487h287v33q-43 0 -67.5 4 t-35 18.5t-12.5 41t-2 71.5v508h4l318 -676h16l307 691h5v-516q0 -47 -4.5 -75t-16.5 -42.5t-35.5 -19.5t-62.5 -5v-33h346v33q-41 0 -63.5 6t-34 21.5t-14.5 42t-3 72.5v473q0 43 3 67.5t15.5 37.5t35 18.5t61.5 7.5v30h-227l-287 -634l-295 634h-238v-30q43 -4 65.5 -12.5 t34 -25t13.5 -43t2 -65.5v-458q0 -45 -2 -73t-12.5 -43.5t-34 -20.5t-66.5 -5v-33z" />
<glyph unicode="&#xfb01;" horiz-adv-x="1130" d="M80 805q0 -20 16 -25q10 -4 53.5 -5t79.5 -1q10 -137 11.5 -283.5t1.5 -285.5q0 -82 -13.5 -122t-50.5 -50q-25 -6 -33 -9.5t-8 -13.5t7.5 -15t17.5 -5q35 2 80 8t80 6t52 1t27 -1l76 -12q12 0 22.5 4t10.5 14t-9 13.5t-18 5.5q-53 6 -75.5 44t-20.5 136l4 276l-2 248 l-2 41h86h59h56h84t72.5 -9t21.5 -44q2 -29 3 -100.5t2 -151.5t2 -152.5t1 -105.5q0 -109 -21.5 -146.5t-56.5 -39.5q-29 -2 -40 -4.5t-11 -14.5t17 -18q2 0 23.5 1t52 3t63.5 4t57 4q25 2 65 -4t68 -6q29 0 36 3t7 17q0 12 -9 14.5t-50 4.5q-31 4 -45.5 52t-11.5 161l2 227 q0 106 1 166.5t2 100.5t4 69t9 72q-76 -12 -123 -19.5t-83 -11.5t-69.5 -5t-82.5 -1h-191q0 31 -2 79t-2 76q0 162 54.5 247t146.5 85q33 0 58.5 -11t45 -27.5t31.5 -36t18 -35.5q23 -55 37 -79t51 -24q35 0 62.5 25.5t27.5 62.5q0 68 -76.5 117t-203.5 49q-98 0 -167 -26.5 t-114 -69.5t-70.5 -99.5t-38 -115t-14.5 -115.5t-2 -102h-24t-44 -1t-43 -2l-20 -1q-10 -2 -14 -8.5t-4 -22.5z" />
<glyph unicode="&#xfb02;" horiz-adv-x="1130" d="M61 813q0 -27 17 -27q4 0 18.5 3.5t18.5 3.5h18h31q16 0 30.5 1t20.5 1v-349q0 -16 -1 -57t-1 -88t-1 -89t-1 -58q0 -55 -10.5 -88t-50.5 -37q-35 -4 -43.5 -6.5t-8.5 -14.5q0 -14 10.5 -16t22.5 -2q39 4 81 7t83 3h43t43 -2t43 -3t39 -5q20 0 33.5 2t13.5 18 q0 12 -10.5 15.5t-20.5 3.5q-41 2 -64.5 13t-35.5 41t-16.5 82t-4.5 136v107q0 68 2 139t5.5 136t7.5 101q49 2 88 2h88q109 0 166 -3t92 -7v-141q0 -82 -1 -169t-4 -167t-7 -129q-6 -66 -20.5 -100.5t-74.5 -42.5q-12 -2 -22 -5.5t-10 -13.5q0 -14 11 -16t23 -2q39 0 82 6 q20 2 40 3t40 1q41 0 81 -3t83 -7q16 0 30.5 2t14.5 16q0 12 -8 14.5t-12 4.5q-35 2 -55.5 7t-32.5 27q-8 14 -13.5 49t-7.5 77t-2 81v64q0 37 1 116.5t2 181t3 213t4 215t3 185.5t1 123q-35 -4 -69.5 -6t-63.5 -2q-10 0 -39.5 3t-64.5 5q-33 2 -62.5 4t-42.5 2 q-127 0 -204.5 -48t-119.5 -124t-57.5 -167t-17.5 -177q-29 -2 -66.5 -3t-66.5 -5q-12 -2 -16.5 -8t-4.5 -27zM376 922q-1 39 1 84t8 91t18 85q27 78 80.5 113.5t108.5 35.5q41 0 80 -16.5t71 -48.5q18 -20 31.5 -41t22 -48.5t11.5 -62.5t3 -82l-4 -180q-125 4 -195.5 6 t-113.5 2h-66q-23 0 -55 -2q0 25 -1 64z" />
</font>
</defs>
</svg>
