<?xml version="1.0" encoding="utf-8"?>
<!-- Generated by IcoMoon.io -->
<!DOCTYPE svg PUBLIC "-//W3C//DTD SVG 1.1//EN" "http://www.w3.org/Graphics/SVG/1.1/DTD/svg11.dtd">
<svg version="1.1" xmlns="http://www.w3.org/2000/svg" xmlns:xlink="http://www.w3.org/1999/xlink" width="304" height="24" viewBox="0 0 304 24">
<svg id="icon-times" width="24" height="24" viewBox="0 0 24 24" x="0" y="0">
<path fill="#444444" d="M17.414 6.586c-0.78-0.781-2.048-0.781-2.828 0l-2.586 2.586-2.586-2.586c-0.78-0.781-2.048-0.781-2.828 0-0.781 0.781-0.781 2.047 0 2.828l2.585 2.586-2.585 2.586c-0.781 0.781-0.781 2.047 0 2.828 0.39 0.391 0.902 0.586 1.414 0.586s1.024-0.195 1.414-0.586l2.586-2.586 2.586 2.586c0.39 0.391 0.902 0.586 1.414 0.586s1.024-0.195 1.414-0.586c0.781-0.781 0.781-2.047 0-2.828l-2.585-2.586 2.585-2.586c0.781-0.781 0.781-2.047 0-2.828z"></path>
</svg>
<svg id="icon-tick" width="24" height="24" viewBox="0 0 24 24" x="40" y="0">
<path fill="#5bbd72" d="M16.972 6.251c-0.967-0.538-2.185-0.188-2.72 0.777l-3.713 6.682-2.125-2.125c-0.781-0.781-2.047-0.781-2.828 0s-0.781 2.047 0 2.828l4 4c0.378 0.379 0.888 0.587 1.414 0.587 0.092 0 0.185-0.006 0.277-0.020 0.621-0.087 1.166-0.46 1.471-1.009l5-9c0.537-0.966 0.189-2.183-0.776-2.72z"></path>
</svg>
<svg id="icon-image" width="24" height="24" viewBox="0 0 24 24" x="80" y="0">
<path fill="#444444" d="M11 8.501c0 1.381-1.119 2.5-2.5 2.5s-2.5-1.119-2.5-2.5c0-1.381 1.119-2.5 2.5-2.5s2.5 1.119 2.5 2.5z"></path>
<path fill="#444444" d="M16 10c-2 0-3 3-4.5 3s-1.499-1-3.5-1c-2 0-3.001 4-3.001 4h14.001c0 0-1-6-3-6z"></path>
<path fill="#444444" d="M20 3h-16c-1.103 0-2 0.897-2 2v12c0 1.103 0.897 2 2 2h16c1.103 0 2-0.897 2-2v-12c0-1.103-0.897-2-2-2zM20 17h-16v-12h16v12z"></path>
</svg>
<svg id="icon-warning" width="24" height="24" viewBox="0 0 24 24" x="120" y="0">
<path fill="#444444" d="M21.171 15.398l-5.912-9.854c-0.776-1.293-1.963-2.033-3.259-2.033s-2.483 0.74-3.259 2.031l-5.912 9.856c-0.786 1.309-0.872 2.705-0.235 3.83 0.636 1.126 1.878 1.772 3.406 1.772h12c1.528 0 2.77-0.646 3.406-1.771 0.637-1.125 0.551-2.521-0.235-3.831zM12 17.549c-0.854 0-1.55-0.695-1.55-1.549s0.695-1.551 1.55-1.551 1.55 0.696 1.55 1.551c0 0.854-0.696 1.549-1.55 1.549zM13.633 10.125c-0.011 0.031-1.401 3.468-1.401 3.468-0.038 0.094-0.13 0.156-0.231 0.156s-0.193-0.062-0.231-0.156l-1.391-3.438c-0.090-0.233-0.129-0.443-0.129-0.655 0-0.965 0.785-1.75 1.75-1.75s1.75 0.785 1.75 1.75c0 0.212-0.039 0.422-0.117 0.625z"></path>
</svg>
<svg id="icon-media-stop" width="24" height="24" viewBox="0 0 24 24" x="160" y="0">
<path fill="#444444" d="M16 6h-8c-1.1 0-2 0.9-2 2v8c0 1.1 0.9 2 2 2h8c1.1 0 2-0.9 2-2v-8c0-1.1-0.9-2-2-2z"></path>
</svg>
<svg id="icon-media-play" width="24" height="24" viewBox="0 0 24 24" x="200" y="0">
<path fill="#444444" d="M10.396 18.433c2.641-2.574 6.604-6.433 6.604-6.433s-3.963-3.859-6.604-6.433c-0.363-0.349-0.853-0.567-1.396-0.567-1.104 0-2 0.896-2 2v10c0 1.104 0.896 2 2 2 0.543 0 1.033-0.218 1.396-0.567z"></path>
</svg>
<svg id="icon-document-text" width="24" height="24" viewBox="0 0 24 24" x="240" y="0">
<path fill="#444444" d="M17 21h-10c-1.654 0-3-1.346-3-3v-12c0-1.654 1.346-3 3-3h10c1.654 0 3 1.346 3 3v12c0 1.654-1.346 3-3 3zM7 5c-0.551 0-1 0.449-1 1v12c0 0.551 0.449 1 1 1h10c0.551 0 1-0.449 1-1v-12c0-0.551-0.449-1-1-1h-10z"></path>
<path fill="#444444" d="M16 11h-8c-0.276 0-0.5-0.224-0.5-0.5s0.224-0.5 0.5-0.5h8c0.276 0 0.5 0.224 0.5 0.5s-0.224 0.5-0.5 0.5z"></path>
<path fill="#444444" d="M16 8h-8c-0.276 0-0.5-0.224-0.5-0.5s0.224-0.5 0.5-0.5h8c0.276 0 0.5 0.224 0.5 0.5s-0.224 0.5-0.5 0.5z"></path>
<path fill="#444444" d="M16 14h-8c-0.276 0-0.5-0.224-0.5-0.5s0.224-0.5 0.5-0.5h8c0.276 0 0.5 0.224 0.5 0.5s-0.224 0.5-0.5 0.5z"></path>
<path fill="#444444" d="M16 17h-8c-0.276 0-0.5-0.224-0.5-0.5s0.224-0.5 0.5-0.5h8c0.276 0 0.5 0.224 0.5 0.5s-0.224 0.5-0.5 0.5z"></path>
</svg>
</svg>
