<svg width="0" height="0" version="1.1" xmlns="http://www.w3.org/2000/svg" xmlns:xlink="http://www.w3.org/1999/xlink">
<defs>
<symbol id="icon-times-circle" viewBox="0 0 1024 1024">
	<title>times-circle</title>
	<path class="path1" d="M656.571 641.143q0-14.857-10.857-25.714l-103.429-103.429 103.429-103.429q10.857-10.857 10.857-25.714 0-15.429-10.857-26.286l-51.429-51.429q-10.857-10.857-26.286-10.857-14.857 0-25.714 10.857l-103.429 103.429-103.429-103.429q-10.857-10.857-25.714-10.857-15.429 0-26.286 10.857l-51.429 51.429q-10.857 10.857-10.857 26.286 0 14.857 10.857 25.714l103.429 103.429-103.429 103.429q-10.857 10.857-10.857 25.714 0 15.429 10.857 26.286l51.429 51.429q10.857 10.857 26.286 10.857 14.857 0 25.714-10.857l103.429-103.429 103.429 103.429q10.857 10.857 25.714 10.857 15.429 0 26.286-10.857l51.429-51.429q10.857-10.857 10.857-26.286zM877.714 512q0 119.429-58.857 220.286t-159.714 159.714-220.286 58.857-220.286-58.857-159.714-159.714-58.857-220.286 58.857-220.286 159.714-159.714 220.286-58.857 220.286 58.857 159.714 159.714 58.857 220.286z"></path>
</symbol>
<symbol id="icon-star2" viewBox="0 0 1024 1024">
	<title>star2</title>
	<path class="path1" d="M399.445 390.741c0 0-134.827 14.933-224.768 24.917-8.107 0.981-15.275 6.4-17.963 14.635s0 16.811 5.973 22.229c66.816 60.971 167.211 152.277 167.211 152.277-0.085 0-27.563 132.821-45.824 221.44-1.536 8.021 1.365 16.512 8.363 21.589 6.955 5.077 15.915 5.163 22.955 1.195 78.677-44.715 196.523-111.957 196.523-111.957s117.888 67.243 196.437 112c7.168 3.925 16.128 3.84 23.083-1.237 6.997-5.077 9.899-13.568 8.32-21.547-18.261-88.661-45.696-221.483-45.696-221.483s100.395-91.307 167.211-152.149c5.973-5.589 8.619-14.165 5.973-22.357s-9.813-13.611-17.92-14.549c-89.941-10.069-224.811-25.003-224.811-25.003s-55.893-123.648-93.141-206.080c-3.499-7.381-10.837-12.544-19.456-12.544s-16 5.205-19.328 12.544c-37.291 82.432-93.141 206.080-93.141 206.080z"></path>
</symbol>
<symbol id="icon-heart" viewBox="0 0 1024 1024">
	<title>heart</title>
	<path class="path1" d="M512 442.667c0-103.083-83.584-186.667-186.667-186.667s-186.667 83.584-186.667 186.667c0 48.085 6.784 118.784 74.667 186.667s298.667 224 298.667 224 230.784-156.117 298.667-224 74.667-138.581 74.667-186.667c0-103.083-83.584-186.667-186.667-186.667s-186.667 83.584-186.667 186.667z"></path>
</symbol>
<symbol id="icon-star-outline" viewBox="0 0 1024 1024">
	<title>star-outline</title>
	<path class="path1" d="M719.147 894.549c-9.557 0-18.901-2.133-27.563-6.229-1.493-0.597-2.944-1.323-4.437-2.176l-175.232-99.968-175.232 100.011c-1.493 0.853-2.987 1.579-4.523 2.261-20.821 9.728-46.293 7.424-64.896-6.101-20.011-14.507-29.909-39.808-25.003-64.384l40.832-198.059c-15.957-14.507-41.045-37.333-68.352-62.165l-80.853-73.6c-1.152-1.067-2.347-2.261-3.328-3.499-16-16.896-21.717-41.387-14.507-63.659 7.381-22.357 26.453-38.912 49.493-43.051 1.451-0.341 2.859-0.597 4.352-0.768l200.576-22.229 83.029-183.893c0.725-1.621 1.536-3.2 2.56-4.693 11.179-20.181 32.597-32.896 55.851-32.896 23.168 0 44.544 12.715 55.851 32.853 0.896 1.536 1.749 3.115 2.56 4.779l83.115 183.979 200.576 22.229c1.451 0.128 2.901 0.384 4.437 0.725 22.997 4.267 42.069 20.736 49.408 43.179 7.253 22.229 1.493 46.848-14.507 63.744-1.024 1.109-2.176 2.304-3.328 3.328l-149.248 135.851 40.832 197.632c4.821 25.045-5.035 50.261-25.173 64.811-10.752 7.765-23.723 11.989-37.291 11.989zM371.456 614.485c-1.664 7.765-19.883 95.829-36.053 174.165l155.435-88.619c13.099-7.467 29.184-7.467 42.24 0l155.435 88.533-36.224-175.104c-3.029-14.763 1.92-30.080 13.141-40.192l132.267-120.405-177.835-19.669c-14.976-1.664-27.904-11.093-34.176-24.917l-73.728-163.029-73.643 163.029c-6.229 13.739-19.2 23.168-34.176 24.917l-177.835 19.669 132.267 120.405c11.605 10.496 16.384 26.325 12.885 41.216z"></path>
</symbol>
<symbol id="icon-heart-outline" viewBox="0 0 1024 1024">
	<title>heart-outline</title>
	<path class="path1" d="M512 853.333c-8.32 0-16.683-2.432-23.936-7.339-9.6-6.443-235.008-159.147-304.896-229.163-78.123-78.123-87.168-161.152-87.168-216.832 0-126.464 102.869-229.333 229.333-229.333 76.885 0 144.981 38.016 186.667 96.256 41.685-58.24 109.781-96.256 186.667-96.256 126.464 0 229.333 102.869 229.333 229.333 0 55.68-9.045 138.709-87.168 216.832-70.016 70.016-295.381 222.72-304.896 229.163-7.253 4.907-15.616 7.339-23.936 7.339zM325.333 256c-79.403 0-144 64.597-144 144 0 46.635 7.381 101.717 62.165 156.501 51.712 51.712 208.341 161.067 268.501 202.496 60.16-41.429 216.789-150.784 268.501-202.496 54.784-54.784 62.165-109.867 62.165-156.501 0-79.403-64.597-144-144-144s-144 64.597-144 144c0 23.552-19.072 42.667-42.667 42.667s-42.667-19.115-42.667-42.667c0-79.403-64.597-144-144-144z"></path>
</symbol>
</defs>
</svg>